<svg width="190" height="177" viewBox="0 0 190 177" fill="none" xmlns="http://www.w3.org/2000/svg">
<path style="mix-blend-mode:multiply" opacity="0.63" d="M96.8429 176.812C58.5119 151.495 36.3628 149.002 0.713862 122.812C23.3038 111.04 61.6799 88.1351 75.6209 79.4141L170.625 134.899L98.6249 176.821L96.8429 176.812Z" fill="url(#paint0_linear_610_1029)"/>
<path d="M36.0918 124.739L37.0458 119.699C37.2369 118.959 37.3782 118.207 37.4688 117.449C37.4385 116.798 37.3572 116.151 37.2258 115.514C37.2412 114.937 37.1714 114.36 37.0188 113.804C36.7938 113.444 36.0468 113.129 35.7138 112.904L33.7698 111.554C33.2115 111.123 32.7819 110.547 32.5278 109.889L30.1338 105.389L28.1628 101.699C27.7578 100.943 28.4418 99.5387 28.6308 98.7467C28.6775 98.2048 28.8081 97.6735 29.0178 97.1717L30.1428 95.7227C30.9798 94.6517 31.6998 94.0307 31.4838 92.5097C31.4298 92.1677 31.2228 91.9787 31.4838 91.7267C31.4838 91.7267 31.3938 91.2047 31.4388 91.0337C31.5468 90.5747 30.5388 90.1337 30.6288 89.7017C30.7188 89.2697 30.7368 89.2157 30.2868 88.9547C29.8368 88.6937 29.9628 88.7837 29.6298 88.9547C29.3866 89.1068 29.1629 89.2882 28.9638 89.4947C28.8468 89.6027 29.1798 89.9897 29.2518 90.1247C28.6038 90.4037 28.6308 90.4757 28.3518 89.7737C28.2168 90.1607 27.5688 89.5037 27.2088 89.4407C27.0198 89.4407 26.8938 89.6207 26.7768 89.5397L26.1828 89.0897C25.7778 88.7837 24.9768 88.4057 24.6978 87.9647C24.4188 87.5237 24.5808 87.0647 24.2748 86.6687C23.5098 85.7687 23.0418 85.0037 21.9708 84.6977C21.1428 84.4727 19.7658 84.4097 19.1088 83.7977L17.3808 82.0967C17.0028 81.7277 16.4808 82.0967 16.0218 82.2587C15.0048 82.5737 13.9608 81.8267 12.9888 81.4397L10.6308 80.4857C10.3121 80.4099 10.008 80.2822 9.73079 80.1077L8.2008 78.5507C7.7238 78.0737 8.0118 77.7857 8.2008 77.1197C8.3268 76.6877 7.5168 75.8237 7.3008 75.4817C7.07495 75.1206 6.80261 74.7908 6.4908 74.5007L4.8348 72.9707C4.7088 72.8537 4.8348 72.5027 4.8978 72.3407C4.9608 72.1787 4.6278 71.9087 4.5378 71.7917L4.1958 71.3507C4.2318 72.3887 4.2828 73.4237 4.3488 74.4557C4.5648 74.6447 4.8258 74.9327 4.7898 75.1937C4.7538 75.4547 4.5828 75.5897 4.4208 75.5627C6.24252 98.892 16.8586 120.658 34.1208 136.457C34.2288 135.314 34.3638 134.171 34.5708 133.055L36.0918 124.739Z" fill="#68E1FD"/>
<path d="M187.841 77.6147C187.895 77.8667 187.895 78.3887 187.454 78.1547C187.337 78.0917 187.202 77.4977 187.139 77.3537C187.283 77.3537 187.409 77.2007 187.562 77.1737C187.323 76.952 187.02 76.8124 186.696 76.7751C186.372 76.7379 186.045 76.805 185.762 76.9667C185.339 77.3087 184.313 77.8127 184.133 78.3707C184.079 78.5417 183.746 79.2707 183.836 79.4237L184.601 80.6387C184.961 81.2237 185.411 81.7367 185.825 82.2767C186.239 82.8167 186.644 83.1767 186.68 84.0767C186.68 84.6077 186.995 85.8767 186.608 86.2097C185.525 87.2288 184.39 88.1902 183.206 89.0897C182.81 88.6847 183.359 88.0727 183.08 87.7757L182 86.5067C181.751 86.1628 181.429 85.878 181.057 85.6726C180.685 85.4673 180.273 85.3465 179.849 85.3187L179.939 84.6437C179.039 84.6437 179.201 84.8057 179.12 85.7867C179.019 86.373 178.837 86.9424 178.58 87.4787C178.528 87.725 178.528 87.9795 178.58 88.2257C178.58 88.7027 178.58 88.6217 179.057 88.6037C179.282 88.6037 179.561 90.0437 179.642 90.3047C179.777 90.7457 180.632 91.1507 180.965 91.4027C181.364 91.7044 181.698 92.0841 181.946 92.5187C182.144 93.0317 181.946 93.7697 182.054 94.3187C182.226 94.8479 182.434 95.365 182.675 95.8667C181.968 95.6669 181.325 95.2852 180.812 94.7597C180.227 94.3007 180.191 94.0397 179.912 93.2747C179.788 92.5378 179.551 91.8245 179.21 91.1597L177.572 89.4137C177.329 89.1437 177.671 87.7127 177.716 87.3077C177.724 86.534 177.673 85.7607 177.563 84.9947C177.413 83.5951 177.089 82.2195 176.6 80.8997L175.7 81.9707C175.331 82.4207 175.367 82.4117 174.8 82.2857C174.233 82.1597 174.26 82.2047 174.35 81.5657C174.35 81.2867 174.62 80.5667 174.503 80.3147C174.263 79.4462 173.801 78.6552 173.162 78.0197C172.595 77.3957 172.185 76.6461 171.965 75.8327C171.641 76.0577 171.182 76.5617 170.795 76.6067L168.761 76.8857C168.671 76.8857 168.248 76.8857 168.176 76.9667C168.104 77.0477 168.266 77.5607 168.176 77.6867L167.177 78.7127L164.342 81.6287C163.925 81.9196 163.467 82.1471 162.983 82.3037C162.479 82.5467 162.668 82.9247 162.677 83.5277C162.754 84.1253 162.754 84.7302 162.677 85.3277C162.551 85.7867 162.182 86.5157 162.308 86.9837C162.4 87.5875 162.662 88.1526 163.064 88.6127C163.432 89.0978 163.721 89.6386 163.919 90.2147C164.387 91.2947 162.551 92.2397 162.416 90.7817C162.352 90.1569 162.334 89.5282 162.362 88.9007C162.362 88.2707 162.164 88.1807 161.741 87.7307C161.687 88.1717 161.741 88.6307 161.408 88.8647L160.256 89.6207C159.194 87.6047 158.285 85.5257 157.358 83.4197C157.043 82.8457 156.784 82.243 156.584 81.6197C156.528 81.1509 156.513 80.6781 156.539 80.2067C156.497 78.8627 156.455 77.5217 156.413 76.1837L155.567 77.3537C155.288 77.7497 155.252 77.6957 154.775 77.6777C154.298 77.6597 153.641 76.6517 153.272 76.2557C153.65 76.1747 154.442 76.2557 154.505 75.6977C154.284 75.7489 154.057 75.7701 153.83 75.7607C153.243 75.5291 152.687 75.2268 152.174 74.8607C151.832 74.6627 151.616 73.7807 151.436 73.4117C151.256 73.0427 148.403 73.6367 147.926 73.6997C146.854 73.6988 145.789 73.5194 144.776 73.1687C144.326 73.0697 143.804 73.1147 143.57 72.6557C143.156 71.8277 143.255 71.5937 142.436 71.8907C141.849 72.0701 141.222 72.0701 140.636 71.8907C140.186 71.8187 139.898 71.2697 139.493 71.0717C139.211 70.9806 138.955 70.8212 138.75 70.6076C138.544 70.3941 138.394 70.1331 138.314 69.8477C138.071 69.3257 137.972 68.6507 137.414 68.5697C136.469 68.4347 136.514 68.4707 135.812 69.2447C135.587 69.5147 136.379 70.4687 136.55 70.7477C137.144 71.7377 137.648 72.7907 138.188 73.8077C138.269 73.3397 138.341 72.9077 138.413 72.4217C138.709 73.1134 138.824 73.8693 138.746 74.6177C139.571 74.6874 140.402 74.5832 141.185 74.3117C141.824 73.7462 142.39 73.1021 142.868 72.3947C142.913 72.9797 142.769 73.9337 143.255 74.2577C143.536 74.485 143.838 74.6868 144.155 74.8607C144.425 74.9777 144.749 74.8607 144.911 75.1757C145.073 75.4907 145.217 75.9857 145.451 76.0217C145.865 76.0937 145.694 76.3817 145.667 76.8137C145.64 77.2457 144.767 77.9747 144.488 78.2897C144.488 78.1547 144.362 78.0287 144.344 77.8937C144.11 78.3118 143.986 78.7826 143.984 79.2617C143.984 79.7657 143.795 79.7117 143.372 79.9187L142.067 80.5397C141.806 80.6567 141.815 81.3857 141.572 81.5117C141.329 81.6377 141.05 81.3407 140.834 81.4307L139.88 81.8447C139.448 82.0427 139.502 82.6277 139.106 82.7447L136.946 83.5187C136.73 83.5907 136.694 83.7077 136.559 83.9147C136.424 84.1217 136.163 84.1577 135.866 84.2117C135.245 84.3287 134.624 84.5357 134.012 84.6977C133.553 84.8147 133.463 85.3367 132.968 85.3367C132.194 85.3367 132.131 85.5077 131.978 84.7067L131.528 82.2767C131.237 81.1292 130.73 80.0478 130.034 79.0907C129.647 78.4427 129.593 78.3257 128.927 78.0737C128.54 77.9297 128.549 76.7597 128.477 76.3547C128.302 75.7479 128.041 75.1691 127.703 74.6357C127.541 74.3117 127.163 74.1497 126.956 73.7897L125.669 71.4767C125.453 71.0987 125.291 70.4327 124.769 70.5767C124.832 70.1087 124.895 69.6317 124.958 69.1547L124.4 70.8557C123.818 70.2264 123.344 69.5058 122.996 68.7227C122.537 69.2987 123.347 70.2617 123.608 70.7927L125.183 74.0147C125.498 74.6537 125.381 75.3737 125.849 75.8777C126.047 76.0937 126.551 76.4447 126.596 76.7777C126.677 77.3267 126.767 77.8667 126.848 78.4067C126.893 78.7217 126.848 79.3067 127.1 79.5587C127.453 79.8227 127.776 80.1245 128.063 80.4587C128.444 81.2738 128.745 82.1237 128.963 82.9967C129.062 83.2667 129.863 83.2217 130.007 83.4467L130.907 84.4727C131.393 85.0397 132.383 85.6607 131.618 86.3987C132.131 86.5517 132.689 87.6137 133.103 87.5147L137.324 86.3807C137.585 86.3177 138.332 85.9937 138.548 86.3807C138.683 86.6147 138.188 87.9647 138.125 88.2527C137.731 89.3766 137.192 90.4445 136.523 91.4297C136.139 92.3006 135.643 93.1175 135.047 93.8597C133.346 95.6597 131.357 97.2977 130.088 99.4847C129.8 99.9617 127.982 102.446 128.288 102.887C128.502 103.14 128.655 103.438 128.734 103.76C128.814 104.082 128.818 104.417 128.747 104.741C128.688 105.025 128.703 105.32 128.789 105.597C128.876 105.874 129.032 106.124 129.242 106.325C130.007 107.36 129.746 108.962 129.809 110.267C129.791 110.771 129.643 111.262 129.38 111.692C129.116 112.123 128.746 112.478 128.306 112.724C127.874 112.931 127.001 113.138 126.677 113.516L125.408 115.001C125.03 115.433 124.58 115.64 124.814 116.207C124.976 116.585 125.552 117.458 125.507 117.863C125.536 118.539 125.461 119.216 125.282 119.87C125.066 120.221 123.995 120.482 123.635 120.653C123.041 120.941 123.167 121.211 123.095 121.949C123.134 122.555 123.073 123.163 122.915 123.749C122.254 124.819 121.526 125.847 120.737 126.827C120.276 127.269 119.793 127.687 119.288 128.078C119.018 128.312 118.496 128.978 118.145 129.05L114.374 129.842L112.637 130.211C112.358 130.265 111.791 129.536 111.593 129.311C110.909 128.699 110.936 128.708 111.035 127.718C111.035 127.34 110.648 126.665 110.513 126.332L109.613 124.136C109.442 123.704 108.902 123.362 108.578 123.047C108.254 122.732 108.362 121.823 108.317 121.517L107.93 119.006C107.685 117.945 107.271 116.93 106.706 116L105.743 114.038C105.599 113.75 105.797 113.21 105.842 112.913C105.89 111.528 106.195 110.163 106.742 108.89C107.417 107.702 107.003 106.748 106.742 105.515L105.842 101.51C105.743 101.105 105.212 100.61 104.942 100.313L103.583 98.5127C103.34 98.1887 103.511 97.7657 103.583 97.3517C103.673 96.5237 103.772 95.6867 103.871 94.8587C103.97 94.0307 103.988 94.1027 103.583 93.5357C103.178 92.9687 103.133 92.8247 102.395 92.8697C101.972 92.8697 101.108 93.1667 100.802 92.7887L99.4968 91.1867C99.3078 90.9527 96.6528 91.3757 96.3198 91.5467L94.4388 92.5097C93.9438 92.7617 93.7278 92.6357 93.1878 92.5097C92.7303 92.303 92.216 92.2585 91.7298 92.3837L89.6688 93.1127C89.3448 93.2297 88.9758 92.7887 88.7058 92.5907L86.7258 91.1687C85.9776 90.7379 85.3566 90.1169 84.9258 89.3687L82.4058 84.9857L81.5958 83.5817C81.4698 83.3657 81.9198 82.5467 82.0008 82.3217C82.1448 81.9347 82.5768 81.2237 82.4868 80.7917C82.3338 80.0897 82.1718 79.3967 82.0188 78.6947C81.8068 78.1152 81.6737 77.5097 81.6228 76.8947C81.7544 76.5461 81.9363 76.2186 82.1628 75.9227L84.5928 71.5307C85.1297 70.6809 85.902 70.0055 86.8158 69.5867C87.3198 69.2627 87.5448 69.2627 87.6438 68.6417L87.9948 66.3197C88.1298 65.4197 89.9478 65.2397 90.3078 64.3487C90.5598 63.7277 90.6678 62.8637 91.2888 62.6927C91.4508 62.6477 91.9008 63.4937 92.4048 63.3857C92.6298 63.3407 93.1428 63.1157 93.3588 63.2237C93.5748 63.3317 93.9348 63.6287 94.0428 63.5657C94.5251 63.2404 95.0238 62.94 95.5368 62.6657C96.5264 62.1952 97.578 61.8679 98.6598 61.6937C98.9733 61.6089 99.2986 61.5755 99.6228 61.5947C99.8623 61.7199 100.121 61.8051 100.388 61.8467C100.649 61.8467 100.892 61.5407 101.144 61.4867C101.38 61.4633 101.618 61.4633 101.855 61.4867C102.442 61.6223 103.059 61.5524 103.601 61.2887C104.078 61.0007 104.501 61.3787 105.032 61.5947C104.663 62.4047 104.591 62.4407 105.032 63.2147C105.23 63.5657 104.474 64.1147 104.231 64.3757C104.627 64.7357 105.131 65.3927 105.626 65.5187L108.209 66.2027C108.875 66.3737 108.686 67.1027 109.343 67.3997C110 67.6967 110.459 67.5527 110.99 67.9307C111.746 68.4617 112.133 68.5877 112.619 67.6427C112.727 67.4177 112.367 67.0757 112.484 66.8687C112.601 66.6617 112.781 66.1667 112.952 66.1127C113.613 65.8357 114.347 65.7851 115.04 65.9687C115.229 66.0227 115.04 66.4007 115.301 66.4547L116.471 66.6977C116.786 66.7607 116.795 66.9137 116.957 67.2287C117.038 67.3907 117.344 67.0307 117.479 67.0757L119.342 67.6247C119.569 67.7349 119.822 67.7821 120.073 67.7615C120.325 67.7409 120.566 67.6533 120.773 67.5077C121.493 67.1567 121.556 67.0487 122.267 67.3907C122.483 67.5184 122.724 67.5993 122.973 67.6283C123.223 67.6573 123.476 67.6338 123.716 67.5592C123.956 67.4846 124.177 67.3606 124.366 67.1952C124.556 67.0298 124.708 66.8266 124.814 66.5987C125.03 65.9867 126.029 64.2047 125.831 63.3857L124.346 63.1607C124.277 63.2215 124.233 63.3053 124.221 63.3964C124.209 63.4874 124.231 63.5796 124.283 63.6557C124.112 63.7097 122.375 64.1957 122.798 63.3497C122.924 63.0977 123.572 63.2327 123.698 63.2507C123.846 63.25 123.991 63.2129 124.121 63.1427C121.121 62.7107 118.121 62.3207 115.121 61.9727V62.0267C114.94 62.0086 114.762 61.9693 114.59 61.9097C112.568 61.6757 110.546 61.4597 108.524 61.2617C108.535 61.3139 108.55 61.365 108.569 61.4147C108.776 61.8287 107.93 61.9637 107.84 61.6307C107.75 61.2977 107.381 61.2437 107.012 61.1177C103.166 60.7637 99.3138 60.4637 95.4558 60.2177C95.2848 60.4247 95.1408 60.6497 95.2308 60.8387C95.0418 60.8837 94.6008 60.9017 94.4928 61.0817C94.3848 61.2617 94.1868 61.7297 94.0158 61.7387C93.4675 61.7768 92.9172 61.7768 92.3688 61.7387C91.8828 61.7387 91.5948 62.3147 91.2078 62.4407C90.8208 62.5667 90.2358 61.7837 90.6678 61.4777C90.2448 61.6757 90.0468 60.9647 89.5068 61.2707C88.9668 61.5767 88.7688 61.1447 88.3818 61.4417C88.4667 61.134 88.5091 60.816 88.5078 60.4967C88.5078 60.3167 88.5078 60.1457 88.5078 59.9657C88.5078 59.7857 88.5078 59.9027 88.5078 59.8937C88.4448 59.8937 88.3548 59.9747 88.3098 59.8937L85.6098 59.7947C67.7993 59.1699 49.968 60.0732 32.3118 62.4947L32.0598 62.5667C32.3748 62.5667 32.9148 62.4677 32.8338 62.9267C32.8338 63.1157 32.1588 63.1247 31.9788 63.1607C32.0688 63.2147 32.1498 63.3047 32.2488 63.3587C32.1048 63.4037 32.0328 63.5027 31.8528 63.5027C32.0058 63.8807 32.2308 63.5027 32.4828 63.6917L31.9518 63.9797C31.8168 64.0517 31.6188 63.8267 31.5108 63.8897C31.4028 63.9527 31.0788 64.5107 30.9348 64.7357C30.7908 64.9607 30.4488 64.8257 30.2418 65.0777C30.0886 65.3332 29.8904 65.5589 29.6568 65.7437C28.9767 66.0817 28.4563 66.6731 28.2078 67.3907C28.0407 67.939 28.0857 68.53 28.3338 69.0467C28.6757 69.7821 28.9586 70.5435 29.1798 71.3237C29.3058 71.7467 29.4138 72.8447 29.1078 73.1237C28.8018 73.4027 28.6758 73.6637 28.4058 73.2857C28.3158 73.1687 27.8208 72.7187 27.8118 72.6827C27.7161 72.3722 27.5926 72.071 27.4428 71.7827C27.2988 71.4497 27.1278 71.2607 27.2268 70.8827L27.0468 71.0357C26.9028 70.5317 27.3618 69.8117 26.8578 69.4697C26.3538 69.1277 26.1738 68.5697 25.6518 68.7317C25.3728 68.8217 25.0758 69.0287 24.8148 68.8577C24.5718 68.6495 24.3025 68.474 24.0138 68.3357C23.5548 68.2097 22.7898 68.8217 22.6548 68.0387C22.5648 68.7137 21.0708 68.2277 20.6208 68.5787C20.9268 68.5787 22.0788 68.7497 21.2238 69.1637C21.3138 69.2087 21.7818 69.3707 21.7998 69.4607C21.8112 69.5039 21.8109 69.5494 21.799 69.5925C21.787 69.6355 21.7638 69.6746 21.7317 69.7058C21.6997 69.7369 21.6599 69.759 21.6165 69.7697C21.5731 69.7804 21.5277 69.7794 21.4848 69.7667C21.6108 69.4517 21.1428 69.3347 20.9178 69.1997C20.9628 69.4247 20.8728 69.4967 20.8638 69.6587C20.6568 69.2267 20.4678 69.6587 20.1888 69.4607C19.9098 69.2627 19.6758 68.9387 19.2888 69.0827C19.0548 69.1637 18.7218 68.9477 18.4968 68.8577C18.0738 68.6957 17.3988 69.1817 16.9938 69.3527C16.3278 69.6227 14.7258 70.8107 14.7168 71.7737C14.7168 72.0707 15.1038 72.3677 15.1218 72.6737C15.0857 72.922 15.0161 73.1642 14.9148 73.3937C14.7153 73.9139 14.5882 74.459 14.5368 75.0137C14.4654 76.2647 14.8 77.5053 15.4908 78.5507C15.9408 79.2257 16.1118 79.7027 16.8498 79.9187C17.0028 79.9727 17.2458 80.3507 17.3718 80.2967L18.2718 79.9547C18.5333 79.8494 18.8096 79.7856 19.0908 79.7657C19.3068 79.7657 19.4778 80.0357 19.5948 79.9817C19.7308 79.938 19.8608 79.8776 19.9818 79.8017C20.0538 79.7387 19.8738 79.5587 19.9818 79.4597C20.2221 79.301 20.3977 79.0616 20.4768 78.7847C20.6478 78.1997 20.6028 77.5157 21.2148 77.2637C21.6548 77.1061 22.1159 77.015 22.5828 76.9937C22.9338 76.9937 23.9328 76.8317 23.6178 77.5877C23.4918 77.8847 23.0868 78.7757 22.8708 78.7937C22.9788 78.8567 22.9158 78.9647 23.1678 78.9557C23.0688 79.0367 22.9968 79.1447 22.9068 79.2167L22.9518 79.2797L23.0958 79.1807C22.9617 79.5332 22.8622 79.8979 22.7988 80.2697C22.7198 80.1873 22.6622 80.0868 22.6308 79.977C22.5994 79.8672 22.5953 79.7515 22.6188 79.6397C22.5224 79.7681 22.4409 79.907 22.3758 80.0537C22.8438 80.0537 22.3038 80.9537 22.4658 81.3047C22.6278 81.6557 22.1058 82.2047 21.8988 82.3577C22.5705 82.4736 23.2513 82.5278 23.9328 82.5197C24.2118 82.5197 24.4188 82.3037 24.7068 82.3577C25.0536 82.3611 25.3985 82.4095 25.7328 82.5017C26.0306 82.5879 26.2866 82.7801 26.4524 83.0421C26.6182 83.3041 26.6824 83.6177 26.6328 83.9237C26.5608 84.3827 26.4888 84.8237 26.4168 85.3097C26.4168 85.5797 26.1558 85.8137 26.1198 86.0657C25.9668 87.3167 27.4788 89.3597 28.6128 88.8917C29.3148 88.6037 29.6748 88.3157 30.4128 88.5407C31.0325 88.7662 31.565 89.1821 31.9338 89.7287C31.9338 88.8287 32.9958 87.6407 33.4188 86.9207C33.5448 86.6957 34.3728 86.5697 34.5888 86.4887L36.3888 85.8407C36.9378 85.6427 37.9278 86.1197 38.4678 86.2457L42.7158 87.2357C43.4835 87.2833 44.2225 87.5452 44.8488 87.9917L48.1608 91.1687C48.8628 91.8347 50.3838 91.8527 51.2658 92.0687C52.1478 92.2847 52.7508 93.6527 53.2728 94.3457L54.8658 96.4337C54.9918 96.6047 55.2798 97.1627 55.4778 97.2257L58.8888 98.4587L62.2998 99.6917C63.2704 100.221 64.1764 100.862 64.9998 101.6C65.1528 101.6 66.2058 101.6 66.2418 101.744C66.3588 102.257 66.4758 102.761 66.5928 103.265C66.8448 104.363 66.8718 104.345 66.2688 105.218L64.0458 108.422C63.6374 108.845 63.3567 109.376 63.2358 109.952C63.1188 111.527 63.0108 113.102 62.8938 114.677C62.8218 115.721 61.7328 116.792 61.2018 117.62C60.9678 117.971 60.7698 118.574 60.3018 118.601C59.8338 118.628 58.9518 118.484 58.6098 118.718L55.4958 120.86C55.2888 121.004 55.2978 122.561 55.2618 122.831C55.2258 123.101 55.2618 123.731 55.0728 123.992L52.4898 127.313L50.1678 130.4C49.9878 130.625 47.4678 129.554 47.1168 129.437C46.8918 130.292 48.3138 130.337 48.4578 131.12C48.62 131.575 48.7169 132.05 48.7458 132.533C48.6828 132.857 48.2058 133.325 48.0348 133.586C47.5128 134.351 46.8108 134.333 45.9738 134.558C45.3123 134.748 44.6103 134.748 43.9488 134.558C44.1108 135.08 44.2368 135.296 44.0478 135.791C43.9308 136.097 44.0478 136.601 43.8948 136.691C43.0758 137.267 42.5898 137.015 41.7348 136.592C41.6844 137.064 41.6844 137.541 41.7348 138.014C41.8068 138.32 42.3018 138.833 42.1758 139.121L41.3928 140.813C41.1408 141.371 41.0418 141.317 40.4928 141.452C40.4222 141.475 40.3555 141.508 40.2948 141.551C51.6457 150.278 64.8668 156.253 78.918 159.005C92.9693 161.757 107.467 161.211 121.272 157.41C135.077 153.61 147.811 146.658 158.473 137.101C169.136 127.545 177.436 115.645 182.72 102.338C182.018 101.672 181.37 100.988 180.731 100.295C180.37 99.945 180.067 99.5411 179.831 99.0977C179.617 98.4216 179.315 97.7769 178.931 97.1807C178.769 97.0097 178.517 97.0997 178.454 96.8387L178.148 95.7047C177.977 95.0657 177.167 95.2007 177.14 94.5077C177.113 93.8147 176.393 93.7427 176.051 93.4457C175.898 93.3107 175.034 92.2217 175.205 91.9607C175.376 91.6997 176.411 92.2127 176.636 92.2397C177.365 92.3207 177.248 92.5997 177.635 93.1397C178.008 93.536 178.411 93.9031 178.841 94.2377C179.264 94.6427 179.741 94.7957 180.119 95.2637C180.308 95.5157 180.506 95.4887 180.803 95.5427C181.289 95.6327 180.956 95.7047 181.235 95.9207C181.514 96.1367 181.676 95.9207 181.676 96.3707C181.676 96.6047 182.18 96.5687 182.252 96.9467C182.324 97.3247 182 97.3067 182.054 97.6487C182.108 97.9907 182.531 97.9367 182.711 98.0087C182.891 98.0807 182.882 98.6657 182.918 98.8367C182.981 99.1607 183.359 99.1427 182.963 99.5387C183.057 99.4115 183.195 99.3248 183.351 99.2964C183.507 99.2679 183.667 99.2999 183.8 99.3857L183.908 99.0887C183.908 99.0257 183.836 98.9807 183.791 98.9807C183.722 98.9981 183.649 98.9982 183.58 98.9809C183.511 98.9637 183.448 98.9296 183.395 98.8817C183.575 98.6567 183.674 98.2787 183.917 98.6567C183.917 98.5757 183.917 98.5037 183.917 98.4227C183.959 98.4166 184.003 98.4207 184.044 98.4348C184.084 98.4489 184.121 98.4725 184.151 98.5037C186.579 91.4798 188.147 84.1877 188.822 76.7867L188.039 77.0747C187.688 77.2187 187.76 77.2187 187.841 77.6147ZM115.688 62.8367C115.853 62.978 116.048 63.0804 116.259 63.1364C116.469 63.1925 116.689 63.2008 116.903 63.1607C117.182 63.1607 117.803 63.2327 117.803 63.5477C117.027 63.595 116.249 63.5005 115.508 63.2687C115.539 63.1116 115.6 62.9619 115.688 62.8277V62.8367ZM31.6548 80.6207C31.3116 80.5121 30.9912 80.3413 30.7098 80.1167C31.0608 79.5947 31.8078 80.0177 32.2398 80.1617C32.3137 80.2584 32.3799 80.3607 32.4378 80.4677C32.0778 80.3507 31.8438 80.6747 31.6548 80.6207ZM33.1038 78.5867C32.4558 78.5327 31.8168 78.6857 31.1778 78.5867C31.2588 78.4967 31.6908 78.1727 31.6908 78.0647C31.6908 77.7137 31.1868 77.8487 31.0518 77.7857C30.5388 77.5427 30.5208 76.9937 30.0528 76.9307C29.5848 76.8677 29.1528 76.5257 28.6398 76.5077C28.3518 76.5077 28.3248 76.2917 28.0638 76.3727C27.9497 76.4009 27.8297 76.3946 27.7192 76.3545C27.6086 76.3145 27.5124 76.2425 27.4428 76.1477C27.5186 76.1636 27.5968 76.1638 27.6726 76.1484C27.7485 76.1329 27.8203 76.102 27.8838 76.0577C27.0288 75.1577 26.0838 77.1287 25.1838 76.6787C25.6158 76.4087 25.7598 75.8867 26.2998 75.7787C26.9059 75.5795 27.5436 75.4941 28.1808 75.5267C29.347 75.7204 30.4493 76.1928 31.3938 76.9037L31.4568 76.7777C31.6175 76.9873 31.8247 77.1566 32.0622 77.2722C32.2996 77.3878 32.5607 77.4465 32.8248 77.4437C32.9328 77.4437 33.0678 77.8037 33.3018 77.8397C33.6061 77.9256 33.8823 78.0901 34.1028 78.3167C33.7788 78.3887 33.4458 78.4967 33.1038 78.5867ZM38.3778 79.9727C37.8738 79.9727 37.5588 80.1167 37.1178 80.1347C37.0278 80.1347 36.9648 79.8917 36.7128 80.0627C36.4608 80.2337 36.5688 80.7107 36.4158 80.7647C36.0648 80.8907 36.1188 80.2967 35.9928 80.2247C35.8668 80.1527 35.5158 80.2247 35.3178 80.2247C34.6698 80.1257 34.4178 80.4047 33.9318 80.0267C33.7518 79.4777 35.2908 80.0987 35.6598 79.8287C35.2818 79.2617 35.3448 79.0637 34.7598 78.7757C35.3448 78.5057 35.5158 78.6947 36.1278 78.7037C36.3168 78.6823 36.5017 78.6338 36.6768 78.5597C36.8748 78.4517 37.2078 78.6677 37.4148 78.7307C37.6218 78.7937 37.7028 78.6137 37.8648 78.9197C38.0268 79.2257 38.0988 79.3337 38.5128 79.4147C38.6838 79.4147 39.0708 79.6847 38.9628 79.8647C38.6838 80.3057 38.7558 79.9997 38.3778 79.9997V79.9727ZM40.0068 80.2967C39.7278 79.6037 40.7268 79.9187 41.0958 79.9457L41.2308 80.0897C41.0418 80.3867 40.2048 80.7827 40.0068 80.2967ZM137.621 111.797L137.189 111.374C137.299 112.331 137.188 113.301 136.865 114.209C136.367 115.871 135.869 117.536 135.371 119.204C135.236 119.663 135.092 120.104 134.957 120.572C134.957 120.635 133.868 120.95 133.724 121.022C133.58 121.094 132.5 120.743 132.464 120.518C132.392 119.911 132.28 119.31 132.131 118.718C131.89 118.148 131.851 117.512 132.023 116.918C132.203 116.378 132.833 115.82 132.923 115.253C132.871 114.616 132.731 113.989 132.509 113.39C132.446 113.102 132.707 112.004 132.95 111.968C133.534 111.853 134.096 111.647 134.615 111.356C135.155 111.086 135.344 110.636 135.749 110.168C136.154 109.7 136.487 109.583 136.523 108.755C136.568 107.72 137.261 108.755 137.477 109.097C137.684 110.114 137.999 110.861 137.621 111.761V111.797ZM188.3 78.8837C188.003 78.8837 187.931 79.2707 187.886 79.5587C187.841 79.8467 187.454 79.8737 187.256 79.9727C187.058 80.0717 187.328 80.1977 187.103 80.1797C186.94 80.182 186.78 80.1349 186.644 80.0447C186.212 79.8017 186.302 79.6937 186.311 79.1447C186.842 78.8027 187.211 78.1007 187.976 78.5327V78.3347C188.3 78.3797 188.363 78.6047 188.3 78.8837Z" fill="#68E1FD"/>
<path d="M40.0071 80.297C40.2051 80.783 41.0421 80.396 41.2311 80.09L41.0961 79.946C40.7001 79.919 39.7281 79.604 40.0071 80.297Z" fill="#075B5D"/>
<path d="M38.4857 79.4239C38.0717 79.3339 38.0447 79.3339 37.8377 78.9289C37.6307 78.5239 37.6577 78.8299 37.3877 78.7399C37.1177 78.6499 36.8477 78.4609 36.6497 78.5689C36.4746 78.643 36.2897 78.6915 36.1007 78.7129C35.4887 78.7129 35.3177 78.5149 34.7327 78.7849C35.3447 79.0729 35.2727 79.2709 35.6327 79.8379C35.2637 80.1079 33.7247 79.4869 33.9047 80.0359C34.4267 80.4049 34.6427 80.1349 35.2907 80.2339C35.4797 80.2339 35.7947 80.1529 35.9657 80.2339C36.1367 80.3149 36.0377 80.8999 36.3887 80.7739C36.5417 80.7199 36.5417 80.1709 36.6857 80.0719C36.8297 79.9729 37.0007 80.1439 37.0907 80.1439C37.5407 80.1439 37.8467 79.9819 38.3507 79.9819C38.8547 79.9819 38.6477 80.3149 38.9087 79.8739C39.0437 79.6849 38.6567 79.4599 38.4857 79.4239Z" fill="#075B5D"/>
<path d="M137.468 109.106C137.252 108.809 136.568 107.729 136.514 108.764C136.514 109.592 136.253 109.592 135.74 110.177C135.227 110.762 135.146 111.077 134.606 111.365C134.087 111.656 133.525 111.862 132.941 111.977C132.698 111.977 132.437 113.111 132.5 113.399C132.722 113.998 132.862 114.625 132.914 115.262C132.851 115.829 132.221 116.387 132.014 116.927C131.842 117.521 131.881 118.157 132.122 118.727C132.271 119.319 132.383 119.92 132.455 120.527C132.455 120.752 133.508 121.13 133.715 121.031C133.922 120.932 134.93 120.644 134.948 120.581C135.083 120.122 135.218 119.681 135.362 119.213C135.86 117.551 136.358 115.886 136.856 114.218C137.179 113.31 137.29 112.34 137.18 111.383L137.612 111.806C137.981 110.906 137.675 110.159 137.486 109.196L137.468 109.106Z" fill="#075B5D"/>
<path d="M187.967 78.5327C187.211 78.1097 186.833 78.8027 186.302 79.1447C186.302 79.6847 186.212 79.7927 186.635 80.0447C186.771 80.1349 186.931 80.182 187.094 80.1797C187.328 80.1797 187.094 80.0357 187.247 79.9727C187.4 79.9097 187.841 79.8737 187.877 79.5587C187.913 79.2437 187.985 78.8657 188.291 78.8837C188.354 78.5957 188.291 78.3797 188.003 78.3347L187.967 78.5327Z" fill="#075B5D"/>
<path d="M168.5 72.602C155.342 69.677 142.337 66.014 129.017 63.881C127.955 63.71 126.902 63.557 125.84 63.395C126.029 64.214 125.039 65.987 124.823 66.608C124.717 66.8359 124.565 67.039 124.376 67.2045C124.187 67.3699 123.965 67.4939 123.725 67.5685C123.485 67.6431 123.232 67.6666 122.983 67.6376C122.733 67.6086 122.493 67.5277 122.276 67.4C121.565 67.058 121.502 67.166 120.782 67.517C120.576 67.6626 120.334 67.7502 120.083 67.7708C119.831 67.7914 119.578 67.7441 119.351 67.634L117.488 67.085C117.353 67.085 117.047 67.4 116.966 67.238C116.804 66.923 116.795 66.77 116.48 66.707L115.31 66.464C115.067 66.419 115.238 66.032 115.049 65.978C114.356 65.7944 113.622 65.845 112.961 66.122C112.79 66.167 112.592 66.707 112.493 66.878C112.394 67.049 112.745 67.427 112.628 67.652C112.142 68.606 111.728 68.471 110.999 67.94C110.468 67.562 109.919 67.661 109.352 67.409C108.785 67.157 108.884 66.392 108.218 66.212L105.635 65.528C105.131 65.393 104.645 64.736 104.24 64.385C104.492 64.115 105.239 63.575 105.041 63.224C104.627 62.45 104.699 62.414 105.041 61.604C104.546 61.397 104.096 61.01 103.61 61.298C103.068 61.5617 102.452 61.6316 101.864 61.496C101.628 61.4726 101.39 61.4726 101.153 61.496C100.901 61.541 100.658 61.838 100.397 61.856C100.13 61.8143 99.8717 61.7292 99.6321 61.604C99.3079 61.5848 98.9827 61.6182 98.6691 61.703C97.5873 61.8772 96.5357 62.2045 95.5461 62.675C95.0331 62.9493 94.5344 63.2497 94.0521 63.575C93.9441 63.638 93.4851 63.296 93.3681 63.233C93.2511 63.17 92.6391 63.35 92.4141 63.395C91.9101 63.503 91.4601 62.657 91.2981 62.702C90.6771 62.882 90.5691 63.746 90.3171 64.358C89.9661 65.258 88.1481 65.42 88.0041 66.329L87.6531 68.651C87.5631 69.272 87.3291 69.281 86.8251 69.596C85.9113 70.0148 85.139 70.6902 84.6021 71.54L82.1721 75.932C81.9456 76.2279 81.7637 76.5554 81.6321 76.904C81.683 77.519 81.8162 78.1244 82.0281 78.704C82.1901 79.406 82.3431 80.099 82.4961 80.801C82.5861 81.233 82.1541 81.944 82.0101 82.331C81.9291 82.556 81.4791 83.375 81.6051 83.591L82.4151 84.995L84.9351 89.378C85.3659 90.1262 85.9869 90.7472 86.7351 91.178L88.7151 92.6C88.9761 92.789 89.3451 93.239 89.6781 93.122L91.7391 92.393C92.2253 92.2678 92.7396 92.3123 93.1971 92.519C93.7371 92.663 93.9531 92.789 94.4481 92.519L96.3291 91.556C96.6621 91.385 99.3171 90.971 99.5061 91.196L100.811 92.798C101.117 93.176 101.972 92.897 102.404 92.879C103.142 92.834 103.115 92.879 103.592 93.545C104.069 94.211 103.97 94.157 103.88 94.868C103.79 95.579 103.682 96.533 103.592 97.361C103.538 97.775 103.367 98.198 103.592 98.522L104.951 100.322C105.185 100.637 105.725 101.114 105.851 101.519L106.751 105.524C107.039 106.757 107.453 107.702 106.751 108.899C106.205 110.173 105.9 111.537 105.851 112.922C105.851 113.219 105.608 113.759 105.752 114.047L106.715 116.009C107.281 116.939 107.694 117.954 107.939 119.015L108.326 121.526C108.371 121.832 108.326 122.84 108.587 123.056C108.848 123.272 109.487 123.713 109.622 124.145L110.522 126.341C110.657 126.674 111.08 127.349 111.044 127.727C110.945 128.708 110.918 128.699 111.602 129.32C111.8 129.509 112.367 130.22 112.646 130.22L114.383 129.851L118.154 129.059C118.505 128.987 119.054 128.321 119.297 128.087C119.802 127.696 120.286 127.279 120.746 126.836C121.535 125.856 122.263 124.828 122.924 123.758C123.082 123.172 123.143 122.564 123.104 121.958C123.176 121.22 123.041 120.95 123.644 120.662C124.004 120.491 125.066 120.23 125.291 119.879C125.47 119.226 125.546 118.549 125.516 117.872C125.516 117.458 124.985 116.585 124.823 116.216C124.589 115.649 125.039 115.451 125.417 115.01L126.686 113.525C127.01 113.147 127.883 112.94 128.315 112.733C128.756 112.487 129.126 112.132 129.389 111.702C129.652 111.271 129.8 110.78 129.818 110.276C129.755 108.98 130.016 107.369 129.251 106.334C129.041 106.134 128.885 105.883 128.799 105.606C128.712 105.329 128.697 105.034 128.756 104.75C128.828 104.427 128.823 104.091 128.744 103.769C128.664 103.448 128.511 103.149 128.297 102.896C128 102.455 129.818 99.971 130.097 99.494C131.375 97.307 133.355 95.651 135.056 93.869C135.652 93.1268 136.148 92.3099 136.532 91.439C137.201 90.4538 137.74 89.3859 138.134 88.262C138.197 87.974 138.692 86.624 138.557 86.39C138.341 86.012 137.585 86.327 137.333 86.39L133.112 87.524C132.698 87.632 132.14 86.57 131.627 86.408C132.392 85.67 131.402 85.049 130.916 84.482L130.016 83.456C129.827 83.231 129.062 83.276 128.972 83.006C128.755 82.133 128.453 81.2831 128.072 80.468C127.785 80.1338 127.462 79.832 127.109 79.568C126.866 79.334 126.902 78.731 126.857 78.416C126.767 77.867 126.686 77.327 126.605 76.787C126.551 76.472 126.056 76.121 125.858 75.887C125.39 75.383 125.507 74.663 125.192 74.024L123.617 70.802C123.356 70.28 122.555 69.308 123.005 68.732C123.353 69.5151 123.827 70.2357 124.409 70.865L124.967 69.164C124.904 69.641 124.832 70.118 124.778 70.586C125.282 70.451 125.444 71.117 125.678 71.486L126.965 73.799C127.163 74.159 127.55 74.321 127.712 74.645C128.05 75.1784 128.311 75.7572 128.486 76.364C128.558 76.769 128.558 77.939 128.936 78.083C129.602 78.335 129.665 78.452 130.043 79.1C130.74 80.0571 131.247 81.1385 131.537 82.286L131.987 84.716C132.14 85.517 132.203 85.346 132.977 85.346C133.472 85.346 133.571 84.824 134.021 84.707C134.633 84.545 135.245 84.338 135.875 84.221C136.172 84.167 136.397 84.221 136.568 83.924C136.739 83.627 136.739 83.6 136.955 83.528L139.115 82.754C139.52 82.61 139.457 82.025 139.889 81.854L140.843 81.44C141.059 81.35 141.383 81.611 141.581 81.521C141.779 81.431 141.824 80.675 142.076 80.549L143.381 79.928C143.804 79.721 143.993 79.775 143.993 79.271C143.995 78.7919 144.119 78.3211 144.353 77.903C144.353 78.038 144.47 78.164 144.497 78.299C144.767 77.975 145.658 77.246 145.676 76.823C145.694 76.4 145.874 76.103 145.46 76.031C145.226 76.031 145.037 75.401 144.92 75.185C144.803 74.969 144.443 74.996 144.164 74.87C143.847 74.6961 143.546 74.4943 143.264 74.267C142.787 73.943 142.931 72.989 142.877 72.404C142.399 73.1113 141.834 73.7555 141.194 74.321C140.411 74.5925 139.581 74.6967 138.755 74.627C138.833 73.8786 138.718 73.1227 138.422 72.431C138.35 72.899 138.278 73.331 138.197 73.817C137.657 72.791 137.153 71.747 136.559 70.757C136.388 70.478 135.605 69.524 135.821 69.254C136.478 68.48 136.469 68.444 137.423 68.579C137.972 68.66 138.071 69.335 138.323 69.857C138.404 70.1423 138.553 70.4034 138.759 70.6169C138.965 70.8305 139.22 70.9899 139.502 71.081C139.916 71.27 140.195 71.828 140.645 71.9C141.232 72.0794 141.859 72.0794 142.445 71.9C143.264 71.603 143.165 71.837 143.579 72.665C143.813 73.124 144.335 73.079 144.785 73.178C145.798 73.5287 146.863 73.7081 147.935 73.709C148.412 73.646 151.256 73.016 151.445 73.421C151.634 73.826 151.841 74.672 152.183 74.87C152.697 75.2361 153.253 75.5384 153.839 75.77C154.066 75.7794 154.293 75.7582 154.514 75.707C154.451 76.229 153.614 76.175 153.281 76.265C153.65 76.661 154.262 77.669 154.784 77.687C155.306 77.705 155.288 77.759 155.576 77.363L156.422 76.193C156.464 77.531 156.506 78.872 156.548 80.216C156.522 80.6874 156.537 81.1602 156.593 81.629C156.793 82.2523 157.052 82.855 157.367 83.429C158.267 85.526 159.167 87.605 160.265 89.63L161.417 88.874C161.777 88.64 161.696 88.181 161.75 87.74C162.173 88.19 162.398 88.28 162.371 88.91C162.343 89.5375 162.361 90.1662 162.425 90.791C162.56 92.249 164.387 91.304 163.928 90.224C163.73 89.6479 163.442 89.1071 163.073 88.622C162.671 88.1619 162.409 87.5968 162.317 86.993C162.191 86.525 162.56 85.796 162.686 85.337C162.763 84.7395 162.763 84.1346 162.686 83.537C162.686 82.934 162.488 82.565 162.992 82.313C163.476 82.1564 163.934 81.9289 164.351 81.638L167.186 78.722L168.185 77.696C168.311 77.57 168.113 77.111 168.185 76.976C168.257 76.841 168.68 76.904 168.77 76.895L170.804 76.616C171.191 76.562 171.65 76.067 171.974 75.842C172.195 76.6554 172.605 77.4049 173.171 78.029C173.81 78.6645 174.272 79.4555 174.512 80.324C174.62 80.576 174.395 81.296 174.359 81.575C174.269 82.214 174.224 82.16 174.809 82.295C175.394 82.43 175.331 82.43 175.709 81.98L176.609 80.909C177.112 82.23 177.447 83.6087 177.608 85.013C177.718 85.779 177.769 86.5522 177.761 87.326C177.761 87.731 177.374 89.126 177.617 89.432L179.255 91.178C179.596 91.8428 179.833 92.5561 179.957 93.293C180.209 94.058 180.245 94.319 180.857 94.778C181.371 95.3035 182.013 95.6852 182.72 95.885C182.479 95.3833 182.272 94.8662 182.099 94.337C181.973 93.788 182.189 93.059 181.991 92.537C181.743 92.1023 181.409 91.7226 181.01 91.421C180.677 91.16 179.813 90.764 179.687 90.323C179.606 90.062 179.327 88.613 179.102 88.622C178.661 88.622 178.661 88.721 178.625 88.244C178.573 87.9978 178.573 87.7433 178.625 87.497C178.883 86.9607 179.064 86.3913 179.165 85.805C179.237 84.824 179.075 84.698 179.984 84.662L179.894 85.337C180.318 85.3647 180.73 85.4856 181.102 85.6909C181.474 85.8963 181.796 86.1811 182.045 86.525L183.188 87.767C183.476 88.064 182.927 88.667 183.314 89.081C184.498 88.1815 185.634 87.2201 186.716 86.201C187.112 85.832 186.815 84.59 186.788 84.068C186.788 83.168 186.455 82.979 185.933 82.268C185.411 81.557 185.033 81.215 184.709 80.63L183.944 79.415C183.854 79.271 184.196 78.515 184.241 78.362C184.412 77.804 185.438 77.291 185.87 76.958C186.153 76.7963 186.48 76.7292 186.804 76.7664C187.128 76.8037 187.431 76.9433 187.67 77.165C187.526 77.165 187.4 77.309 187.247 77.345C187.301 77.498 187.436 78.083 187.562 78.146C188.012 78.38 188.003 77.858 187.949 77.606C187.877 77.219 187.796 77.21 188.129 77.093L188.912 76.805C188.912 76.67 189.299 67.742 189.308 67.607C182.306 66.734 175.106 74.078 168.5 72.602Z" fill="#075B5D"/>
<path d="M88.4629 59.9208C88.4629 59.9208 88.4629 59.9208 88.4629 59.9928C88.4629 60.0648 88.4629 60.3528 88.4629 60.5238C88.4642 60.843 88.4218 61.161 88.3369 61.4688C88.7239 61.1808 89.0389 61.5498 89.4619 61.2978C89.8849 61.0458 90.1999 61.7118 90.6229 61.5048C90.1909 61.8108 90.8119 62.5848 91.1629 62.4678C91.5139 62.3508 91.8379 61.7478 92.3239 61.7658C92.8723 61.8039 93.4226 61.8039 93.9709 61.7658C94.1419 61.7658 94.3489 61.2618 94.4479 61.1088C94.5469 60.9558 94.9969 60.9198 95.1859 60.8658C95.0959 60.6768 95.2399 60.4518 95.4109 60.2448C93.1369 60.1188 90.8209 60.0108 88.4629 59.9208Z" fill="#075B5D"/>
<path d="M33.3199 77.8038C33.0769 77.8038 32.9509 77.3988 32.8429 77.4078C32.5788 77.4106 32.3177 77.3519 32.0803 77.2363C31.8428 77.1207 31.6355 76.9514 31.4749 76.7418L31.4119 76.8678C30.4638 76.1588 29.3584 75.6895 28.1899 75.4998C27.5527 75.4672 26.915 75.5526 26.3089 75.7518C25.7689 75.8868 25.6249 76.4088 25.1929 76.6518C26.0929 77.1018 26.9929 75.1668 27.8929 76.0308C27.8294 76.0751 27.7575 76.106 27.6817 76.1215C27.6058 76.1369 27.5276 76.1367 27.4519 76.1208C27.5215 76.2156 27.6177 76.2876 27.7282 76.3276C27.8388 76.3677 27.9587 76.374 28.0729 76.3458C28.3429 76.2648 28.3699 76.4718 28.6489 76.4808C29.1169 76.4808 29.5489 76.8318 30.0619 76.9038C30.5749 76.9758 30.5389 77.5158 31.0609 77.7588C31.1959 77.8218 31.6999 77.6868 31.6999 78.0378C31.6999 78.1548 31.2679 78.4788 31.1869 78.5598C31.8169 78.6768 32.4649 78.5148 33.1129 78.5598C33.4549 78.4698 33.7879 78.3618 34.1299 78.2628C33.9048 78.0415 33.6255 77.8831 33.3199 77.8038Z" fill="#075B5D"/>
<path d="M30.71 80.1168C30.9914 80.3414 31.3117 80.5122 31.655 80.6208C31.844 80.6748 32.078 80.3598 32.429 80.4768C32.371 80.3698 32.3048 80.2675 32.231 80.1708C31.799 79.9998 31.052 79.5948 30.71 80.1168Z" fill="#075B5D"/>
<path d="M182.981 99.5659C183.368 99.1789 182.981 99.1969 182.936 98.8639C182.936 98.6929 182.882 98.1079 182.729 98.0359C182.576 97.9639 182.108 97.8919 182.072 97.6759C182.036 97.4599 182.324 97.2349 182.27 96.9739C182.216 96.7129 181.694 96.6319 181.694 96.3979C181.694 95.9659 181.532 96.1639 181.253 95.9479C180.974 95.7319 181.307 95.6599 180.821 95.5699C180.524 95.5159 180.317 95.5699 180.137 95.2909C179.795 94.8229 179.237 94.6699 178.859 94.2649C178.43 93.9302 178.026 93.5631 177.653 93.1669C177.266 92.6179 177.383 92.3389 176.654 92.2669C176.429 92.2669 175.34 91.8259 175.223 91.9879C175.106 92.1499 175.916 93.3379 176.069 93.4729C176.402 93.7699 177.131 93.9139 177.158 94.5349C177.185 95.1559 177.995 95.0929 178.166 95.7319L178.472 96.8659C178.544 97.1269 178.787 97.0369 178.949 97.2079C179.333 97.8041 179.635 98.4488 179.849 99.1249C180.085 99.5683 180.388 99.9722 180.749 100.322C181.379 101.015 182.027 101.699 182.738 102.365C183.116 101.402 183.485 100.421 183.836 99.4399C183.705 99.3458 183.542 99.3062 183.383 99.3298C183.223 99.3533 183.079 99.438 182.981 99.5659Z" fill="#075B5D"/>
<path d="M117.785 63.5389C117.785 63.2239 117.182 63.1159 116.885 63.1519C116.671 63.192 116.451 63.1837 116.24 63.1276C116.03 63.0715 115.835 62.9691 115.67 62.8279C115.577 62.958 115.51 63.1046 115.472 63.2599C116.219 63.4938 117.003 63.5884 117.785 63.5389Z" fill="#075B5D"/>
<path d="M183.935 98.6839C183.692 98.3059 183.584 98.6839 183.413 98.9089C183.466 98.9568 183.53 98.9908 183.599 99.0081C183.668 99.0254 183.74 99.0253 183.809 99.0079C183.809 99.0079 183.89 99.0529 183.926 99.1159L184.133 98.5309C184.103 98.4997 184.067 98.4761 184.026 98.462C183.985 98.4479 183.942 98.4438 183.899 98.4499C183.899 98.5309 183.917 98.6119 183.935 98.6839Z" fill="#075B5D"/>
<path d="M98.8671 58.6879C98.5611 58.1119 98.3631 58.3999 97.9131 58.6879L98.4171 59.0929L98.8671 58.6879Z" fill="#075B5D"/>
<path d="M66.2421 101.78C66.2421 101.663 65.1621 101.645 65.0091 101.636C64.1727 100.869 63.2482 100.205 62.2551 99.6559L58.8441 98.4229L55.4331 97.1899C55.2351 97.1179 54.9471 96.5689 54.8211 96.3979L53.2281 94.3099C52.7061 93.6259 52.0491 92.2399 51.2211 92.0329C50.3931 91.8259 48.8091 91.7989 48.1161 91.1329L44.8041 87.9559C44.1778 87.5094 43.4388 87.2475 42.6711 87.1999L38.4231 86.2099C37.8831 86.0839 36.8931 85.6069 36.3441 85.8049L34.5441 86.4529C34.3281 86.5339 33.5001 86.6689 33.3741 86.8849C32.9511 87.6049 31.8531 88.8019 31.8891 89.6929C31.5202 89.1462 30.9878 88.7303 30.3681 88.5049C29.6301 88.2799 29.2701 88.5679 28.5681 88.8559C27.4341 89.3239 25.9131 87.2809 26.0751 86.0299C26.0751 85.7779 26.3271 85.5439 26.3721 85.2739C26.4441 84.8149 26.5161 84.3739 26.5881 83.8879C26.6377 83.5818 26.5735 83.2682 26.4077 83.0062C26.2419 82.7442 25.9859 82.552 25.6881 82.4659C25.3538 82.3737 25.0089 82.3252 24.6621 82.3219C24.3831 82.2769 24.1761 82.5289 23.8881 82.4839C23.2066 82.4919 22.5257 82.4377 21.8541 82.3219C22.0611 82.1329 22.5651 81.5749 22.4211 81.2689C22.2771 80.9629 22.7991 80.0359 22.3311 80.0179C22.3962 79.8711 22.4777 79.7322 22.5741 79.6039C22.5506 79.7156 22.5547 79.8314 22.5861 79.9412C22.6174 80.0509 22.6751 80.1514 22.7541 80.2339C22.8175 79.8621 22.917 79.4974 23.0511 79.1449L22.9071 79.2439L22.8621 79.1809C22.9611 79.1179 23.0331 79.0009 23.1231 78.9199C22.8711 78.9199 22.9341 78.8209 22.8261 78.7579C23.0421 78.7579 23.4471 77.8579 23.5731 77.5519C23.8881 76.7959 22.8891 77.0029 22.5381 76.9579C22.0712 76.9792 21.6101 77.0702 21.1701 77.2279C20.5491 77.4709 20.6031 78.1279 20.4321 78.7489C20.353 79.0257 20.1774 79.2652 19.9371 79.4239C19.8291 79.5229 20.0091 79.7029 19.9371 79.7659C19.8161 79.8417 19.6861 79.9022 19.5501 79.9459C19.4421 79.9999 19.2621 79.7119 19.0461 79.7299C18.7649 79.7497 18.4886 79.8135 18.2271 79.9189L17.3271 80.2609C17.1921 80.3059 16.9581 79.9279 16.8051 79.8829C16.0671 79.6669 15.9051 79.1899 15.4461 78.5149C14.7553 77.4695 14.4206 76.2289 14.4921 74.9779C14.5434 74.4231 14.6706 73.878 14.8701 73.3579C14.9714 73.1283 15.041 72.8861 15.0771 72.6379C15.0771 72.3409 14.6631 72.0439 14.6721 71.7379C14.6721 70.7749 16.2741 69.5959 16.9491 69.3169C17.3541 69.1459 18.0291 68.6599 18.4521 68.8219C18.6771 68.9119 19.0101 69.1279 19.2441 69.0469C19.6581 68.9029 19.8201 69.1549 20.1441 69.4249C20.4681 69.6949 20.6121 69.1819 20.8191 69.6229C20.8191 69.4519 20.9181 69.3799 20.8731 69.1639C21.0981 69.3079 21.5571 69.4159 21.4401 69.7309C21.483 69.7435 21.5284 69.7446 21.5718 69.7338C21.6152 69.7231 21.655 69.7011 21.687 69.6699C21.7191 69.6388 21.7423 69.5997 21.7542 69.5566C21.7662 69.5136 21.7665 69.4681 21.7551 69.4249C21.7551 69.3439 21.2691 69.1819 21.1791 69.1279C22.0791 68.7139 20.8911 68.5699 20.5761 68.5429C21.0171 68.1919 22.5201 68.6779 22.6101 68.0029C22.7451 68.7769 23.5101 68.1739 23.9691 68.2999C24.2578 68.4381 24.527 68.6136 24.7701 68.8219C25.0311 68.9929 25.3281 68.8219 25.6071 68.6959C26.1291 68.5249 26.3721 69.1279 26.8131 69.4339C27.2541 69.7399 26.8131 70.4959 27.0021 70.9999L27.1821 70.8469C27.0831 71.2339 27.2451 71.4319 27.3981 71.7469C27.5479 72.0352 27.6714 72.3364 27.7671 72.6469C27.7671 72.6469 28.2711 73.1329 28.3611 73.2499C28.6311 73.6369 28.8291 73.3219 29.0631 73.0879C29.2971 72.8539 29.2611 71.6929 29.1351 71.2879C28.9139 70.5077 28.631 69.7462 28.2891 69.0109C28.041 68.4942 27.996 67.9031 28.1631 67.3549C28.4116 66.6372 28.9319 66.0458 29.6121 65.7079C29.8457 65.523 30.0439 65.2974 30.1971 65.0419C30.3951 64.7899 30.7731 64.8619 30.8901 64.6999C31.0071 64.5379 31.2501 63.9799 31.4661 63.8539C31.6821 63.7279 31.7631 64.0159 31.9071 63.9439L32.4381 63.6559C32.1861 63.5029 31.9611 63.8449 31.8081 63.4669C31.9881 63.4669 32.0601 63.3769 32.2041 63.3229C32.1051 63.2689 32.0331 63.1789 31.9341 63.1249C32.1051 63.1249 32.7531 63.1249 32.7891 62.8909C32.8701 62.4229 32.3301 62.5309 32.0151 62.5309L32.2671 62.4589C22.7803 63.7897 13.3867 65.7166 4.14209 68.2279V68.2999C4.14209 69.3169 4.14209 70.3249 4.19609 71.3419L4.53809 71.7829C4.62809 71.8999 4.93409 72.1699 4.89809 72.3319C4.86209 72.4939 4.70909 72.8449 4.83509 72.9619L6.49109 74.4919C6.80291 74.782 7.07524 75.1118 7.30109 75.4729C7.52609 75.8149 8.33609 76.6789 8.20109 77.1109C8.00309 77.7769 7.72409 78.0649 8.20109 78.5419L9.73109 80.0989C10.0083 80.2733 10.3124 80.4011 10.6311 80.4769L12.9891 81.4309C13.9611 81.8269 15.0051 82.5649 16.0221 82.2499C16.4721 82.1059 17.0031 81.7189 17.3811 82.0879L19.1001 83.7799C19.7571 84.4189 21.1341 84.4819 21.9621 84.6799C23.0331 84.9859 23.5011 85.7689 24.2661 86.6509C24.5721 87.0019 24.4461 87.5509 24.6891 87.9469C24.9321 88.3429 25.7691 88.7659 26.1741 89.0719L26.7681 89.5219C26.8851 89.6029 27.0111 89.3869 27.2001 89.4229C27.5601 89.4949 28.2081 90.1429 28.3431 89.7559C28.6401 90.4669 28.6131 90.3859 29.2431 90.1069C29.1711 89.9719 28.8381 89.5849 28.9551 89.4769C29.1542 89.2703 29.3779 89.089 29.6211 88.9369C29.9541 88.7569 29.9541 88.7299 30.2781 88.9369C30.6021 89.1439 30.7641 89.1259 30.6201 89.6839C30.4761 90.2419 31.5201 90.5839 31.4301 91.0159C31.4301 91.1869 31.5111 91.6819 31.4751 91.7089C31.2231 91.9609 31.4301 92.1499 31.4751 92.4919C31.6911 94.0039 30.9711 94.6249 30.1341 95.7049L29.0001 97.1719C28.7904 97.6737 28.6598 98.205 28.6131 98.7469C28.4241 99.5389 27.7131 100.934 28.1451 101.699L30.1161 105.389L32.5101 109.889C32.7642 110.547 33.1938 111.123 33.7521 111.554L35.6961 112.904C36.0291 113.138 36.7761 113.453 37.0011 113.804C37.1537 114.361 37.2234 114.937 37.2081 115.514C37.3395 116.152 37.4207 116.799 37.4511 117.449C37.3605 118.207 37.2192 118.959 37.0281 119.699L36.0741 124.739L34.4991 133.037C34.2921 134.144 34.1571 135.287 34.0491 136.439C36.0291 138.239 38.0841 139.967 40.2141 141.623C40.2747 141.58 40.3415 141.547 40.4121 141.524C40.9881 141.389 41.0781 141.443 41.3121 140.885L42.0951 139.193C42.2301 138.896 41.7261 138.383 41.6541 138.086C41.6037 137.613 41.6037 137.137 41.6541 136.664C42.5541 137.096 42.9951 137.339 43.8141 136.763C43.9941 136.637 43.8141 136.133 43.9671 135.863C44.1561 135.368 44.0301 135.152 43.8681 134.63C44.5296 134.821 45.2316 134.821 45.8931 134.63C46.7301 134.405 47.4321 134.423 47.9541 133.658C48.1341 133.397 48.6021 132.929 48.6651 132.605C48.6362 132.123 48.5393 131.647 48.3771 131.192C48.2331 130.454 46.8111 130.364 47.0361 129.509C47.4231 129.626 49.8981 130.697 50.0871 130.472L52.4541 127.43L55.0371 124.109C55.2441 123.848 55.1901 123.281 55.2261 122.948C55.2621 122.615 55.2261 121.148 55.4601 120.977L58.5741 118.835C58.9161 118.601 59.8611 118.745 60.2661 118.718C60.6711 118.691 60.8871 118.097 61.1661 117.737C61.7061 116.909 62.7861 115.838 62.8581 114.794C62.9661 113.219 63.0831 111.644 63.2001 110.069C63.321 109.493 63.6017 108.963 64.0101 108.539L66.2331 105.335C66.8361 104.435 66.8091 104.48 66.5571 103.382C66.4761 102.797 66.3591 102.293 66.2421 101.78Z" fill="#075B5D"/>
<path d="M4.78084 75.167C4.78084 74.906 4.55584 74.618 4.33984 74.429C4.33984 74.798 4.38485 75.176 4.41185 75.545C4.57385 75.563 4.69984 75.446 4.78084 75.167Z" fill="#075B5D"/>
<path d="M103.043 57.9138C103.043 58.0398 102.845 58.2738 102.818 58.4088C102.791 58.5438 103.025 58.5888 103.016 58.6608C102.953 59.0478 102.629 59.0838 102.944 59.3898C103.259 59.6958 103.448 59.6508 103.484 59.2548C103.484 59.0298 103.844 59.2548 103.889 58.8318C103.934 58.4088 103.997 57.9858 104.051 57.5538C104.159 56.6538 103.151 57.2028 102.935 57.3648L102.683 57.2658C102.521 57.7338 102.98 57.5988 103.043 57.9138Z" fill="#075B5D"/>
<g style="mix-blend-mode:multiply" opacity="0.6">
<path d="M121.205 135.44C83.9718 128.24 57.9348 96.3619 48.4128 60.9829L48.3318 60.6769C33.2821 61.8201 18.3729 64.3723 3.7998 68.2999C3.81025 86.5845 9.23988 104.456 19.4027 119.656C29.5656 134.856 44.0056 146.703 60.8985 153.7C77.7914 160.697 96.3792 162.53 114.313 158.968C132.248 155.405 148.724 146.607 161.66 133.685C148.489 137.371 134.645 137.971 121.205 135.44Z" fill="#6DC3DA"/>
</g>
<path d="M96.6707 104.687C147.763 104.687 189.182 87.3039 189.182 65.8609C189.182 44.4179 147.763 27.0349 96.6707 27.0349C45.5783 27.0349 4.15967 44.4179 4.15967 65.8609C4.15967 87.3039 45.5783 104.687 96.6707 104.687Z" fill="#84CE41"/>
<path style="mix-blend-mode:multiply" opacity="0.68" d="M77.933 53.1618C81.2 51.2358 81.785 50.7408 84.908 48.5808L82.208 43.7028L71.021 48.9858C72.929 50.6328 75.953 51.6048 77.933 53.1618Z" fill="url(#paint1_linear_610_1029)"/>
<path d="M83.342 18.9528H81.839C80.9741 18.9528 80.2729 19.6539 80.2729 20.5188V48.0948C80.2729 48.9596 80.9741 49.6608 81.839 49.6608H83.342C84.2068 49.6608 84.9079 48.9596 84.9079 48.0948V20.5188C84.9079 19.6539 84.2068 18.9528 83.342 18.9528Z" fill="#BC532A"/>
<path d="M94.025 25.2351C92.963 20.6001 88.22 0.179057 79.805 6.20006C75.494 9.27806 74.279 14.0841 72.56 18.8001C70.9867 22.6768 70.0741 26.7897 69.86 30.9681C69.725 39.4641 78.365 40.4991 84.98 40.4721C88.796 40.4721 94.232 38.2041 95.123 34.0641C95.663 31.5711 94.745 28.6641 94.223 26.1801L94.025 25.2351Z" fill="#2C9135"/>
<path d="M94.4297 26.1348L94.2317 25.2348C93.2867 21.1398 89.4707 4.69684 82.7837 5.10184C84.7727 13.7688 87.6977 22.9218 86.1317 31.7958C85.6324 34.8928 84.4217 37.8318 82.5947 40.3818C83.4947 40.3818 84.3947 40.4358 85.2047 40.4358C89.0207 40.4358 94.4567 38.1678 95.3477 34.0278C95.8787 31.5258 94.9607 28.5828 94.4297 26.1348Z" fill="#156819"/>
<path style="mix-blend-mode:multiply" opacity="0.68" d="M24.8959 65.6631C28.1629 63.7371 28.7479 63.2421 31.8709 61.0821L29.1709 56.2041L17.9839 61.4871C19.8919 63.1251 22.9249 64.1061 24.8959 65.6631Z" fill="url(#paint2_linear_610_1029)"/>
<path d="M30.3141 31.4451H28.8111C27.9462 31.4451 27.2451 32.1462 27.2451 33.0111V60.5871C27.2451 61.4519 27.9462 62.1531 28.8111 62.1531H30.3141C31.179 62.1531 31.8801 61.4519 31.8801 60.5871V33.0111C31.8801 32.1462 31.179 31.4451 30.3141 31.4451Z" fill="#BC532A"/>
<path d="M40.9971 37.6999C39.9261 33.0649 35.1831 12.6439 26.7771 18.6469C22.4661 21.7249 21.2511 26.5309 19.5321 31.2469C17.9589 35.1237 17.0463 39.2366 16.8321 43.4149C16.6971 51.9109 25.3371 52.9459 31.9521 52.9189C35.7681 52.9189 41.2041 50.6509 42.0951 46.5109C42.6351 44.0179 41.7171 41.1109 41.1951 38.6269L40.9971 37.6999Z" fill="#2C9135"/>
<path d="M41.4019 38.5999L41.2039 37.6999C40.2589 33.6049 36.4429 17.1619 29.7559 17.5669C31.7449 26.2339 34.6699 35.3869 33.1039 44.2609C32.6046 47.3579 31.3939 50.2969 29.5669 52.8469C30.4669 52.8469 31.3669 52.9009 32.1769 52.9009C35.9929 52.9009 41.4289 50.6329 42.3199 46.4929C42.8419 43.9999 41.9329 41.0749 41.4019 38.5999Z" fill="#156819"/>
<path style="mix-blend-mode:multiply" opacity="0.68" d="M50.15 94.7778C54.317 92.3208 55.055 91.6908 59.042 88.9368L55.577 82.6998L41.312 89.4408C43.76 91.5378 47.63 92.7888 50.15 94.7778Z" fill="url(#paint3_linear_610_1029)"/>
<path d="M57.4669 51.1548H54.6949C53.83 51.1548 53.1289 51.8559 53.1289 52.7208V88.7388C53.1289 89.6037 53.83 90.3048 54.6949 90.3048H57.4669C58.3318 90.3048 59.0329 89.6037 59.0329 88.7388V52.7208C59.0329 51.8559 58.3318 51.1548 57.4669 51.1548Z" fill="#BC532A"/>
<path d="M70.6699 59.1648C69.3109 53.2608 63.2629 27.2238 52.5349 34.8648C47.0449 38.7888 45.4879 44.9088 43.2919 50.9028C41.4919 55.8618 39.9619 61.0908 39.8809 66.4098C39.7099 77.2098 50.7259 78.5688 59.1589 78.5238C64.0189 78.5238 70.9579 75.6348 72.0919 70.3518C72.7759 67.1658 71.6059 63.4128 70.9309 60.2988C70.8409 59.9268 70.7539 59.5488 70.6699 59.1648Z" fill="#2C9135"/>
<path d="M71.1831 60.3078C71.0991 59.9238 71.0121 59.5398 70.9221 59.1558C69.7161 53.9268 64.8471 32.9748 56.3241 33.4878C58.8531 44.5398 62.6241 56.2128 60.5991 67.5168C59.9652 71.4636 58.4249 75.2097 56.0991 78.4608C57.2331 78.5148 58.3491 78.5328 59.4291 78.5328C64.2891 78.5328 71.2281 75.6438 72.3621 70.3608C73.0281 67.1838 71.8581 63.4308 71.1831 60.3078Z" fill="#156819"/>
<path style="mix-blend-mode:multiply" opacity="0.68" d="M149.924 64.88C154.325 62.288 155.108 61.622 159.311 58.715L155.657 52.145L140.6 59.3C143.174 61.46 147.26 62.774 149.924 64.88Z" fill="url(#paint4_linear_610_1029)"/>
<path d="M157.745 18.8269H154.64C153.775 18.8269 153.074 19.528 153.074 20.3929V58.5889C153.074 59.4538 153.775 60.1549 154.64 60.1549H157.745C158.61 60.1549 159.311 59.4538 159.311 58.5889V20.3929C159.311 19.528 158.61 18.8269 157.745 18.8269Z" fill="#BC532A"/>
<path d="M171.587 27.2777C170.147 21.0407 163.766 -6.44526 152.444 1.63674C146.648 5.77674 145.01 12.2477 142.688 18.5657C140.762 23.8037 139.169 29.3207 139.088 34.9367C138.908 46.3757 150.536 47.7707 159.437 47.7257C164.567 47.7257 171.893 44.6747 173.09 39.1037C173.81 35.7467 172.586 31.7777 171.866 28.4837C171.77 28.0877 171.677 27.6857 171.587 27.2777Z" fill="#2C9135"/>
<path d="M172.1 28.4929C172.01 28.0849 171.92 27.6799 171.83 27.2779C170.561 21.7609 165.413 -0.361093 156.413 0.178907C159.113 11.8789 163.028 24.1639 160.913 36.1069C160.241 40.2752 158.611 44.2308 156.152 47.6629C157.349 47.7259 158.528 47.7439 159.662 47.7349C164.792 47.7349 172.118 44.6839 173.315 39.1129C174.08 35.7469 172.847 31.7869 172.1 28.4929Z" fill="#156819"/>
<path style="mix-blend-mode:multiply" opacity="0.68" d="M118.019 52.5767C121.286 50.6507 121.871 50.1557 124.994 47.9957L122.294 43.1177L111.107 48.4007C113.006 50.0387 116.039 51.0107 118.019 52.5767Z" fill="url(#paint5_linear_610_1029)"/>
<path d="M123.428 18.3588H121.925C121.06 18.3588 120.359 19.0599 120.359 19.9248V47.5008C120.359 48.3656 121.06 49.0668 121.925 49.0668H123.428C124.293 49.0668 124.994 48.3656 124.994 47.5008V19.9248C124.994 19.0599 124.293 18.3588 123.428 18.3588Z" fill="#BC532A"/>
<path d="M134.111 24.6409C133.04 20.0059 128.297 -0.415147 119.891 5.58785C115.58 8.66585 114.365 13.4719 112.646 18.1879C111.073 22.0646 110.16 26.1775 109.946 30.3559C109.811 38.8518 118.451 39.8869 125.066 39.8599C128.882 39.8599 134.318 37.5919 135.209 33.4519C135.749 30.9589 134.831 28.0518 134.309 25.5679L134.111 24.6409Z" fill="#2C9135"/>
<path d="M134.516 25.541L134.318 24.641C133.373 20.546 129.557 4.10296 122.87 4.50796C124.859 13.175 127.784 22.328 126.218 31.202C125.718 34.2989 124.508 37.2379 122.681 39.788C123.581 39.788 124.481 39.842 125.291 39.842C129.107 39.842 134.543 37.574 135.434 33.434C135.965 30.932 135.047 27.989 134.516 25.541Z" fill="#156819"/>
<path style="mix-blend-mode:multiply" opacity="0.68" d="M126.092 94.7687C129.359 92.8427 129.944 92.3477 133.067 90.1877L130.367 85.3097L119.18 90.5927C121.088 92.2307 124.121 93.2027 126.092 94.7687Z" fill="url(#paint6_linear_610_1029)"/>
<path d="M131.51 60.5507H130.007C129.142 60.5507 128.441 61.2518 128.441 62.1167V89.6927C128.441 90.5575 129.142 91.2587 130.007 91.2587H131.51C132.375 91.2587 133.076 90.5575 133.076 89.6927V62.1167C133.076 61.2518 132.375 60.5507 131.51 60.5507Z" fill="#BC532A"/>
<path d="M142.193 66.8329C141.122 62.1979 136.379 41.7769 127.973 47.7799C123.662 50.8579 122.447 55.6639 120.728 60.3799C119.155 64.2566 118.242 68.3696 118.028 72.5479C117.893 81.0439 126.533 82.0789 133.148 82.0519C136.964 82.0519 142.4 79.7839 143.291 75.6439C143.831 73.1509 142.913 70.2439 142.391 67.7599L142.193 66.8329Z" fill="#2C9135"/>
<path d="M142.589 67.7329L142.391 66.8329C141.446 62.7379 137.63 46.2949 130.943 46.6999C132.932 55.3669 135.857 64.5199 134.291 73.3939C133.792 76.4908 132.581 79.4298 130.754 81.9799C131.654 81.9799 132.554 82.0339 133.364 82.0339C137.18 82.0339 142.616 79.7659 143.507 75.6259C144.038 73.1239 143.129 70.1809 142.589 67.7329Z" fill="#156819"/>
<defs>
<linearGradient id="paint0_linear_610_1029" x1="41.5008" y1="176.723" x2="54.4608" y2="157.283" gradientUnits="userSpaceOnUse">
<stop stop-color="white" stop-opacity="0"/>
<stop offset="0.99" stop-color="#FFA86A"/>
</linearGradient>
<linearGradient id="paint1_linear_610_1029" x1="84.656" y1="42.4158" x2="72.092" y2="54.3588" gradientUnits="userSpaceOnUse">
<stop stop-color="#00A99D"/>
<stop offset="1" stop-color="white"/>
</linearGradient>
<linearGradient id="paint2_linear_610_1029" x1="31.6279" y1="54.9081" x2="19.0639" y2="66.8601" gradientUnits="userSpaceOnUse">
<stop stop-color="#00A99D"/>
<stop offset="1" stop-color="white"/>
</linearGradient>
<linearGradient id="paint3_linear_610_1029" x1="58.718" y1="81.0708" x2="42.698" y2="96.2988" gradientUnits="userSpaceOnUse">
<stop stop-color="#00A99D"/>
<stop offset="1" stop-color="white"/>
</linearGradient>
<linearGradient id="paint4_linear_610_1029" x1="158.969" y1="50.408" x2="142.058" y2="66.482" gradientUnits="userSpaceOnUse">
<stop stop-color="#00A99D"/>
<stop offset="1" stop-color="white"/>
</linearGradient>
<linearGradient id="paint5_linear_610_1029" x1="124.742" y1="41.8217" x2="112.178" y2="53.7647" gradientUnits="userSpaceOnUse">
<stop stop-color="#00A99D"/>
<stop offset="1" stop-color="white"/>
</linearGradient>
<linearGradient id="paint6_linear_610_1029" x1="132.824" y1="84.0137" x2="120.26" y2="95.9657" gradientUnits="userSpaceOnUse">
<stop stop-color="#00A99D"/>
<stop offset="1" stop-color="white"/>
</linearGradient>
</defs>
</svg>
