<?xml version="1.0" encoding="UTF-8" standalone="no"?>
<svg
   xmlns:dc="http://purl.org/dc/elements/1.1/"
   xmlns:cc="http://creativecommons.org/ns#"
   xmlns:rdf="http://www.w3.org/1999/02/22-rdf-syntax-ns#"
   xmlns:svg="http://www.w3.org/2000/svg"
   xmlns="http://www.w3.org/2000/svg"
   xmlns:sodipodi="http://sodipodi.sourceforge.net/DTD/sodipodi-0.dtd"
   xmlns:inkscape="http://www.inkscape.org/namespaces/inkscape"
   id="Lager_1"
   data-name="Lager 1"
   viewBox="0 0 208 217.5"
   version="1.1"
   inkscape:version="0.91 r13725"
   sodipodi:docname="diversity_a.svg">
  <metadata
     id="metadata4399">
    <rdf:RDF>
      <cc:Work
         rdf:about="">
        <dc:format>image/svg+xml</dc:format>
        <dc:type
           rdf:resource="http://purl.org/dc/dcmitype/StillImage" />
        <dc:title>diversity (1)</dc:title>
      </cc:Work>
    </rdf:RDF>
  </metadata>
  <sodipodi:namedview
     pagecolor="#ffffff"
     bordercolor="#666666"
     borderopacity="1"
     objecttolerance="10"
     gridtolerance="10"
     guidetolerance="10"
     inkscape:pageopacity="0"
     inkscape:pageshadow="2"
     inkscape:window-width="3200"
     inkscape:window-height="1752"
     id="namedview4397"
     showgrid="false"
     inkscape:zoom="4.3402299"
     inkscape:cx="70.058856"
     inkscape:cy="80.524873"
     inkscape:window-x="0"
     inkscape:window-y="48"
     inkscape:window-maximized="1"
     inkscape:current-layer="Lager_1" />
  <defs
     id="defs4345">
    <style
       id="style4347">.cls-1{fill:none;stroke:#e73a53;stroke-miterlimit:10;stroke-width:3px;}.cls-2{fill:#353535;}</style>
  </defs>
  <title
     id="title4349">diversity (1)</title>
  <line
     class="cls-1"
     x1="22.64"
     y1="83.55"
     x2="181.3"
     y2="83.55"
     id="line4351" />
  <path
     class="cls-1"
     d="M208.6,118"
     transform="translate(-106.63 -33.66)"
     id="path4353" />
  <path
     class="cls-1"
     d="M208.6,118"
     transform="translate(-106.63 -33.66)"
     id="path4355" />
  <line
     class="cls-1"
     x1="101.97"
     y1="84.31"
     x2="101.97"
     y2="187.12"
     id="line4357" />
  <polyline
     class="cls-1"
     points="101.97 189.13 181.3 83.13 153.34 46.35 141.13 30.3 63.06 137.14"
     id="polyline4359" />
  <polyline
     class="cls-1"
     points="101.97 189.28 22.64 83.28 62.81 30.44 140.88 137.29"
     id="polyline4361" />
  <path
     class="cls-1"
     d="M159.51,226.51a102.5,102.5,0,1,1,96.74,3"
     transform="translate(-106.63 -33.66)"
     id="path4363"
     style="stroke:#776aa2;stroke-opacity:1" />
  <line
     class="cls-1"
     x1="22.64"
     y1="83.55"
     x2="181.3"
     y2="83.55"
     id="line4365"
     style="stroke:#776aa2;stroke-opacity:1" />
  <path
     class="cls-1"
     d="M208.6,118"
     transform="translate(-106.63 -33.66)"
     id="path4367" />
  <path
     class="cls-1"
     d="M208.6,118"
     transform="translate(-106.63 -33.66)"
     id="path4369" />
  <line
     class="cls-1"
     x1="101.97"
     y1="84.31"
     x2="101.97"
     y2="187.12"
     id="line4371"
     style="stroke:#776aa2;stroke-opacity:1" />
  <polyline
     class="cls-1"
     points="101.97 189.13 181.3 83.13 153.34 46.35 141.13 30.3 63.06 137.14"
     id="polyline4373"
     style="stroke:#776aa2;stroke-opacity:1" />
  <polyline
     class="cls-1"
     points="101.97 189.28 22.64 83.28 62.81 30.44 140.88 137.29"
     id="polyline4375"
     style="stroke:#776aa2;stroke-opacity:1" />
  <path
     class="cls-1"
     d="M159.51,226.51a102.5,102.5,0,1,1,96.74,3"
     transform="translate(-106.63 -33.66)"
     id="path4377"
     style="stroke:#776aa2;stroke-opacity:0" />
  <path
     class="cls-2"
     d="M176.49,229.68c2.13.84,2.59,2.52,1.75,4.63l-2.74,6.89c-.83,2.09-2.32,3-4.44,2.14l-3.2-1.27,5.43-13.66Zm-4.9,12.27c1.09.43,1.89,0,2.39-1.29l2.79-7c.5-1.25.24-2.14-.87-2.58l-1.64-.65-4.33,10.89Z"
     transform="translate(-106.63 -33.66)"
     id="path4379" />
  <path
     class="cls-2"
     d="M184.13,232.33l-4.36,14-1.56-.49,4.36-14Z"
     transform="translate(-106.63 -33.66)"
     id="path4381" />
  <path
     class="cls-2"
     d="M188.49,233.56l-.51,13,5.16-11.94,1.47.34-6,13.72-2.36-.54.57-15Z"
     transform="translate(-106.63 -33.66)"
     id="path4383" />
  <path
     class="cls-2"
     d="M201.69,242.48l-.18,1.46-3.56-.44-.64,5.19,4.38.54-.18,1.48-6-.74,1.79-14.59,6,.74-.18,1.48-4.38-.54-.61,5Z"
     transform="translate(-106.63 -33.66)"
     id="path4385" />
  <path
     class="cls-2"
     d="M209.5,236.4c2.31,0,3.25,1.23,3.22,3.41l0,1.2c0,1.62-.61,2.62-1.88,3,1.34.42,1.82,1.52,1.8,3.1l0,2.29a3.68,3.68,0,0,0,.26,1.77l-1.66,0a3.86,3.86,0,0,1-.24-1.79l0-2.31c0-1.66-.74-2.2-2.11-2.22l-1.16,0-.1,6.28L206,251l.25-14.7Zm-.54,6.92c1.3,0,2.09-.38,2.11-2l0-1.41c0-1.32-.45-2-1.67-2l-1.6,0-.09,5.44Z"
     id="path4387"
     transform="translate(-106.63 -33.66)" />
  <path
     class="cls-2"
     d="M222.56,239.2l0,.4-1.55.15,0-.48c-.13-1.32-.71-2-1.88-1.92s-1.6.94-1.47,2.24c.33,3.28,5.27,3.11,5.68,7.23.22,2.22-.7,3.76-2.94,4s-3.42-1.12-3.64-3.33l-.08-.84,1.53-.15.09.92c.13,1.32.75,2,1.92,1.92s1.64-.94,1.51-2.26c-.32-3.26-5.25-3.09-5.66-7.21-.22-2.26.68-3.76,2.88-4S222.34,237,222.56,239.2Z"
     transform="translate(-106.63 -33.66)"
     id="path4389" />
  <path
     class="cls-2"
     d="M226.75,234.85l2.78,14.43-1.61.31-2.78-14.43Z"
     transform="translate(-106.63 -33.66)"
     id="path4391" />
  <path
     class="cls-2"
     d="M236,247.72,232.33,235l-2.6.75-.42-1.43,6.76-2,.42,1.43-2.6.75,3.68,12.69Z"
     transform="translate(-106.63 -33.66)"
     id="path4393" />
  <path
     class="cls-2"
     d="M244.48,239.2l-6.58-7.43,1.56-.67,5,5.73-.73-7.55,1.43-.61.85,9.9L248,243.4l-1.49.64Z"
     transform="translate(-106.63 -33.66)"
     id="path4395" />
</svg>
