<svg id="Lager_1" data-name="Lager 1" xmlns="http://www.w3.org/2000/svg" viewBox="0 0 208 221.12"><defs><style>.cls-1,.cls-2{fill:none;stroke-miterlimit:10;stroke-width:3px;}.cls-1{stroke:#2d2d2c;}.cls-2{stroke:#1d1d1b;}.cls-3{font-size:21px;fill:#353535;font-family:BebasNeueRegular, Bebas Neue;}.cls-4{fill:#2d2d2c;}</style></defs><title>quality</title><path class="cls-1" d="M179.9,117.12" transform="translate(-106.21 -33.76)"/><path class="cls-2" d="M211.41,227.51" transform="translate(-106.21 -33.76)"/><path class="cls-2" d="M148.51,138.91" transform="translate(-106.21 -33.76)"/><path class="cls-1" d="M165,229.79a102.5,102.5,0,1,1,89,.68" transform="translate(-106.21 -33.76)"/><polyline class="cls-1" points="102.34 192.69 183.74 85.6 161.69 31.26 102.34 31.26"/><polyline class="cls-1" points="101.81 31.78 134.23 84.61 161.69 31.26"/><polyline class="cls-1" points="43.38 31.26 69.64 84.61 101.81 31.78"/><polyline class="cls-1" points="69.64 84.59 102.34 186.22 134.23 84.59"/><line class="cls-1" x1="21.93" y1="85.58" x2="183.77" y2="85.95"/><polyline class="cls-1" points="102.23 192.69 183.64 85.6 161.59 31.26 102.23 31.26"/><polyline class="cls-1" points="102.34 192.65 20.93 85.56 42.99 31.22 102.34 31.22"/><text class="cls-3" transform="translate(68.19 211.67) rotate(17.44)">Q</text><text class="cls-3" transform="translate(79.26 214.94) rotate(10.63)">u</text><text class="cls-3" transform="translate(90.34 216.85) rotate(3.81)">a</text><text class="cls-3" transform="translate(102.24 217.42) rotate(-2.64)">l</text><text class="cls-3" transform="translate(112.05 216.78) rotate(-7.25)">i</text><text class="cls-3" transform="translate(118.1 215.98) rotate(-11.93)">t</text><text class="cls-3" transform="translate(128.38 213.67) rotate(-17.97)">y</text><path class="cls-1" d="M209.66,227.36" transform="translate(-106.21 -33.76)"/><rect class="cls-4" x="209.53" y="227.26" width="0.23" height="0.09" transform="translate(150.42 499.17) rotate(-146.06)"/></svg>