<svg id="Lager_1" data-name="Lager 1" xmlns="http://www.w3.org/2000/svg" viewBox="0 0 208 217.41"><defs><style>.cls-1,.cls-2{fill:none;stroke-miterlimit:10;stroke-width:3px;}.cls-1{stroke:#2d2d2c;}.cls-2{stroke:#1d1d1b;}.cls-3{fill:#353535;}.cls-4{fill:#2d2d2c;}</style></defs><title>quality</title><path class="cls-1" d="M179.9,117.12" transform="translate(-106.21 -33.76)"/><path class="cls-2" d="M211.41,227.51" transform="translate(-106.21 -33.76)"/><path class="cls-2" d="M148.51,138.91" transform="translate(-106.21 -33.76)"/><path class="cls-1" d="M165,229.79a102.5,102.5,0,1,1,89,.68" transform="translate(-106.21 -33.76)"/><polyline class="cls-1" points="102.34 192.69 183.74 85.6 161.69 31.26 102.34 31.26"/><polyline class="cls-1" points="101.81 31.78 134.23 84.61 161.69 31.26"/><polyline class="cls-1" points="43.38 31.26 69.64 84.61 101.81 31.78"/><polyline class="cls-1" points="69.64 84.59 102.34 186.22 134.23 84.59"/><line class="cls-1" x1="21.93" y1="85.58" x2="183.77" y2="85.95"/><polyline class="cls-1" points="102.23 192.69 183.64 85.6 161.59 31.26 102.23 31.26"/><polyline class="cls-1" points="102.34 192.65 20.93 85.56 42.99 31.22 102.34 31.22"/><path class="cls-3" d="M184.85,237l-2.28,7.25a4.26,4.26,0,0,1-1.23,2c.05.39.28.57.72.71l.2.06-.43,1.38-.26-.08a2,2,0,0,1-1.5-1.46,3.51,3.51,0,0,1-1.83-.11c-2.14-.67-2.77-2.41-2.1-4.53l2.28-7.25c.67-2.14,2.17-3.19,4.31-2.52S185.52,234.88,184.85,237ZM180,235.41l-2.33,7.41c-.4,1.28-.09,2.19,1,2.55s1.9-.22,2.3-1.5l2.33-7.41c.4-1.26.11-2.19-1-2.54S180.38,234.14,180,235.41Z" transform="translate(-106.21 -33.76)"/><path class="cls-3" d="M188.47,245.73c-.24,1.3.12,2.18,1.3,2.4s1.82-.47,2.06-1.77l2.07-11,1.51.28-2.06,11c-.41,2.19-1.7,3.46-3.93,3s-2.95-2.07-2.53-4.26l2.06-11,1.59.3Z" transform="translate(-106.21 -33.76)"/><path class="cls-3" d="M199.25,247.82l-.76,2.92-1.51-.1,3.78-14.48,2.37.16L205,251.17l-1.63-.11-.37-3Zm.3-1.39,3.27.22-1.09-8.57Z" transform="translate(-106.21 -33.76)"/><path class="cls-3" d="M209.3,251.14l-.67-14.69,1.64-.08.6,13.2,4.2-.19.07,1.49Z" transform="translate(-106.21 -33.76)"/><path class="cls-3" d="M218.87,235.65l1.86,14.58-1.62.21-1.86-14.58Z" transform="translate(-106.21 -33.76)"/><path class="cls-3" d="M227.21,249.13l-2.73-12.93-2.65.56-.31-1.46,6.88-1.45.31,1.46-2.65.56,2.73,12.93Z" transform="translate(-106.21 -33.76)"/><path class="cls-3" d="M236.24,241.35l-5.87-8,1.62-.53L236.4,239l0-7.58,1.48-.48-.06,9.93,1.63,5-1.54.5Z" transform="translate(-106.21 -33.76)"/><path class="cls-1" d="M209.66,227.36" transform="translate(-106.21 -33.76)"/><rect class="cls-4" x="209.53" y="227.26" width="0.23" height="0.09" transform="translate(150.42 499.17) rotate(-146.06)"/></svg>