<svg id="Lager_1" data-name="Lager 1" xmlns="http://www.w3.org/2000/svg" viewBox="0 0 208 220.7"><defs><style>.cls-1,.cls-3,.cls-4{fill:none;stroke-miterlimit:10;}.cls-1{stroke:#51b586;}.cls-1,.cls-3{stroke-width:3px;}.cls-2{font-size:21px;fill:#353535;font-family:BebasNeueRegular, Bebas Neue;}.cls-3,.cls-4{stroke:#4eb586;}</style></defs><title>sustainability</title><path class="cls-1" d="M143.74,214.95a102.5,102.5,0,1,1,133,.71" transform="translate(-106.66 -33.3)"/><text class="cls-2" transform="translate(39.22 200.61) rotate(30.09)">S</text><text class="cls-2" transform="matrix(0.92, 0.39, -0.39, 0.92, 48.84, 205.93)">u</text><text class="cls-2" transform="translate(59.12 210.09) rotate(17.04)">s</text><text class="cls-2" transform="translate(69.28 213.06) rotate(12.15)">t</text><text class="cls-2" transform="translate(78.55 215) rotate(7.85)">a</text><text class="cls-2" transform="translate(89.91 216.4) rotate(4.37)">i</text><text class="cls-2" transform="matrix(1, 0.02, -0.02, 1, 95.77, 216.85)">n</text><text class="cls-2" transform="translate(107.07 216.96) rotate(-3.36)">a</text><text class="cls-2" transform="matrix(0.99, -0.14, 0.14, 0.99, 118.64, 216.17)">b</text><text class="cls-2" transform="matrix(0.98, -0.2, 0.2, 0.98, 129.32, 214.55)">i</text><text class="cls-2" transform="translate(135.08 213.38) rotate(-14.65)">l</text><text class="cls-2" transform="matrix(0.95, -0.31, 0.31, 0.95, 144.39, 210.81)">i</text><text class="cls-2" transform="translate(150.08 208.91) rotate(-22.35)">t</text><text class="cls-2" transform="translate(159.8 204.78) rotate(-28.52)">y</text><line class="cls-1" x1="104.63" y1="16.49" x2="82.92" y2="39.32"/><line class="cls-3" x1="104.63" y1="18.55" x2="104.63" y2="186.12"/><polyline class="cls-1" points="104.63 16.49 126.25 39.33 158.83 73.75 158.83 146.18 104.63 171.89"/><polyline class="cls-1" points="51.31 110.91 104.55 137.54 158.83 110.47"/><path class="cls-4" d="M159.31,106.63" transform="translate(-106.66 -33.3)"/><polyline class="cls-1" points="51.31 72.66 103.4 98.7 157.68 71.63"/><polyline class="cls-1" points="104.48 16.49 82.86 39.33 50.28 73.75 50.28 146.18 104.48 171.89"/></svg>