<svg id="Lager_1" data-name="Lager 1" xmlns="http://www.w3.org/2000/svg" viewBox="0 0 208 216.99"><defs><style>.cls-1,.cls-3,.cls-4{fill:none;stroke-miterlimit:10;}.cls-1{stroke:#51b586;}.cls-1,.cls-3{stroke-width:3px;}.cls-2{fill:#353535;}.cls-3,.cls-4{stroke:#4eb586;}</style></defs><title>sustainability</title><path class="cls-1" d="M143.74,214.95a102.5,102.5,0,1,1,133,.71" transform="translate(-106.66 -33.3)"/><path class="cls-2" d="M157.72,227.86l-.2.34-1.35-.78.24-.42c.66-1.15.62-2.07-.4-2.66s-1.84-.17-2.5,1c-1.65,2.85,2.46,5.6.39,9.18-1.12,1.93-2.77,2.64-4.71,1.52s-2.13-2.91-1-4.83l.42-.73,1.33.77-.46.8c-.66,1.14-.58,2.09.44,2.68s1.88.19,2.54-1c1.64-2.83-2.45-5.57-.38-9.15,1.14-2,2.75-2.65,4.66-1.55S158.83,225.93,157.72,227.86Z" transform="translate(-106.66 -33.3)"/><path class="cls-2" d="M159.06,237c-.52,1.22-.34,2.16.76,2.62s1.88-.07,2.39-1.29L166.59,228l1.41.6-4.34,10.27c-.87,2.05-2.4,3-4.49,2.14s-2.44-2.65-1.57-4.7L161.94,226l1.49.63Z" transform="translate(-106.66 -33.3)"/><path class="cls-2" d="M175.94,234.81l-.12.38-1.49-.46.14-.46c.39-1.26.13-2.16-1-2.5s-1.83.25-2.22,1.5c-1,3.15,3.66,4.9,2.45,8.86-.65,2.13-2.1,3.2-4.25,2.54s-2.73-2.35-2.08-4.48l.25-.8,1.47.45-.27.88c-.39,1.26-.09,2.17,1,2.51s1.87-.24,2.26-1.5c1-3.13-3.65-4.87-2.44-8.83.66-2.17,2.08-3.21,4.19-2.56S176.59,232.69,175.94,234.81Z" transform="translate(-106.66 -33.3)"/><path class="cls-2" d="M178.83,247l2.78-12.91-2.65-.57.31-1.46,6.88,1.48-.31,1.46-2.65-.57-2.78,12.91Z" transform="translate(-106.66 -33.3)"/><path class="cls-2" d="M188.09,245.71l-1,2.85-1.5-.21,4.79-14.17,2.35.32.78,14.94-1.62-.22-.16-3Zm.4-1.37,3.24.45-.48-8.63Z" transform="translate(-106.66 -33.3)"/><path class="cls-2" d="M200.16,235.24,199,249.89l-1.63-.12,1.12-14.66Z" transform="translate(-106.66 -33.3)"/><path class="cls-2" d="M204.71,250.19l-1.47,0,.27-14.7,2.08,0,3.21,10.69.19-10.62,1.45,0-.27,14.7-1.7,0-3.54-12Z" transform="translate(-106.66 -33.3)"/><path class="cls-2" d="M216,247.16l-.39,3-1.51.09,1.94-14.84,2.37-.14,3.67,14.51-1.64.1-.74-2.92Zm.13-1.42,3.27-.19-2.16-8.37Z" transform="translate(-106.66 -33.3)"/><path class="cls-2" d="M227.39,234.35c2.27-.31,3.31.65,3.6,2.79l.09.69c.21,1.54-.09,2.56-1.31,3.13,1.47.2,2.16,1.25,2.38,2.85l.17,1.23c.3,2.18-.59,3.56-2.86,3.87l-3.35.46-2-14.56Zm.45,6.23c1.29-.18,1.9-.68,1.69-2.2l-.12-.85c-.18-1.29-.7-1.85-1.86-1.69L226,236l.65,4.7Zm1.43,6.84c1.19-.16,1.64-.86,1.46-2.21l-.18-1.29c-.22-1.62-.94-2.07-2.33-1.88l-1.41.19.75,5.43Z" transform="translate(-106.66 -33.3)"/><path class="cls-2" d="M235.53,232.95l2.87,14.42-1.61.32-2.87-14.42Z" transform="translate(-106.66 -33.3)"/><path class="cls-2" d="M242.54,246.47l-3.72-14.23,1.59-.41,3.34,12.78,4.06-1.06.38,1.44Z" transform="translate(-106.66 -33.3)"/><path class="cls-2" d="M248.79,229.37l4.6,14-1.56.51-4.6-14Z" transform="translate(-106.66 -33.3)"/><path class="cls-2" d="M259.47,241.09l-5-12.22-2.5,1-.57-1.38,6.51-2.67.57,1.38-2.51,1,5,12.22Z" transform="translate(-106.66 -33.3)"/><path class="cls-2" d="M267,231.81l-7.23-6.8,1.49-.81,5.46,5.25L265.27,222l1.36-.74,1.75,9.78,2.52,4.63-1.42.77Z" transform="translate(-106.66 -33.3)"/><line class="cls-1" x1="104.63" y1="16.49" x2="82.92" y2="39.32"/><line class="cls-3" x1="104.63" y1="18.55" x2="104.63" y2="186.12"/><polyline class="cls-1" points="104.63 16.49 126.25 39.33 158.83 73.75 158.83 146.18 104.63 171.89"/><polyline class="cls-1" points="51.31 110.91 104.55 137.54 158.83 110.47"/><path class="cls-4" d="M159.31,106.63" transform="translate(-106.66 -33.3)"/><polyline class="cls-1" points="51.31 72.66 103.4 98.7 157.68 71.63"/><polyline class="cls-1" points="104.48 16.49 82.86 39.33 50.28 73.75 50.28 146.18 104.48 171.89"/></svg>