<?xml version="1.0" encoding="utf-8"?>
<!-- Generator: Adobe Illustrator 22.0.1, SVG Export Plug-In . SVG Version: 6.00 Build 0)  -->
<svg version="1.0" id="Lager_1" xmlns="http://www.w3.org/2000/svg" xmlns:xlink="http://www.w3.org/1999/xlink" x="0px" y="0px"
	 viewBox="0 0 595.3 841.9" style="enable-background:new 0 0 595.3 841.9;" xml:space="preserve">
<style type="text/css">
	.st0{fill:#2E2E2E;}
</style>
<g>
	<path class="st0" d="M148.1,692.2c-0.2-0.1-0.3-0.3-0.5-0.3c-6.3-1.1-9.2-6.1-9.5-12c-0.1-3.1,0-6.1,0-9.2c0-11,0-21.9,0-32.9
		c0-0.8,0-1.5,0-2.4c3,0,5.8,0,8.8,0c0,0.8,0,1.6,0,2.3c0,13.3,0,26.5,0,39.8c0,1.2,0.1,2.5,0.4,3.7c0.5,2,1.8,2.8,4.1,2.8
		c2.4,0,3.8-0.8,4.3-2.8c0.3-1.1,0.4-2.3,0.4-3.5c0-13.3,0-26.7,0-40c0-0.7,0-1.5,0-2.3c2.8,0,5.4,0,8.2,0c0,0.5,0.1,1,0.1,1.6
		c0,14,0,28.1,0,42.1c0,1.7-0.4,3.5-0.8,5.1c-1.1,4-3.9,6.5-7.9,7.6c-0.5,0.1-0.9,0.3-1.3,0.5C152.2,692.2,150.1,692.2,148.1,692.2z
		"/>
	<path class="st0" d="M117,692.2c-0.2-0.1-0.4-0.3-0.7-0.4c-5-1.1-7.8-4.4-8.8-9.2c-0.5-2.5-0.5-5.1-0.7-7.8c3,0,5.6,0,8.5,0
		c0.1,0.6,0.1,1.2,0.2,1.8c0.1,1.1,0,2.2,0.1,3.3c0.3,2.7,1.4,3.9,3.6,4c3,0.2,4.7-0.9,5.1-3.7c0.5-2.8-0.1-5.5-1.8-7.7
		c-1.6-2.1-3.5-3.9-5.3-5.9c-2-2.1-4.2-4-5.9-6.2c-4.3-5.3-5-11.4-3.2-17.8c1.3-4.9,4.8-7.6,9.8-8.1c2-0.2,4.2,0,6.2,0.3
		c4.1,0.7,6.8,3.3,8.2,7.2c0.9,2.6,1.2,5.3,0.9,8.2c-2.7,0-5.4,0-8.1,0c-0.2-1.5-0.2-2.9-0.5-4.3c-0.4-2.3-1.8-3.4-4.1-3.4
		c-2.3,0-3.7,1-4.2,3.3c-0.7,3-0.1,5.9,1.7,8.4c1.4,1.9,3.1,3.6,4.7,5.3c2.2,2.3,4.7,4.4,6.7,6.9c4.1,5.1,4.9,11,3.3,17.2
		c-1.1,4.4-4,7.3-8.5,8.3c-0.3,0.1-0.6,0.3-0.9,0.4C121.2,692.2,119.1,692.2,117,692.2z"/>
	<path class="st0" d="M179.1,692.2c-0.2-0.1-0.4-0.3-0.7-0.4c-5-1.1-7.8-4.4-8.8-9.2c-0.5-2.5-0.5-5.1-0.7-7.8c3,0,5.6,0,8.5,0
		c0.1,0.6,0.1,1.2,0.2,1.8c0.1,1.1,0,2.2,0.1,3.3c0.3,2.7,1.4,3.9,3.6,4c3,0.2,4.7-0.9,5.1-3.7c0.5-2.8-0.1-5.5-1.8-7.7
		c-1.6-2.1-3.5-3.9-5.3-5.9c-2-2.1-4.2-4-5.9-6.2c-4.3-5.3-5-11.4-3.2-17.8c1.3-4.9,4.8-7.6,9.8-8.1c2-0.2,4.2,0,6.2,0.3
		c4.1,0.7,6.8,3.3,8.2,7.2c0.9,2.6,1.2,5.3,0.9,8.2c-2.7,0-5.4,0-8.1,0c-0.2-1.5-0.2-2.9-0.5-4.3c-0.4-2.3-1.8-3.4-4.1-3.4
		c-2.3,0-3.7,1-4.2,3.3c-0.7,3-0.1,5.9,1.7,8.4c1.4,1.9,3.1,3.6,4.7,5.3c2.2,2.3,4.7,4.4,6.7,6.9c4.1,5.1,4.9,11,3.3,17.2
		c-1.1,4.4-4,7.3-8.5,8.3c-0.3,0.1-0.6,0.3-0.9,0.4C183.2,692.2,181.2,692.2,179.1,692.2z"/>
	<path class="st0" d="M85.9,362c0-6.8,0-13.5,0-20.3c0-1.4,0.4-2.7,0.6-4.1c0-0.3,0.1-0.5,0.2-0.8c0.3-3.1,0.3-6.3,0.9-9.3
		c0.8-3.8,0.8-7.9,2.6-11.5c0.3-0.7,0.3-1.5,0.5-2.2c0.4-2,0.8-4.1,1.3-6.1c0.7-2.7,1.5-5.5,2.2-8.2c0.6-1.9,1.2-3.8,1.8-5.7
		c0.8-2.5,1.6-5,2.5-7.5c1.3-3.4,2.7-6.8,4.2-10.1c2.7-5.8,5.4-11.6,8.4-17.2c2.4-4.4,5.3-8.6,7.9-12.8c1.8-2.9,3.7-5.8,5.6-8.7
		c1.1-1.6,2.5-3.1,3.7-4.7c1.8-2.3,3.6-4.7,5.5-7c0.1-0.2,0.3-0.3,0.4-0.5c6.4-7.3,13.1-14.2,20.1-20.9c2.4-2.3,5.1-4.2,7.7-6.3
		c2.1-1.8,4.2-3.6,6.4-5.3c2.2-1.7,4.5-3.4,6.8-5c1.4-1,2.8-2,4.3-2.9c1.9-1.3,3.7-2.6,5.7-3.7c4.3-2.5,8.6-5,12.9-7.3
		c2.2-1.2,4.7-2,7-3c3-1.3,5.8-2.9,8.8-4.2c4-1.7,8.1-3.3,12.1-4.8c3-1.1,6-2.1,9.1-3c2.8-0.9,5.7-1.6,8.6-2.4
		c1.7-0.5,3.3-0.9,5-1.3c1.6-0.4,3.2-0.7,4.9-1c1.7-0.3,3.4-0.7,5.1-1c1.4-0.3,2.8-0.5,4.3-0.7c3.2-0.4,6.3-0.7,9.5-1.1
		c1.8-0.2,3.5-0.7,5.3-1c1.1-0.2,2.3-0.6,3.5-0.6c10.1,0,20.1,0,30.2,0c1.2,0,2.4,0.4,3.7,0.6c0.5,0.1,1.1,0.2,1.6,0.2
		c3.4-0.3,6.6,0.8,9.8,1.6c0.3,0.1,0.7,0.2,1,0.3c4.2,0.6,8.4,1.1,12.5,1.9c4.3,0.8,8.5,2.1,12.7,3c6.2,1.3,12,3.5,17.9,5.5
		c2.3,0.7,4.5,1.7,6.7,2.7c4.2,1.9,8.3,4.1,12.6,5.8c5.7,2.3,11.1,5.3,16.2,8.7c2.7,1.7,5.5,3.2,8.2,4.9c2.7,1.8,5.4,3.7,8,5.6
		c2.3,1.7,4.6,3.5,6.9,5.3c0.7,0.6,1.3,1.3,2,1.9c0.6,0.5,1.2,1.3,2,1.5c1.8,0.5,2.8,1.7,4,2.9c5,5,10.1,9.9,14.9,15
		c3.1,3.2,5.9,6.7,8.7,10.1c2.5,3,4.9,6,7.2,9.1c2.1,2.8,4.2,5.7,6.1,8.7c2.3,3.5,4.6,6.9,6.6,10.6c3.3,6,6.6,12,9.6,18.1
		c1.8,3.6,2.9,7.5,4.4,11.2c2.4,6.3,4.7,12.7,6.2,19.4c0.1,0.6,0.5,1.1,0.8,1.7c0.3,0.7,0.6,1.4,0.8,2.1c0.7,2.9,1.3,5.8,1.9,8.7
		c0.5,2.6,1,5.3,1.5,8c0.4,2.3,0.9,4.6,1.3,6.9c0.1,0.5,0.3,1,0.3,1.4c-0.2,4.7,1.4,9.4,0.9,14.1c-0.1,0.9,0.3,1.9,0.4,2.8
		c0.1,1,0.3,1.9,0.3,2.9c0,5.8,0,11.6,0,17.4c0,1.2-0.4,2.3-0.5,3.5c-0.1,0.7-0.2,1.4-0.3,2.1c0,2.1,0,4.2,0,6.3
		c0,1.1-0.3,2.2-0.5,3.3c0,0.3-0.2,0.5-0.3,0.8c-0.3,3-0.6,5.9-0.9,8.9c-0.1,1-0.3,1.9-0.5,2.9c-0.1,0.5-0.3,0.9-0.3,1.4
		c0.2,3.8-1.5,7.3-2.2,11c-0.2,1.4-0.7,2.7-1.1,4c-1.6,5.2-3.4,10.3-4.8,15.5c-1.5,5.6-3.8,10.8-6.1,16.1c-2.5,5.6-5.3,11.1-8,16.6
		c-0.8,1.7-1.6,3.5-2.6,5.2c-0.8,1.4-1.9,2.6-2.7,3.9c-1.4,2.4-2.7,4.8-4,7.2c-0.7,1.1-1.5,2.2-2.2,3.3c-2,2.8-4,5.6-6.1,8.4
		c-1.2,1.6-2.4,3.1-3.6,4.6c-2,2.3-4.1,4.6-6,6.9c-4,4.9-8.5,9.4-13.1,13.8c-3.1,2.9-6.4,5.5-9.6,8.2c-2,1.7-3.9,3.4-5.9,4.9
		c-3.7,2.8-7.5,5.5-11.3,8.2c-2.1,1.5-4.1,3.1-6.3,4.5c-7.5,4.9-15.7,8.7-23.7,12.7c-2.7,1.3-5.6,2.3-8.4,3.5
		c-3.7,1.4-7.3,2.9-11,4.2c-4.2,1.5-8.5,3-12.8,4.2c-3.7,1.1-7.4,1.9-11.1,2.8c-2.7,0.6-5.4,1.2-8.1,1.6c-2.9,0.5-5.9,0.7-8.9,1
		c-3.7,0.5-7.4,1-11.1,1.5c-0.8,0.1-1.7,0.2-2.5,0.2c-10.3,0-20.7,0-31,0c-1.3,0-2.6-0.4-3.9-0.6c-0.7-0.1-1.4-0.2-2.1-0.2
		c-2.3-0.1-4.6,0.2-6.8-0.8c-0.5-0.2-1.1,0-1.7-0.1c-1.2-0.2-2.5-0.4-3.7-0.6c-0.3-0.1-0.7-0.2-1-0.2c-5.8-0.2-11.4-1.7-16.9-3.3
		c-3.5-1-7.1-1.8-10.7-2.8c-1.6-0.5-3.2-1.4-4.8-2c-1.4-0.5-2.9-0.8-4.4-1.3c-2-0.7-3.9-1.4-5.8-2.1c-7.6-2.8-14.9-6.2-22.1-9.8
		c-2.9-1.5-5.7-3.4-8.6-5c-2-1.2-4.1-2.2-6.2-3.4c-0.4-0.2-0.8-0.5-1.2-0.9c-1.1-1.1-2.4-1.8-3.8-2.5c-1.7-0.8-3.1-2.1-4.6-3.2
		c-2.5-1.9-4.9-3.9-7.4-5.7c-3.7-2.8-7.1-6-10.7-8.9c-4.9-4-9.2-8.7-13.7-13.2c-2.7-2.7-5-5.9-7.5-8.9c-1.7-2.1-3.6-4.1-5.2-6.3
		c-3.2-4.3-6.4-8.6-9.3-13c-2.6-3.9-4.6-8.2-7.1-12.2c-4-6.3-7-13.2-10.5-19.7c-1.3-2.5-1.9-5.3-2.9-8c-0.9-2.6-1.9-5.2-2.8-7.8
		c-1.1-3.6-2.2-7.2-3.1-10.8c-1-3.6-1.8-7.3-2.7-10.9c-0.5-1.8-1.2-3.5-1.8-5.3c-0.1-0.4-0.3-0.8-0.3-1.2c-0.4-2.7-0.4-5.6-1.1-8.2
		c-0.9-3.2-0.2-6.5-1.4-9.6c-0.3-0.7-0.2-1.5-0.2-2.3C85.9,375.7,85.9,368.8,85.9,362z M290.9,223.9c-1,0.7-1.8,1.2-2.5,1.8
		c-6.4,5.4-13,10.6-19.2,16.2c-13,11.7-24.3,25-33.3,40.1c-6.5,10.9-12.6,22-18.1,33.4c-0.4,0.8-0.7,1.6-1.2,2.6
		c25,12.5,49.8,25,74.9,37.6C291.2,311.6,291,267.9,290.9,223.9z M299.4,224c-0.2,43.9-0.3,87.6-0.5,131.6
		c25.1-12.6,49.9-25.1,74.7-37.6c-0.3-0.6-0.4-1-0.6-1.4c-3.3-6.5-6.6-13.1-10-19.5c-5.8-10.7-11.9-21.3-19.4-31
		c-12.3-15.9-27.1-29.3-43-41.4C300.3,224.5,299.9,224.3,299.4,224z M290.9,363.6c-25.8-12.9-51.5-25.9-77.5-39
		c-8.9,16.9-12.3,34.8-11.2,53.7c29.6,14.9,59.1,29.8,88.7,44.8C290.9,403.1,290.9,383.5,290.9,363.6z M299.4,423.2
		c29.8-15,59.3-30,88.6-44.8c1.4-17.6-4.7-45.5-11.5-53.6c-25.7,12.9-51.4,25.9-77.1,38.8C299.4,383.5,299.4,403.1,299.4,423.2z
		 M202.2,386.9c0,1.3-0.1,2.3,0,3.4c0.3,4,0.7,7.9,1.1,11.9c0.9,8.6,2.7,17,5.5,25.2c4.1,12.1,10.9,22.2,21,30.1
		c5,3.9,10.5,7.1,16.2,10c11.2,5.7,22.4,11.3,34.2,15.5c3.4,1.2,6.8,2.3,10.6,2.8c0.2-18.4,0.3-36.8,0.5-55.2
		C261.7,415.9,232,401.4,202.2,386.9z M387.7,386.9c-29.8,14.6-59.3,29-88.8,43.4c0.2,18.5,0.3,36.8,0.5,55.6
		c3.7-1.1,7.1-1.9,10.5-3.1c14-5,27.3-11.6,40.3-18.7c15.6-8.5,26.3-21.1,31.6-38.2c3.4-10.8,5.1-21.8,5.9-33
		C387.8,391,387.7,389.2,387.7,386.9z M292.8,488.6c0,7.1,0,13.9,0,20.8c1.7,0,3.2,0,4.8,0c0-7,0-13.8,0-20.8
		C295.9,488.6,294.4,488.6,292.8,488.6z"/>
	<path class="st0" d="M281.7,691.3c-2.8,0-5.3,0-7.9,0c0-18.6,0-37.2,0-55.9c3.6,0,7.3,0,11.1,0c2.9,10.5,5.7,21.1,8.6,31.6
		c0.1,0,0.2,0,0.3,0c0-10.5,0-21,0-31.6c2.7,0,5.1,0,7.8,0c0,18.5,0,37.1,0,55.9c-2.9,0-5.9,0-9,0c-3.5-12.9-7.1-25.9-10.6-38.9
		c-0.1,0-0.2,0-0.3,0C281.7,665.3,281.7,678.2,281.7,691.3z"/>
	<path class="st0" d="M341.1,691.4c0-18.9,0-37.5,0-56.2c4.5,0,8.9,0,13.3,0c1.4,0,2.8,0.1,4.1,0.4c5.4,1.1,7.9,3.5,8.7,9
		c0.4,2.9,0.4,5.8,0.2,8.7c-0.3,3.4-1.7,6.3-4.9,8.1c0.2,0.2,0.2,0.5,0.4,0.5c3.3,1.7,5,4.5,5.3,8c0.3,3.8,0.5,7.7,0,11.5
		c-0.7,5.9-4.7,9.3-10.7,9.9c-1.4,0.1-2.8,0.1-4.2,0.1C349.3,691.4,345.3,691.4,341.1,691.4z M350.1,666.1c0,5.9,0,11.5,0,17.1
		c2,0,4,0.1,5.9,0c1.9-0.1,3.1-1.2,3.4-3.1c0.5-3.5,0.6-7.1-0.2-10.6c-0.3-1.6-1.4-2.7-3.1-2.9C354.2,666.3,352.2,666.2,350.1,666.1
		z M350.1,658.2c1.7-0.1,3.3-0.1,4.8-0.3c1.9-0.2,3.2-1.4,3.4-3.2c0.2-2.8,0.2-5.6,0-8.3c-0.1-1.7-1.3-2.8-3-3c-1.7-0.1-3.4,0-5.2,0
		C350.1,648.3,350.1,653.1,350.1,658.2z"/>
	<path class="st0" d="M232.5,635.3c4.4,0,8.6,0,13.1,0c3,18.6,6,37.2,9,55.9c-3.1,0-6,0-9,0c-0.5-3.3-1-6.5-1.6-9.8
		c-3.6,0-7.1,0-10.7,0c-0.5,3.3-1,6.5-1.5,9.8c-2.7,0-5.4,0-8.2,0C226.5,672.6,229.5,654,232.5,635.3z M238.8,647.3
		c-0.2,0-0.3,0-0.5,0c-1.3,8.7-2.6,17.4-3.9,26.1c2.9,0,5.5,0,8.3,0C241.4,664.6,240.1,656,238.8,647.3z"/>
	<path class="st0" d="M315,635.3c4.4,0,8.6,0,13.1,0c3,18.6,6,37.2,9,55.9c-3,0-5.9,0-9,0c-0.5-3.2-1-6.5-1.6-9.8c-3.6,0-7,0-10.7,0
		c-0.5,3.2-1,6.5-1.5,9.8c-2.7,0-5.4,0-8.2,0C309.1,672.6,312,654.1,315,635.3z M325.3,673.5c-1.3-8.9-2.6-17.6-3.9-26.2
		c-0.2,0-0.3,0-0.5,0c-1.3,8.7-2.6,17.4-3.9,26.2C319.8,673.5,322.4,673.5,325.3,673.5z"/>
	<path class="st0" d="M479.2,635.3c2.9,0,5.6,0,8.5,0c-1,3.5-2,6.9-3,10.3c-2.6,8.6-5.1,17.2-7.7,25.8c-0.3,1-0.4,2.2-0.5,3.3
		c0,4.8,0,9.6,0,14.5c0,0.7,0,1.4,0,2.1c-3,0-5.7,0-8.7,0c0-0.6-0.1-1.2-0.1-1.8c0-4.8,0-9.6,0-14.5c0-1.4-0.2-2.8-0.6-4.1
		c-3.3-11.3-6.7-22.7-10.1-34c-0.1-0.5-0.2-0.9-0.4-1.6c3.1,0,6.1,0,9.3,0c2.2,8.2,4.3,16.4,6.6,25.1
		C474.8,651.8,477,643.6,479.2,635.3z"/>
	<path class="st0" d="M216,643.2c0,16.2,0,32,0,48c-2.9,0-5.7,0-8.8,0c0-15.9,0-31.8,0-47.9c-3.2,0-6.1,0-9.1,0c0-2.7,0-5.3,0-8
		c8.9,0,17.9,0,27,0c0,2.5,0,5,0,7.8C222.1,643.2,219.2,643.2,216,643.2z"/>
	<path class="st0" d="M446.8,691.3c-3.1,0-5.9,0-8.8,0c0-16,0-31.8,0-48c-3.1,0-6.1,0-9.2,0c0-2.8,0-5.3,0-8c9,0,18,0,27,0
		c0,2.6,0,5.1,0,7.9c-3,0-6,0-9.1,0C446.8,659.4,446.8,675.2,446.8,691.3z"/>
	<path class="st0" d="M389.2,635.3c2.9,0,5.6,0,8.6,0c0,16,0,31.9,0,48c5,0,9.7,0,14.5,0c0,2.7,0,5.3,0,8c-7.7,0-15.4,0-23.1,0
		C389.2,672.5,389.2,653.9,389.2,635.3z"/>
	<path class="st0" d="M267.3,691.3c-2.9,0-5.7,0-8.5,0c0-18.6,0-37.2,0-55.9c2.8,0,5.6,0,8.5,0C267.3,653.9,267.3,672.5,267.3,691.3
		z"/>
	<path class="st0" d="M373.6,691.2c0-18.7,0-37.2,0-55.9c2.8,0,5.6,0,8.5,0c0,18.5,0,37.1,0,55.9
		C379.4,691.2,376.6,691.2,373.6,691.2z"/>
	<path class="st0" d="M424.9,691.3c-2.9,0-5.7,0-8.5,0c0-18.7,0-37.3,0-56c2.8,0,5.6,0,8.5,0C424.9,653.9,424.9,672.5,424.9,691.3z"
		/>
	<path class="st0" d="M297.5,509.4c-1.6,0-3.1,0-4.8,0"/>
	<path class="st0" d="M297.5,488.6"/>
	<path class="st0" d="M350.1,658.2c0-5.1,0-9.9,0-14.7"/>
	<path class="st0" d="M358.4,646.4c0.2,2.8,0.2,5.6,0,8.3"/>
</g>
</svg>