<?xml version="1.0" encoding="utf-8"?>
<!-- Generator: Adobe Illustrator 22.0.1, SVG Export Plug-In . SVG Version: 6.00 Build 0)  -->
<svg version="1.0" id="Lager_1" xmlns="http://www.w3.org/2000/svg" xmlns:xlink="http://www.w3.org/1999/xlink" x="0px" y="0px"
	 viewBox="0 0 595.3 841.9" style="enable-background:new 0 0 595.3 841.9;" xml:space="preserve">
<style type="text/css">
	.st0{fill:#50B585;}
</style>
<g>
	<path class="st0" d="M85.9,361.9c0-6.8,0-13.5,0-20.3c0-1.4,0.4-2.7,0.6-4.1c0.1-0.9,0.2-1.8,0.2-2.7c0-1.7-0.1-3.3,0.7-4.9
		c0.2-0.5,0.1-1.1,0.2-1.6c0.2-1,0.4-2,0.5-3.1c0.1-0.4,0.3-0.8,0.3-1.2c0-2.8,0.7-5.3,1.9-7.8c0.3-0.6,0.4-1.2,0.5-1.8
		c0.4-4.3,1.9-8.4,3-12.5c0.7-2.5,1.4-4.9,2.3-7.3c1.2-3.5,2.4-6.9,3.6-10.3c0.3-0.9,0.6-1.8,1-2.7c2.9-7.8,6.7-15.2,10.6-22.5
		c1.1-2.1,2.5-4,3.7-6c1-1.6,2-3.3,3-4.9c1.4-2.1,2.8-4.3,4.2-6.4c1.7-2.5,3.4-5,5.2-7.5c0.1-0.2,0.3-0.3,0.4-0.5
		c1.7-2.1,3.7-4,5.2-6.2c1.6-2.4,3.9-4.1,5.6-6.4c4.6-6.1,10.6-10.9,15.7-16.4c3-1.6,4.9-4.7,7.9-6.4c0.2-0.1,0.3-0.3,0.5-0.4
		c2.1-1.8,4.2-3.7,6.4-5.3c2.3-1.7,4.7-3.3,7.1-5c1.2-0.9,2.4-1.8,3.7-2.7c1.8-1.2,3.6-2.5,5.5-3.6c3.3-2,6.5-4.1,9.9-5.8
		c3.3-1.7,6.9-3,10.3-4.6c2.9-1.3,5.7-2.8,8.6-4.1c4-1.8,8-3.7,12.3-4.9c2.9-0.9,5.8-1.9,8.7-2.8c3-0.9,6-1.7,9-2.5
		c1.7-0.5,3.3-0.9,5-1.3c1.4-0.3,2.8-0.6,4.3-0.9c2.4-0.4,4.8-0.8,7.2-1.2c0.6-0.1,1.2-0.3,1.8-0.4c0.3-0.1,0.7-0.2,1-0.2
		c2.8-0.1,5.5-0.7,8.2-1c2.4-0.3,4.6-0.8,6.9-1.4c0.9-0.3,1.9-0.4,2.9-0.4c10.1,0,20.3,0,30.4,0c1.2,0,2.3,0.4,3.5,0.6
		c0.7,0.1,1.5,0.3,2.3,0.2c3.1-0.3,6,0.9,9,1.5c0.3,0.1,0.5,0.3,0.8,0.3c2.3,0,4.5,0.4,6.8,0.9c2.6,0.6,5.3,1,7.9,1.5
		c1.7,0.3,3.4,0.6,5.1,1c3.1,0.7,6.2,1.5,9.3,2.4c4.9,1.4,9.8,3,14.7,4.6c2.3,0.8,4.5,1.8,6.7,2.7c3.6,1.6,7.2,3.4,10.9,5
		c2.9,1.3,5.8,2.5,8.6,4c3.1,1.6,6,3.5,9,5.2c2.7,1.6,5.5,3.3,8.2,4.9c0.9,0.6,1.8,1.3,2.7,1.9c1.1,0.8,2.2,1.5,3.2,2.3
		c2.5,1.9,5.1,3.9,7.6,5.9c1.5,1.2,2.9,2.4,4.3,3.6c0.4,0.4,0.9,0.8,1.4,0.9c1.7,0.3,2.7,1.6,3.9,2.7c5.7,5.7,11.5,11.4,17.2,17.2
		c2.3,2.4,4.2,5.1,6.3,7.7c1.4,1.7,2.8,3.4,4.2,5.2c2.8,3.8,5.6,7.6,8.3,11.4c2.6,3.8,5,7.7,7.5,11.5c3.8,5.9,6.6,12.3,9.8,18.5
		c1.1,2.2,1.8,4.7,2.7,6.9c2.4,5.6,4.4,11.4,6.1,17.2c0.6,2.1,1.2,4.3,1.7,6.4c0.1,0.2,0,0.4,0.1,0.6c2.4,4,2.4,8.8,3.8,13.1
		c0.7,2.2,0.7,4.6,1.2,7c0.4,2.3,0.9,4.6,1.3,6.9c0.1,0.4,0.2,0.8,0.2,1.2c-0.2,4.5,1.4,8.9,1,13.5c-0.1,1.3-0.1,2.6,0.5,3.9
		c0.3,0.7,0.3,1.6,0.3,2.5c0,5.9,0,11.9,0,17.8c0,1.1-0.4,2.2-0.5,3.3c-0.1,0.7-0.3,1.4-0.3,2c0,2.1,0.1,4.2,0,6.3
		c-0.1,1.2-0.4,2.3-0.6,3.5c-0.1,0.9-0.1,1.8-0.3,2.7c-0.2,1.4-0.4,2.7-0.6,4.1c-0.1,0.6-0.1,1.2-0.2,1.9c-0.2,1.4-0.4,2.7-0.7,4.1
		c0,0.3-0.2,0.5-0.2,0.8c0.1,4.2-1.5,8-2.4,12c-0.4,1.5-0.7,3.1-1,4.7c-0.1,0.3-0.1,0.7-0.2,1c-2.3,4.3-3.1,9.1-4.5,13.6
		c-1.1,3.7-2.7,7.1-3.9,10.7c-2.4,7.1-6,13.6-9.3,20.3c-1.1,2.2-2.5,4.3-3.5,6.6c-0.6,1.4-1.9,2.5-2.8,3.9c-1.3,2.2-2.5,4.6-3.8,6.9
		c-0.6,1.1-1.3,2.1-2.1,3.1c-2.1,3-4.3,6-6.5,8.9c-1.4,1.9-3.1,3.6-4.5,5.5c-2.3,3.2-5.4,5.7-7.7,8.8c-3.3,4.4-7.3,8.1-11.3,11.7
		c-2.3,2.2-4.7,4.4-7.1,6.4c-3.7,3.1-7.6,6.1-11.5,9c-4.4,3.3-8.9,6.4-13.4,9.5c-7.5,5-15.8,8.8-23.8,12.9c-2.8,1.4-5.7,2.4-8.6,3.5
		c-3.5,1.4-7,2.9-10.6,4.1c-4.3,1.4-8.6,3-13,4.3c-2.7,0.8-5.5,1.3-8.3,2c-1.6,0.4-3.2,0.9-4.8,1.3c-0.1,0-0.3,0.1-0.4,0.1
		c-2.7,0.4-5.5,0.7-8.2,1.1c-0.7,0.1-1.5,0.3-2.2,0.4c-0.3,0.1-0.7,0.2-1,0.2c-3.4-0.1-6.7,1.3-10.1,1.1c-1.1-0.1-2.3,0.3-3.5,0.5
		c-0.9,0.1-1.8,0.3-2.7,0.3c-10.6,0-21.2,0-31.8,0c-0.8,0-1.6,0-2.3-0.2c-1.8-0.7-3.7-0.5-5.6-0.6c-1.4-0.1-2.7-0.4-4.1-0.6
		c-0.7-0.1-1.4-0.1-2.1-0.2c-1.2-0.2-2.5-0.4-3.7-0.6c-0.5-0.1-1.1-0.2-1.6-0.2c-1.5-0.2-3-0.5-4.5-0.7c-0.3,0-0.6-0.1-0.8-0.1
		c-2.6,0.1-4.9-0.9-7.3-1.5c-2.7-0.7-5.4-1.3-8.1-2c-2.3-0.6-4.8-1-7-2.1c-2.1-1.1-4.4-1.8-6.6-2.6c-3.1-1-6.2-2-9.2-3.1
		c-2-0.7-3.9-1.7-5.9-2.5c-4.8-2-9.6-4.3-14.2-6.7c-1.7-0.9-3.3-2-5.1-2.8c-1.3-0.6-2.6-1-3.6-2.1c-0.4-0.4-1.1-0.6-1.6-0.9
		c-0.7-0.4-1.3-0.8-1.9-1.2c-0.1,0-0.1-0.1-0.2-0.1c-2.9-1.1-4.8-3.8-7.7-4.8c-0.4-0.1-0.7-0.4-1-0.7c-2.9-2.1-5.8-4.1-8.6-6.2
		c-1.6-1.2-3.1-2.4-4.6-3.6c-2.6-2.2-5-4.7-7.7-6.7c-4.9-3.8-9.2-8.3-13.5-12.8c-3-3.1-5.7-6.6-8.5-9.9c-0.3-0.4-0.6-0.8-0.9-1.1
		c-2.2-2.1-3.9-4.7-5.7-7.2c-1.7-2.4-3.6-4.6-5.2-7c-2.6-3.6-5-7.3-7-11.3c-1.2-2.4-2.8-4.6-4.1-7c-1.8-3.3-3.4-6.6-5.1-9.9
		c-1.3-2.4-2.6-4.8-3.8-7.3c-1.1-2.5-2.1-5.1-3-7.7c-0.7-1.8-1.3-3.7-1.8-5.5c-1.1-3.4-2.2-6.7-3.1-10.1c-1.3-4.7-2.4-9.4-3.6-14.1
		c-0.1-0.5-0.3-0.9-0.5-1.4c-1.1-2.6-1.8-5.3-2-8.2c-0.2-2.7-0.9-5.3-1.4-7.9c-0.1-0.8-0.2-1.5-0.2-2.3c-0.1-1.6,0.1-3.3-0.6-4.9
		c-0.3-0.6-0.2-1.5-0.2-2.3C85.9,375.8,85.9,368.8,85.9,361.9z M354.7,429.1c1.1-0.8,1.7-1.2,2.3-1.7c3.6-3,7.2-6,10.8-9
		c7.7-6.3,14.4-13.6,20.1-21.7c8.5-12,12.6-25.5,12.9-40.1c0.1-6.4-0.2-12.7-1.3-19c-0.9-5.1-2.2-10.1-4.6-14.6
		c-4-7.6-9.6-13.9-16.7-18.7c-12.4-8.6-26.2-11.7-41.1-9.1c-13.4,2.3-24.2,9.2-32.3,20.2c-1.1,1.5-1.6,3.1-1.6,5
		c0.1,17.9,0.1,35.7,0,53.6c0,2.2,0.6,3.8,2.2,5.3c16,15.9,32,32,48,48C353.8,427.7,354.1,428.4,354.7,429.1z M239.7,429
		c0.7-0.6,1.2-1.1,1.7-1.5c2-2,4.1-4,6.1-6.1c14.1-14.1,28.2-28.2,42.4-42.3c1.3-1.3,1.9-2.7,1.9-4.6c-0.1-18.4-0.1-36.9,0-55.3
		c0-1.6-0.5-2.8-1.4-4c-0.3-0.4-0.7-0.7-1-1.1c-5.8-7.4-13.1-13.1-21.7-16.9c-2.4-1.1-4.9-2-7.6-2.2c-2.2-0.2-4.3-0.5-6.5-0.5
		c-6.3-0.2-12.6-0.3-18.7,1.4c-8.6,2.4-16.2,6.8-22.7,12.8c-6.2,5.7-10.9,12.5-14.2,20.2c-1.8,4.1-3,8.4-3.4,12.9
		c-0.5,7.2-0.5,14.5,0.3,21.7c0.8,7.2,2.6,14.1,5.3,20.7c3.8,9.2,9.7,17,16.4,24.3c5.7,6.2,12.1,11.5,18.5,17
		C236.6,426.5,238.1,427.7,239.7,429z M345.6,435.9c-14-14.1-27.8-27.9-41.6-41.7c-0.1-0.1-0.4-0.1-0.7-0.2c0,26,0,51.9,0,78.1
		C316.8,459.1,330.5,446.8,345.6,435.9z M291.7,471.6c0-25.5,0-50.9,0-76.4c0-0.3-0.1-0.5-0.1-0.8c0-0.1-0.1-0.1-0.1-0.2
		c-0.1,0-0.1-0.1,0,0c-14.1,14.1-28.1,28.1-42.2,42.2C263.7,447.3,278.8,458,291.7,471.6z"/>
	<path class="st0" d="M293.9,691.3c-3.1,0-5.9,0-8.8,0c0-18.6,0-37.2,0-55.9c0.5-0.1,1-0.2,1.5-0.2c4.3,0,8.5,0,12.8,0
		c1.4,0,2.8,0.2,4.1,0.5c3.9,1,6.4,3.6,7.3,7.5c0.3,1.4,0.5,2.9,0.5,4.3c0,2.9-0.1,5.7-0.4,8.6c-0.3,3.1-1.8,5.5-4.5,7.2
		c-0.2,0.1-0.3,0.3-0.5,0.5c4,2.1,5.2,5.8,5.3,10c0.1,2.5,0,5,0,7.5c0,3.3-0.1,6.5,0.9,9.8c-3.1,0-6,0-9.1,0
		c-0.2-1.4-0.5-2.8-0.5-4.1c-0.1-3.6,0-7.3-0.1-10.9c0-1.4-0.1-2.8-0.5-4.1c-0.4-1.9-1.6-3.2-3.7-3.4c-1.4-0.1-2.9-0.2-4.5-0.3
		C293.9,676.1,293.9,683.6,293.9,691.3z M294.2,660.4c1.3,0,2.6,0.1,3.9,0c2.3-0.1,3.6-1.2,4.1-3.4c0.2-0.9,0.4-1.9,0.4-2.9
		c-0.1-2.6-0.1-5.1-0.4-7.7c-0.3-2-1.6-3-3.6-3.1c-1.5-0.1-3,0-4.7,0"/>
	<path class="st0" d="M175.4,635.3c5.4,0,10.8-0.3,16,0.1c6.3,0.5,10,4.4,10.6,11.6c0.1,0.9,0,1.8,0,2.7c0,9.4,0,18.9,0,28.3
		c0,1.4-0.1,2.8-0.4,4.1c-1.2,5.8-4.9,8.8-10.2,9.1c-5.3,0.4-10.6,0.1-16,0.1C175.4,672.7,175.4,654.1,175.4,635.3z M184.2,643.2
		c-0.4,4.7-0.2,38.6,0.2,40.2c1.4,0,2.8,0,4.2,0c3-0.1,4.5-1.5,4.7-4.4c0-0.5,0-1,0-1.5c0-9.5,0-19,0-28.5c0-0.6,0-1.3-0.1-1.9
		c-0.4-2.6-1.8-3.8-4.3-3.9C187.4,643.2,185.9,643.2,184.2,643.2z"/>
	<path class="st0" d="M236.4,679.6c2.2-14.7,4.3-29.4,6.5-44.3c2.7,0,5.3,0,8.2,0c-2.9,18.6-5.7,37.2-8.6,55.7
		c-1.5,0.4-9.5,0.6-13.4,0.2c-2.9-18.5-5.7-37.1-8.6-55.9c3,0,5.9,0,9,0c2.2,14.8,4.4,29.6,6.5,44.4
		C236.2,679.7,236.3,679.6,236.4,679.6z"/>
	<path class="st0" d="M342.2,650.3c-3.1,0-5.7,0-8.4,0c-0.2-1.5-0.2-3-0.5-4.4c-0.4-2.3-1.7-3.4-4-3.5c-2.2-0.1-3.7,1-4.2,3.3
		c-0.7,2.9-0.2,5.7,1.5,8.2c1.3,1.8,2.8,3.4,4.4,5.1c1.7,1.8,3.7,3.4,5.4,5.2c2.8,2.9,4.8,6.3,5.4,10.4c0.5,3.4,0.4,6.8-0.7,10.1
		c-1.7,4.6-5.2,6.9-10,7.4c-1.9,0.2-3.9,0-5.8-0.3c-5.2-0.9-8.2-4.4-9.1-9.6c-0.4-2.4-0.4-4.8-0.6-7.6c1.6,0,3-0.1,4.3-0.1
		c1.3,0,2.6,0,4.2,0c0.1,0.8,0.1,1.4,0.1,2.1c0.1,1.3,0.1,2.5,0.2,3.8c0.3,2.1,1.4,3.2,3.3,3.4c2.8,0.3,4.4-0.7,5.2-2.8
		c0.7-2.2,0.4-4.3-0.3-6.3c-0.8-2.2-2.3-4-3.9-5.6c-1.9-1.9-3.9-3.6-5.8-5.5c-2.4-2.4-4.5-5-5.7-8.2c-1.6-4.4-1.6-8.9-0.2-13.3
		c1.5-4.6,4.9-7,9.6-7.6c2.3-0.3,4.7-0.3,7.1,0.4c4.4,1.3,6.9,4.4,7.8,8.7C341.9,645.7,342,647.9,342.2,650.3z"/>
	<path class="st0" d="M276.2,666.8c-4.1,0-7.9,0-11.7,0c-0.4,1.5-0.6,13.4-0.2,16.5c5,0,9.9,0,15.1,0c0,2.8,0,5.3,0,8
		c-8,0-15.9,0-23.9,0c0-18.7,0-37.2,0-56c8,0,15.9,0,23.9,0c0,2.6,0,5.1,0,7.9c-5.1,0-10.1,0-15.1,0c0,5.2,0,10.2,0,15.4
		c4,0,7.9,0,11.9,0C276.2,661.4,276.2,664,276.2,666.8z"/>
	<path class="st0" d="M387.9,635.3c3.1,0,6.1,0,9.3,0c2.2,8.2,4.3,16.4,6.6,25.2c2.3-8.7,4.5-16.9,6.6-25.2c2.8,0,5.6,0,8.5,0
		c-1,3.5-2,6.9-3,10.2c-2.6,8.6-5.1,17.2-7.7,25.8c-0.3,1-0.4,2.2-0.5,3.3c0,4.8,0,9.6,0,14.4c0,0.7,0,1.4,0,2.2c-2.9,0-5.7,0-8.7,0
		c0-0.5-0.1-1.1-0.1-1.7c0-4.8,0-9.6,0-14.4c0-1.4-0.2-2.8-0.6-4.1c-3.3-11.3-6.7-22.7-10.1-34C388.2,636.5,388.1,635.9,387.9,635.3
		z"/>
	<path class="st0" d="M378.1,691.3c-3.1,0-5.9,0-8.8,0c0-16,0-31.8,0-48c-3.1,0-6.1,0-9.2,0c0-2.8,0-5.3,0-8c9,0,18,0,27,0
		c0,2.6,0,5.1,0,7.9c-3,0-6,0-9.1,0C378.1,659.4,378.1,675.2,378.1,691.3z"/>
	<path class="st0" d="M216.6,691.3c-2.9,0-5.7,0-8.5,0c0-18.7,0-37.3,0-56c2.9,0,5.6,0,8.5,0C216.6,653.9,216.6,672.5,216.6,691.3z"
		/>
	<path class="st0" d="M356.2,691.3c-2.9,0-5.7,0-8.6,0c0-18.6,0-37.2,0-55.8c1.4-0.4,2.8-0.2,4.2-0.2c1.4,0,2.8,0,4.3,0
		C356.2,653.9,356.2,672.5,356.2,691.3z"/>
	<path class="st0" d="M302.2,646.4"/>
	<path class="st0" d="M298.6,643.2"/>
</g>
</svg>