<svg width="61" height="71" viewBox="0 0 61 71" fill="none" xmlns="http://www.w3.org/2000/svg">
<path d="M42.0667 40.7939C58.7862 38.7192 65.1498 2.64441 58.2614 0.306111C51.373 -2.03219 43.2026 9.42955 40.7714 20.9183C39.474 26.8681 39.5194 33.0398 40.9043 38.9692C39.7474 42.7102 38.8593 46.5319 38.2472 50.4039C37.2708 48.1062 36.1681 45.849 34.9591 43.6458C36.7991 41.3413 34.6204 36.2795 30.8274 27.913C26.7356 18.8977 14.9848 -0.362946 8.12298 3.8068C1.26116 7.97655 8.67431 25.2097 17.7548 32.9815C22.4026 37.0124 27.478 40.5032 32.8866 43.389C35.4919 47.8929 37.5739 52.6896 39.0908 57.6824C36.3245 54.8622 33.2818 52.3373 30.0104 50.1471C24.5834 40.9764 6.17004 30.2107 1.24787 35.2185C-3.95994 40.5101 8.32888 50.3093 16.0808 51.688C20.5416 52.4285 25.0855 52.4945 29.5653 51.884C33.3987 54.4907 36.8937 57.5787 39.9677 61.075C40.6277 64.012 40.9883 67.0104 41.0438 70.0227C41.0438 70.2468 41.1313 70.4616 41.287 70.62C41.4427 70.7785 41.6539 70.8675 41.8741 70.8675C42.0943 70.8675 42.3055 70.7785 42.4612 70.62C42.6169 70.4616 42.7044 70.2468 42.7044 70.0227C42.5591 64.3541 41.4558 58.7532 39.4429 53.4654C39.981 49.1766 40.8585 44.939 42.0667 40.7939Z" fill="#BBBEA0"/>
</svg>
