<svg width="53" height="64" viewBox="0 0 53 64" fill="none" xmlns="http://www.w3.org/2000/svg">
<path d="M33.4054 28.2264C27.2077 31.0806 21.079 37.4828 17.8359 41.2328C20.9196 32.3935 25.851 24.147 33.022 18.3244C43.518 17.736 58.4329 5.79657 50.9991 0.790705C44.4268 -3.63993 35.0635 11.7685 32.2296 16.7963C30.1573 18.366 28.2337 20.1302 26.4841 22.0656C27.6183 18.3014 28.2088 14.3889 28.2371 10.4511C28.2371 4.16747 22.4055 1.71284 19.1925 9.16456C16.5524 15.3121 18.7618 27.6643 19.6017 31.849C17.7782 35.2185 16.2491 38.745 15.0321 42.3877C14.3429 30.4395 9.1488 18.7284 4.40688 20.1072C-2.62632 22.1579 0.388525 34.8921 2.38694 42.941C3.98911 49.3827 9.37274 55.4469 11.4616 57.6161C11.2506 59.311 11.1084 61.0104 11.0309 62.6966C10.9921 63.8471 13.5031 63.3552 13.5375 62.4156C13.5591 61.8315 13.5935 61.2475 13.6366 60.6591C22.9051 62.8547 42.2389 57.6951 44.5861 53.2162C47.0282 48.5572 44.2631 46.8447 34.0212 48.2103C25.2524 49.3827 16.7936 56.4612 13.7529 59.2408C14.2863 54.2037 15.3048 49.2324 16.7936 44.3988C27.3197 45.9401 52.8985 35.6166 52.597 29.469C52.3084 23.0405 42.4499 24.0636 33.4054 28.2264Z" fill="#BBBEA0"/>
</svg>
