<?xml version="1.0" encoding="iso-8859-1"?>
<!-- Generator: Adobe Illustrator 18.1.1, SVG Export Plug-In . SVG Version: 6.00 Build 0)  -->
<svg version="1.1" id="Capa_1" xmlns="http://www.w3.org/2000/svg" xmlns:xlink="http://www.w3.org/1999/xlink" x="0px" y="0px"
	 viewBox="0 0 612 612" style="enable-background:new 0 0 612 612;" xml:space="preserve">
<g>
	<g>
		<path style="fill:#010002;" d="M374.544,301.104c2.04,0,3.06,1.02,3.06,3.06V413.1c0,1.635-1.02,2.448-3.06,2.448h-23.256
			c-1.632,0-2.448-0.813-2.448-2.448v-76.5l-15.3,5.511c-0.816,0.405-1.326,0.51-1.53,0.306s-0.51-0.306-0.918-0.306
			c-0.813-0.816-1.224-1.635-1.224-2.448l-3.063-18.972c0-1.227,0.612-2.244,1.836-3.063l33.051-15.912
			c0.405-0.408,0.813-0.612,1.224-0.612H374.544L374.544,301.104z M285.804,352.512c5.304,2.04,10.2,5.103,14.688,9.183
			c4.488,4.08,6.729,10.197,6.729,18.357c0,11.424-4.386,20.502-13.158,27.234c-8.772,6.729-20.502,10.098-35.19,10.098
			c-9.792,0-18.972-1.632-27.54-4.896c-1.632-0.816-2.244-1.836-1.836-3.063l2.448-18.972c0-0.816,0.408-1.632,1.224-2.448h2.448
			c8.976,3.266,17.544,4.896,25.704,4.896c4.896,0,8.874-1.122,11.934-3.366s4.59-4.998,4.59-8.262c0-4.08-1.632-7.143-4.896-9.183
			s-10.2-3.468-20.808-4.283c-1.632,0-2.448-1.021-2.448-3.061v-18.972c0-1.227,0.816-2.244,2.448-3.063
			c9.384-0.813,15.198-2.346,17.442-4.59s3.366-4.386,3.366-6.426c0-1.632-0.51-3.265-1.53-4.896s-4.794-2.445-11.322-2.445
			c-6.12,0-13.056,1.632-20.808,4.896c-1.224,0.408-2.244,0.408-3.06,0c-0.816,0-1.224-0.612-1.224-1.836l-2.448-18.972
			c-0.408-0.816,0-1.836,1.224-3.062c9.384-4.08,20.196-6.12,32.436-6.12c11.424,0,20.604,2.448,27.54,7.344
			s10.404,11.22,10.404,18.972C304.164,337.416,298.044,346.392,285.804,352.512z M447.372,170.136c0-3.672-1.836-5.508-5.508-5.508
			H413.1v13.464c0,6.936-2.346,13.566-7.036,19.89c-4.691,6.324-12.749,9.486-24.176,9.486c-11.832,0-19.99-3.162-24.479-9.486
			c-4.488-6.324-6.732-12.954-6.732-19.89v-13.464h-88.74v13.464c0,6.936-2.244,13.566-6.732,19.89s-12.648,9.486-24.48,9.486
			s-19.992-3.162-24.48-9.486c-4.488-6.324-6.732-12.954-6.732-19.89v-13.464h-29.376c-3.672,0-5.508,1.836-5.508,5.508v56.916
			c0,3.672,1.836,5.508,5.508,5.508h271.728c3.672,0,5.508-1.836,5.508-5.508L447.372,170.136L447.372,170.136z M447.372,257.652
			c0-3.672-1.836-5.508-5.508-5.508H170.136c-3.672,0-5.508,1.836-5.508,5.508V452.88c0,3.672,1.836,5.508,5.508,5.508h271.728
			c3.672,0,5.508-1.836,5.508-5.508V257.652z M217.872,178.092c0,7.752,4.284,11.628,12.852,11.628
			c8.568,0,12.852-3.876,12.852-11.628v-13.464v-14.076c0-7.752-4.284-11.628-12.852-11.628c-8.568,0-12.852,3.876-12.852,11.628
			v14.076V178.092z M368.424,178.092c0,7.752,4.488,11.628,13.464,11.628c8.568,0,12.854-3.876,12.854-11.628v-13.464v-14.076
			c0-7.752-4.284-11.628-12.854-11.628c-8.976,0-13.464,3.876-13.464,11.628v14.076V178.092z M306,0
			c42.024,0,81.702,8.058,119.034,24.174s69.768,37.944,97.308,65.484s49.368,59.976,65.484,97.308S612,263.976,612,306
			c0,28.152-3.672,55.284-11.016,81.396c-7.347,26.109-17.646,50.487-30.906,73.134c-13.26,22.644-29.172,43.248-47.736,61.812
			c-18.562,18.564-39.168,34.479-61.812,47.736c-22.646,13.26-47.022,23.562-73.136,30.906C361.284,608.328,334.152,612,306,612
			s-55.284-3.672-81.396-11.016c-26.112-7.347-50.49-17.646-73.134-30.906s-43.248-29.172-61.812-47.736
			c-18.564-18.562-34.476-39.168-47.736-61.812c-13.26-22.646-23.562-47.022-30.906-73.135C3.672,361.284,0,334.152,0,306
			s3.672-55.284,11.016-81.396s17.646-50.49,30.906-73.134s29.172-43.248,47.736-61.812s39.168-34.476,61.812-47.736
			s47.022-23.562,73.134-30.906S277.848,0,306,0z"/>
	</g>
</g>
<g>
</g>
<g>
</g>
<g>
</g>
<g>
</g>
<g>
</g>
<g>
</g>
<g>
</g>
<g>
</g>
<g>
</g>
<g>
</g>
<g>
</g>
<g>
</g>
<g>
</g>
<g>
</g>
<g>
</g>
</svg>
