<?xml version="1.0" encoding="utf-8"?>
<!-- Generator: Adobe Illustrator 19.2.0, SVG Export Plug-In . SVG Version: 6.00 Build 0)  -->
<svg version="1.1" id="Lager_1" xmlns="http://www.w3.org/2000/svg" xmlns:xlink="http://www.w3.org/1999/xlink" x="0px" y="0px"
	 viewBox="0 0 420.9 297.6" style="enable-background:new 0 0 420.9 297.6;" xml:space="preserve">
<style type="text/css">
	.st0{fill:none;stroke:#E73A53;stroke-width:3;stroke-miterlimit:10;}
	.st1{fill:none;}
</style>
<g>
	<line class="st0" x1="135" y1="110.9" x2="293.7" y2="110.9"/>
	<path class="st0" d="M214.3,111.6"/>
	<path class="st0" d="M214.3,111.6"/>
	<line class="st0" x1="214.3" y1="111.6" x2="214.3" y2="214.4"/>
	<polyline class="st0" points="214.3,216.5 293.7,110.5 265.7,73.7 253.5,57.6 175.4,164.5 	"/>
	<polyline class="st0" points="214.3,216.6 135,110.6 175.2,57.8 253.2,164.6 	"/>
	<path class="st0" d="M165.2,220.2c-30.7-17.7-51.4-50.9-51.4-88.9c0-56.6,45.9-102.5,102.5-102.5s102.5,45.9,102.5,102.5
		c0,40.2-23.2,75-56.9,91.8"/>
	<line class="st0" x1="135" y1="110.9" x2="293.7" y2="110.9"/>
	<path class="st0" d="M214.3,111.6"/>
	<path class="st0" d="M214.3,111.6"/>
	<line class="st0" x1="214.3" y1="111.6" x2="214.3" y2="214.4"/>
	<polyline class="st0" points="214.3,216.5 293.7,110.5 265.7,73.7 253.5,57.6 175.4,164.5 	"/>
	<polyline class="st0" points="214.3,216.6 135,110.6 175.2,57.8 253.2,164.6 	"/>
	<path class="st0" d="M165.2,220.2c-30.7-17.7-51.4-50.9-51.4-88.9c0-56.6,45.9-102.5,102.5-102.5s102.5,45.9,102.5,102.5
		c0,40.2-23.2,75-56.9,91.8"/>
	<path id="SVGID_x5F_1_x5F_" class="st1" d="M142.6,221.1c0,0,2.6,1.5,7.4,3.6c19.8,8.8,76.2,28.3,132.7-3.6"/>
	<text>	<textPath  xlink:href="#SVGID_x5F_1_x5F_" startOffset="18.1455%">
<tspan  style="fill:#353535; font-family:'BebasNeueRegular'; font-size:21px;">Diversity</tspan>	</textPath>
</text>
</g>
</svg>
