<svg id="Lager_1" data-name="Lager 1" xmlns="http://www.w3.org/2000/svg" viewBox="0 0 213.69 224.05"><defs><style>.cls-1{fill:none;stroke:#776aa2;stroke-miterlimit:10;stroke-width:2px;}.cls-2{fill:#353535;}</style></defs><title>diversity_lila</title><line class="cls-1" x1="22.83" y1="85.72" x2="186.67" y2="85.72"/><path class="cls-1" d="M212.16,120.95" transform="translate(-107.41 -34.43)"/><path class="cls-1" d="M212.16,120.95" transform="translate(-107.41 -34.43)"/><line class="cls-1" x1="104.75" y1="86.52" x2="104.75" y2="192.68"/><polyline class="cls-1" points="104.75 194.75 186.67 85.29 157.8 47.32 145.19 30.74 64.57 141.07"/><polyline class="cls-1" points="104.75 194.91 22.83 85.44 64.31 30.89 144.93 141.22"/><path class="cls-1" d="M161.46,233a105.84,105.84,0,1,1,99.9,3.06" transform="translate(-107.41 -34.43)"/><line class="cls-1" x1="22.83" y1="85.72" x2="186.67" y2="85.72"/><path class="cls-1" d="M212.16,120.95" transform="translate(-107.41 -34.43)"/><path class="cls-1" d="M212.16,120.95" transform="translate(-107.41 -34.43)"/><line class="cls-1" x1="104.75" y1="86.52" x2="104.75" y2="192.68"/><polyline class="cls-1" points="104.75 194.75 186.67 85.29 157.8 47.32 145.19 30.74 64.57 141.07"/><polyline class="cls-1" points="104.75 194.91 22.83 85.44 64.31 30.89 144.93 141.22"/><path class="cls-1" d="M161.46,233a105.84,105.84,0,1,1,99.9,3.06" transform="translate(-107.41 -34.43)"/><path class="cls-2" d="M179,236.3c2.2.87,2.68,2.6,1.81,4.78L178,248.2c-.86,2.16-2.39,3.09-4.59,2.21l-3.31-1.31,5.6-14.11ZM173.94,249c1.13.45,2,0,2.47-1.33l2.88-7.26c.51-1.29.25-2.21-.9-2.67L176.7,237l-4.47,11.25Z" transform="translate(-107.41 -34.43)"/><path class="cls-2" d="M186.89,239l-4.5,14.49-1.62-.5,4.5-14.49Z" transform="translate(-107.41 -34.43)"/><path class="cls-2" d="M191.39,240.31l-.53,13.43,5.33-12.33,1.52.35-6.14,14.17-2.43-.55.58-15.44Z" transform="translate(-107.41 -34.43)"/><path class="cls-2" d="M205,249.52l-.19,1.51-3.68-.45-.66,5.36,4.52.56-.19,1.53-6.2-.76,1.85-15.07,6.2.76-.19,1.53-4.52-.56-.63,5.14Z" transform="translate(-107.41 -34.43)"/><path class="cls-2" d="M213.09,243.24c2.38,0,3.36,1.27,3.32,3.53l0,1.24c0,1.67-.63,2.7-1.94,3.09,1.38.43,1.88,1.57,1.86,3.2l0,2.36a3.8,3.8,0,0,0,.27,1.83l-1.71,0a4,4,0,0,1-.25-1.85l0-2.38c0-1.71-.77-2.27-2.17-2.29l-1.19,0-.11,6.48-1.69,0,.25-15.18Zm-.55,7.15c1.34,0,2.15-.4,2.18-2l0-1.45c0-1.37-.46-2.09-1.72-2.11l-1.65,0-.09,5.62Z" transform="translate(-107.41 -34.43)"/><path class="cls-2" d="M226.58,246.14l0,.41-1.6.16,0-.5c-.14-1.36-.73-2.11-1.94-2s-1.65,1-1.51,2.31c.34,3.39,5.44,3.21,5.86,7.46.23,2.29-.73,3.89-3,4.12s-3.54-1.15-3.76-3.44l-.09-.86,1.58-.16.09.95c.14,1.36.78,2.1,2,2s1.69-1,1.56-2.33c-.33-3.37-5.42-3.19-5.84-7.44-.23-2.33.7-3.88,3-4.11S226.35,243.85,226.58,246.14Z" transform="translate(-107.41 -34.43)"/><path class="cls-2" d="M230.9,241.65l2.87,14.9-1.66.32L229.24,242Z" transform="translate(-107.41 -34.43)"/><path class="cls-2" d="M240.45,254.94l-3.8-13.1-2.69.78-.43-1.48,7-2,.43,1.48-2.69.78,3.8,13.1Z" transform="translate(-107.41 -34.43)"/><path class="cls-2" d="M249.2,246.14l-6.8-7.67,1.61-.69,5.12,5.92-.76-7.79,1.47-.63.88,10.22,2.15,5-1.53.66Z" transform="translate(-107.41 -34.43)"/></svg>