<svg id="Lager_17" data-name="Lager 17" xmlns="http://www.w3.org/2000/svg" viewBox="0 0 1080 1080"><defs><style>.cls-1{fill:none;stroke:#00d790;stroke-miterlimit:10;stroke-width:0.3px;}.cls-2{fill:#00d790;}</style></defs><path class="cls-1" d="M493.69,420.39,438.24,561c-.44,1.1-.32,4.54.77,5l52,22"/><path class="cls-1" d="M491,587.93l-48.7-23.34c-1-.44-1.13-3.92-.72-5l52.11-139.18"/><path class="cls-1" d="M491,587.94l-45.4-24.73c-1-.41-1.05-3.93-.67-4.9l48.76-137.8"/><path class="cls-1" d="M491,588l-42.11-26.12c-.89-.38-1-4-.61-4.84l45.41-136.42"/><path class="cls-1" d="M491,588l-38.82-27.51c-.82-.35-.88-4-.56-4.79l42.07-135"/><path class="cls-1" d="M491,588l-35.52-28.91c-.75-.32-.81-4-.51-4.73L493.69,420.7"/><path class="cls-1" d="M491,588l-32.23-30.3c-.68-.29-.73-4-.45-4.68l35.37-132.25"/><path class="cls-1" d="M491,588l-28.93-31.69c-.62-.26-.65-4-.41-4.62l32-130.87"/><path class="cls-1" d="M491,588l-25.64-33.08c-.55-.23-.57-4-.35-4.57l28.68-129.48"/><path class="cls-1" d="M491,588l-22.35-34.47c-.47-.2-.49-4-.29-4.51l25.33-128.1"/><path class="cls-1" d="M491,588,472,552.17c-.41-.17-.41-4-.25-4.46l22-126.71"/><path class="cls-1" d="M491,588.05l-15.76-37.26c-.34-.15-.33-4-.19-4.4l18.64-125.33"/><path class="cls-1" d="M491,588.06l-12.46-38.65c-.28-.12-.26-4.07-.15-4.34l15.3-124"/><path class="cls-1" d="M491,588.07l-9.17-40a21.77,21.77,0,0,1-.09-4.29l11.95-122.56"/><path class="cls-1" d="M491,588.08l-5.88-41.43a31.33,31.33,0,0,1,0-4.23l8.6-121.18"/><path class="cls-1" d="M491,588.1l-2.58-42.83c-.07,0,0-4.11,0-4.18l5.26-119.79"/><line class="cls-1" x1="491" y1="588.11" x2="493.69" y2="421.36"/><path class="cls-1" d="M598.35,369.59H558.11s-30.62,46.79-43.71,78.76c-3.79,9.25-8.86,26.57-8.86,26.57"/><path class="cls-1" d="M598.64,369.59s-38.59.22-38.67.52c-.31,1.14-29.11,48.39-41.58,78.83-3.61,8.81-12.85,26-12.85,26"/><path class="cls-1" d="M598.92,369.59s-36.92.44-37.09,1.05c-.62,2.27-27.61,50-39.45,78.9-3.43,8.37-16.84,25.38-16.84,25.38"/><path class="cls-1" d="M599.2,369.59s-35.26.66-35.51,1.57c-.93,3.41-26.1,51.58-37.33,79-3.24,7.93-20.82,24.79-20.82,24.79"/><path class="cls-1" d="M599.49,369.59s-33.6.88-33.94,2.09c-1.24,4.55-24.6,53.17-35.2,79.05-3.06,7.49-24.81,24.19-24.81,24.19"/><path class="cls-1" d="M599.77,369.59s-31.94,1.1-32.35,2.61c-1.56,5.69-23.1,54.77-33.08,79.13-2.88,7-28.8,23.59-28.8,23.59"/><path class="cls-1" d="M600.06,369.59s-30.28,1.32-30.78,3.14c-1.87,6.82-21.6,56.36-30.95,79.19-2.71,6.61-32.79,23-32.79,23"/><path class="cls-1" d="M600.34,369.59s-28.62,1.54-29.2,3.66c-2.18,8-20.09,58-28.82,79.27-2.53,6.16-36.78,22.4-36.78,22.4"/><path class="cls-1" d="M600.63,369.59s-27,1.76-27.63,4.18c-2.49,9.1-18.59,59.56-26.69,79.34-2.35,5.73-40.77,21.81-40.77,21.81"/><path class="cls-1" d="M600.91,369.59s-25.3,2-26,4.71c-2.81,10.23-17.08,61.14-24.56,79.41-2.17,5.29-44.76,21.21-44.76,21.21"/><path class="cls-1" d="M601.19,369.59s-23.64,2.2-24.47,5.23c-3.12,11.37-15.58,62.74-22.44,79.49-2,4.84-48.74,20.61-48.74,20.61"/><path class="cls-1" d="M601.48,369.59s-22,2.42-22.9,5.75c-3.43,12.51-14.07,64.34-20.31,79.56-1.8,4.41-52.73,20-52.73,20"/><path class="cls-1" d="M601.76,369.59s-20.32,2.64-21.32,6.27c-3.74,13.65-12.57,65.94-18.18,79.64-1.62,4-56.72,19.42-56.72,19.42"/><path class="cls-1" d="M602.05,369.59s-18.66,2.86-19.74,6.8c-4.06,14.78-11.07,67.53-16.06,79.7-1.44,3.53-60.71,18.83-60.71,18.83"/><path class="cls-1" d="M602.33,369.59s-17,3.07-18.16,7.32c-4.37,15.92-9.57,69.13-13.93,79.78-1.26,3.08-64.7,18.23-64.7,18.23"/><path class="cls-1" d="M602.62,369.59s-15.34,3.29-16.59,7.84c-4.68,17.06-8.06,70.72-11.8,79.86-1.08,2.64-68.69,17.63-68.69,17.63"/><path class="cls-1" d="M602.9,369.59s-13.68,3.51-15,8.36c-5,18.2-6.56,72.32-9.67,79.93-.91,2.2-72.68,17-72.68,17"/><path class="cls-1" d="M603.18,369.59s-12,3.73-13.43,8.89c-5.3,19.33-5,73.91-7.54,80-.73,1.76-76.67,16.44-76.67,16.44"/><path class="cls-1" d="M603.47,369.59s-10.36,4-11.86,9.41c-5.61,20.46-3.55,75.51-5.42,80.07-.54,1.33-80.65,15.85-80.65,15.85"/><path class="cls-1" d="M603.75,369.59s-8.7,4.17-10.28,9.93c-5.92,21.6-2,77.11-3.29,80.15-.36.88-84.64,15.25-84.64,15.25"/><path class="cls-1" d="M604,369.59s-7,4.39-8.7,10.45c-6.24,22.74-.55,78.7-1.17,80.23-.18.44-88.63,14.65-88.63,14.65"/><path class="cls-1" d="M604.32,369.59s-5.38,4.61-7.12,11c-6.55,23.87,1,80.29,1,80.29l-92.62,14.06"/><path class="cls-1" d="M506.25,473s89.86-12.55,90.32-13.16c.62-.79-7-57.68-2.41-77.81,1-4.46,9.28-12.29,9.28-12.29"/><path class="cls-1" d="M507,471.09s87.1-11,88-12.26c1.23-1.6-5.94-58.91-3.86-75.35.32-2.56,11.43-13.59,11.43-13.59"/><path class="cls-1" d="M507.66,469.17s84.34-9.54,85.74-11.36c1.84-2.39-7.18-60.49-5.31-72.87-.7-.7,13.59-14.91,13.59-14.91"/><path class="cls-1" d="M508.37,467.25s81.57-8,83.44-10.46c2.46-3.19-7.07-61.85-6.75-70.39-1.53,1.19,15.74-16.22,15.74-16.22"/><path class="cls-1" d="M509.07,465.34s78.82-6.53,81.16-9.57c3.07-4-7-63.2-8.21-67.91-2.34,3.08,17.9-17.53,17.9-17.53"/><path class="cls-1" d="M509.78,463.42s76.06-5,78.86-8.66c3.69-4.79-6.85-64.57-9.65-65.45-3.16,5,20-18.84,20-18.84"/><path class="cls-1" d="M510.48,461.5s73.3-3.51,76.58-7.76c4.3-5.59-6.74-65.92-11.11-63-4,6.87,22.21-20.15,22.21-20.15"/><path class="cls-1" d="M511.19,459.59s70.54-2,74.28-6.87c4.91-6.38-7.4-67.88-12.55-60.49-5.71,8.18,24.36-21.46,24.36-21.46"/><path class="cls-1" d="M511.9,457.67s67.77-.5,72-6c5.53-7.18-7.22-69.09-14-58C563.6,404,596.4,370.91,596.4,370.91"/><path class="cls-1" d="M512.6,455.75s65,1,69.7-5.07c6.14-8-7-70.36-15.45-55.53-7,12.24,28.67-24.09,28.67-24.09"/><path class="cls-1" d="M513.31,453.84s62.26,2.51,67.4-4.17c6.76-8.78-6.85-71.66-16.9-53.07-7.67,14.2,30.83-25.39,30.83-25.39"/><path class="cls-1" d="M514,451.92s59.5,4,65.11-3.27c7.38-9.57-6.67-73-18.34-50.59-8.42,16.13,33-26.71,33-26.71"/><path class="cls-1" d="M514.72,450s56.74,5.52,62.82-2.38c8-10.37-6.51-74.28-19.8-48.11-9.17,18.06,35.14-28,35.14-28"/><path class="cls-1" d="M515.43,448.09s54,7,60.52-1.48c8.6-11.17-6.33-75.6-21.24-45.63C544.77,421,592,371.65,592,371.65"/><path class="cls-1" d="M516.13,446.17s51.22,8.53,58.24-.57c9.21-12-6.17-76.93-22.7-43.16-10.71,21.88,39.45-30.65,39.45-30.65"/><path class="cls-1" d="M516.84,444.26s48.46,10,55.94.32c9.83-12.77-6-78.26-24.14-40.69-11.49,23.8,41.6-31.95,41.6-31.95"/><path class="cls-1" d="M517.54,442.34s45.7,11.54,53.65,1.22C581.64,430,565.35,364,545.6,405.35c-12.27,25.71,43.76-33.26,43.76-33.26"/><path class="cls-1" d="M518.25,440.42s42.94,13.05,51.36,2.12c11-14.36-5.68-80.91-27-35.73-13.06,27.61,45.91-34.58,45.91-34.58"/><path class="cls-1" d="M519,438.51s40.17,14.55,49.06,3c11.67-15.15-5.52-82.24-28.49-33.25-13.84,29.51,48.07-35.89,48.07-35.89"/><path class="cls-1" d="M519.66,436.59s37.42,16.06,46.77,3.92c12.29-16-5.3-83.56-29.93-30.78-14.6,31.43,50.22-37.2,50.22-37.2"/><path class="cls-1" d="M520.37,434.67s34.66,17.57,44.48,4.82c12.9-16.75-5.2-84.92-31.39-28.31-15.41,33.33,52.38-38.51,52.38-38.51"/><path class="cls-1" d="M523.45,588s-6.11,1.07,4.62-41.21c13.09-51.6,25.42-66.24,25.42-66.24L654,472"/><path class="cls-1" d="M654,472s-97,8.16-97.34,10.38c-.42,2.46-10.89,16.19-23.36,65.34C523.08,588,523.45,588,523.45,588"/><path class="cls-1" d="M654,472s-93.41,7.85-94.17,12.29c-.84,4.91-9.46,17.75-21.31,64.44C528.82,587,523.45,588,523.45,588"/><path class="cls-1" d="M654,472s-89.85,7.54-91,14.19c-1.26,7.38-8,19.31-19.25,63.55C534.55,586,523.45,588,523.45,588"/><path class="cls-1" d="M654,472s-86.3,7.23-87.82,16.1c-1.69,9.83-6.6,20.87-17.2,62.65C540.29,585,523.45,588,523.45,588"/><path class="cls-1" d="M654,472s-82.75,6.93-84.65,18c-2.11,12.29-5.17,22.43-15.15,61.74C546,584,523.45,588,523.45,588"/><path class="cls-1" d="M654,472s-79.19,6.62-81.48,19.92c-2.53,14.74-3.74,24-13.09,60.84-7.66,30.2-36,35.16-36,35.16"/><path class="cls-1" d="M654,472s-75.64,6.31-78.31,21.82c-3,17.2-2.31,25.55-11,59.95C557.5,582,523.45,588,523.45,588"/><path class="cls-1" d="M654,472s-72.09,6-75.13,23.73c-3.38,19.66-.88,27.1-9,59C563.24,581,523.45,588,523.45,588"/><path class="cls-1" d="M654,472s-68.54,5.69-72,25.64c-3.8,22.11.55,28.66-6.93,58.15C569,580,523.45,588,523.45,588"/><path class="cls-1" d="M654,472s-65,5.38-68.79,27.54c-4.22,24.58,2,30.23-4.88,57.26C574.72,579,523.45,588,523.45,588"/><path class="cls-1" d="M654,472s-61.43,5.07-65.61,29.45c-4.64,27,3.41,31.78-2.83,56.36C580.45,578,523.45,588,523.45,588"/><path class="cls-1" d="M654,472s-57.88,4.76-62.44,31.36c-5.06,29.49,4.84,33.34-.77,55.45C586.19,577,523.45,588,523.45,588"/><path class="cls-1" d="M654,472s-54.32,4.45-59.27,33.27c-5.48,31.94,6.27,34.89,1.28,54.55C591.93,576,523.45,588,523.45,588"/><path class="cls-1" d="M654,472s-50.77,4.14-56.1,35.17c-5.9,34.41,7.7,36.46,3.34,53.66C597.66,575,523.45,588,523.45,588"/><path class="cls-1" d="M654,472s-47.22,3.83-52.92,37.08c-6.33,36.86,9.13,38,5.39,52.76-3.07,12.08-83,26.08-83,26.08"/><path class="cls-1" d="M654,472s-43.66,3.52-49.75,39c-6.75,39.32,10.56,39.57,7.44,51.86C609.14,573,523.45,588,523.45,588"/><path class="cls-1" d="M654,472s-40.11,3.21-46.58,40.89c-7.17,41.78,12,41.14,9.5,51-2,8.05-93.47,24.06-93.47,24.06"/><path class="cls-1" d="M654,472s-36.56,2.9-43.41,42.8C603,559.06,624,557.52,622.15,564.9c-1.54,6-98.7,23.05-98.7,23.05"/><path class="cls-1" d="M654,472s-33,2.59-40.23,44.71c-8,46.69,14.85,44.25,13.6,49.16-1,4-103.92,22.05-103.92,22.05"/><path class="cls-1" d="M654,472s-29.45,2.28-37.06,46.62c-8.44,49.14,16.28,45.81,15.66,48.26-.51,2-109.15,21-109.15,21"/><path class="cls-1" d="M654,472s-25.9,2-33.89,48.52c-8.86,51.61,17.72,47.37,17.72,47.37L523.45,588"/><path class="cls-1" d="M523.37,587.74s111.42-22,111.15-22.6a17.81,17.81,0,0,1-13.93-6.22c-5.08-5.8-7.66-17.18-3.36-39.36,8.7-44.76,34.28-47.32,34.28-47.32"/><path class="cls-1" d="M523.28,587.53s108.48-23.95,107.93-25.17a21.54,21.54,0,0,1-13.8-6c-5.65-5.48-7.76-16.28-3-37.83,9.38-43,34.66-46.13,34.66-46.13"/><path class="cls-1" d="M523.2,587.31s105.52-25.9,104.7-27.73c-.17-.36-7-.16-13.67-5.69-6.28-5.18-7.86-15.36-2.75-36.3,10-41.18,35-44.93,35-44.93"/><path class="cls-1" d="M523.12,587.1s102.57-27.87,101.47-30.29c-.22-.49-6.69-.61-13.54-5.43s-8-14.45-2.45-34.78C619.29,477.23,644,472.87,644,472.87"/><path class="cls-1" d="M523,586.89s99.61-29.83,98.24-32.86c-.28-.61-7.41.25-13.41-5.17-8.48-3.06-8.09-13.52-2.14-33.25,11.31-37.55,35.82-42.53,35.82-42.53"/><path class="cls-1" d="M523,586.68s96.67-31.79,95-35.43c-.33-.73-7.24,0-13.29-4.9-9.25-2.44-8.21-12.6-1.83-31.73,11.91-35.74,36.2-41.33,36.2-41.33"/><path class="cls-1" d="M522.87,586.47s93.71-33.75,91.79-38c-.39-.85-7.07-.18-13.16-4.64-10-1.81-8.35-11.66-1.53-30.2,12.47-33.91,36.59-40.13,36.59-40.13"/><path class="cls-1" d="M522.79,586.26s90.76-35.71,88.56-40.57c-.44-1-6.9-.39-13-4.37-10.81-1.19-8.5-10.73-1.23-28.68,13-32.09,37-38.93,37-38.93"/><path class="cls-1" d="M522.71,586.05s87.81-37.67,85.33-43.14c-.5-1.09-6.72-.6-12.9-4.11-11.59-.57-8.67-9.79-.92-27.15,13.5-30.27,37.36-37.73,37.36-37.73"/><path class="cls-1" d="M522.62,585.84s84.86-39.64,82.11-45.71c-.55-1.22-6.55-.81-12.77-3.84-12.37.05-8.85-8.86-.62-25.63,14-28.45,37.75-36.53,37.75-36.53"/><path class="cls-1" d="M522.54,585.63s81.91-41.6,78.88-48.28c-.61-1.34-6.38-1-12.65-3.58-13.15.68-9-7.91-.31-24.1,14.39-26.64,38.14-35.33,38.14-35.33"/><path class="cls-1" d="M522.46,585.42s78.95-43.56,75.65-50.85c-.66-1.46-6.2-1.24-12.52-3.32-13.93,1.31-9.27-7,0-22.56a86.39,86.39,0,0,1,38.52-34.14"/><path class="cls-1" d="M522.38,585.21s76-45.52,72.42-53.42c-.72-1.58-6-1.45-12.39-3-14.71,1.93-9.52-6.06.3-21,15.12-23.08,38.91-32.94,38.91-32.94"/><path class="cls-1" d="M522.3,585s73-47.47,69.19-56c-.77-1.71-5.76-2.76-12.26-2.8-15.7-.08-9.79-5.15.6-19.51,15.43-21.32,39.3-31.74,39.3-31.74"/><path class="cls-1" d="M522.21,584.78s70.1-49.44,66-58.54c-.83-1.83-5.66-2.83-12.13-2.53-16.56.77-10.09-4.27.9-18,15.7-19.6,39.69-30.54,39.69-30.54"/><path class="cls-1" d="M522.13,584.57s67.14-51.4,62.74-61.11c-.88-2-5.54-2.89-12-2.27-17.38,1.69-10.4-3.41,1.22-16.46,15.93-17.91,40.06-29.34,40.06-29.34"/><path class="cls-1" d="M522.05,584.36s64.19-53.36,59.51-63.68c-.94-2.07-5.4-2.95-11.88-2-18.17,2.65-10.75-2.59,1.52-14.94,16.15-16.26,40.45-28.14,40.45-28.14"/><path class="cls-1" d="M522,584.15s61.23-55.32,56.28-66.25c-1-2.19-5.24-3-11.75-1.74-18.93,3.68-11.12-1.8,1.82-13.41,16.35-14.66,40.84-26.94,40.84-26.94"/><path class="cls-1" d="M521.88,583.94s58.29-57.28,53.06-68.82c-1.05-2.31-5.06-3-11.62-1.47-19.64,4.73-11.5-1.08,2.13-11.89C582,488.65,606.67,476,606.67,476"/><path class="cls-1" d="M521.8,583.73s55.34-59.24,49.83-71.39c-1.1-2.43-4.86-3.11-11.49-1.21-20.31,5.81-11.9-.4,2.43-10.36,16.73-11.62,41.61-24.54,41.61-24.54"/><path class="cls-1" d="M521.72,583.52s75.48-88.19,35.23-74.9c-44.54,14.7,44.74-32.18,44.74-32.18"/><path class="cls-1" d="M642.74,609.79s-31.38,6.65-68.46,47.09c-89,97-83.84-10-83.84-10"/><path class="cls-1" d="M642.82,609s-20.52,4.9-48.37,29.43a223.78,223.78,0,0,0-18.8,18.69c-13.91,15.49-25.59,26.12-35.07,32.32-50.53,33-49.54-40.79-49.54-40.79"/><path class="cls-1" d="M642.91,608.17s-19.82,5.31-47.35,30.25A231.58,231.58,0,0,0,577,657.32C563.24,673,551.58,684,542.38,690c-49.08,32.07-50.74-39.63-50.74-39.63"/><path class="cls-1" d="M643,607.36s-19.11,5.7-46.33,31.08a240.16,240.16,0,0,0-18.3,19.09c-13.62,15.83-25.26,27.25-34.19,33.09-47.64,31.13-51.94-38.47-51.94-38.47"/><path class="cls-1" d="M643.09,606.55s-18.41,6.09-45.3,31.91a246.6,246.6,0,0,0-18.06,19.29c-13.47,16-25.09,27.8-33.75,33.47-46.2,30.19-53.14-37.31-53.14-37.31"/><path class="cls-1" d="M643.18,605.74s-17.71,6.48-44.28,32.73A256.56,256.56,0,0,0,581.1,658c-13.34,16.15-24.93,28.36-33.32,33.85-44.76,29.24-54.34-36.15-54.34-36.15"/><path class="cls-1" d="M643.27,604.93s-17,6.86-43.26,33.56a263.77,263.77,0,0,0-17.55,19.7c-13.19,16.32-24.76,28.92-32.88,34.23-43.31,28.3-55.54-35-55.54-35"/><path class="cls-1" d="M643.35,604.12s-16.3,7.23-42.22,34.39C596,643.9,590,650.6,583.82,658.41c-13,16.48-24.59,29.47-32.45,34.61-41.86,27.35-56.72-33.83-56.72-33.83"/><path class="cls-1" d="M643.44,603.31s-15.61,7.6-41.2,35.21c-5,5.42-11,12.21-17.06,20.1-12.9,16.65-24.42,30-32,35C512.75,720,495.25,661,495.25,661"/><path class="cls-1" d="M643.53,602.5s-14.91,8-40.18,36c-4.89,5.44-10.78,12.32-16.8,20.3-12.76,16.82-24.27,30.6-31.58,35.38-39,25.47-59.12-31.51-59.12-31.51"/><path class="cls-1" d="M643.62,601.69S629.4,610,604.46,638.55C599.7,644,593.87,651,587.91,659.06c-12.62,17-24.1,31.15-31.14,35.75-37.53,24.53-60.32-30.34-60.32-30.34"/><path class="cls-1" d="M643.71,600.88s-13.54,8.66-38.13,37.69c-4.64,5.48-10.41,12.54-16.31,20.71-12.47,17.14-23.93,31.71-30.7,36.13-36.09,23.59-61.52-29.18-61.52-29.18"/><path class="cls-1" d="M643.79,600.07s-12.85,9-37.1,38.52c-4.52,5.49-10.22,12.65-16.06,20.9-12.32,17.32-23.76,32.28-30.26,36.52-34.65,22.65-62.72-28-62.72-28"/><path class="cls-1" d="M643.88,599.26s-12.17,9.34-36.08,39.34c-4.39,5.51-10,12.77-15.8,21.11-12.19,17.48-23.6,32.83-29.83,36.9-33.2,21.7-63.92-26.87-63.92-26.87"/><path class="cls-1" d="M644,598.45s-11.5,9.68-35.05,40.17c-4.27,5.52-9.85,12.88-15.56,21.31-12,17.64-23.43,33.39-29.39,37.28C532.21,718,498.86,671.5,498.86,671.5"/><path class="cls-1" d="M644.06,597.64s-10.83,10-34,41c-4.15,5.54-9.66,13-15.31,21.52-11.89,17.81-23.27,34-29,37.66-30.32,19.82-66.31-24.55-66.31-24.55"/><path class="cls-1" d="M644.15,596.83s-10.17,10.32-33,41.82c-4,5.55-9.47,13.11-15,21.71-11.76,18-23.11,34.51-28.52,38C538.7,717.28,500.06,675,500.06,675"/><path class="cls-1" d="M644.24,596s-9.51,10.64-32,42.65c-3.9,5.56-9.28,13.21-14.8,21.91-11.61,18.14-22.94,35.07-28.08,38.43-27.43,17.93-68.71-22.23-68.71-22.23"/><path class="cls-1" d="M644.32,595.21s-8.85,10.95-31,43.47c-3.79,5.58-9.1,13.33-14.56,22.12-11.47,18.3-22.77,35.63-27.64,38.81-26,17-69.91-21.07-69.91-21.07"/><path class="cls-1" d="M644.41,594.4s-8.21,11.26-29.93,44.3c-3.67,5.58-8.91,13.44-14.31,22.32-11.32,18.47-22.6,36.19-27.21,39.19-24.54,16-71.1-19.91-71.1-19.91"/><path class="cls-1" d="M644.5,593.59s-7.58,11.56-28.91,45.13c-3.55,5.59-8.72,13.55-14.05,22.52-11.18,18.63-22.44,36.74-26.78,39.57-23.09,15.1-72.29-18.75-72.29-18.75"/><path class="cls-1" d="M644.59,592.78s-7,11.85-27.88,46c-3.44,5.6-8.54,13.67-13.81,22.72-11,18.8-22.28,37.31-26.34,40-21.65,14.15-73.49-17.59-73.49-17.59"/><path class="cls-1" d="M644.68,592s-6.33,12.15-26.86,46.78c-3.33,5.61-8.35,13.77-13.56,22.92-10.89,19-22.11,37.87-25.9,40.34-20.21,13.21-74.69-16.43-74.69-16.43"/><path class="cls-1" d="M644.77,591.16s-5.72,12.44-25.84,47.6c-3.21,5.62-8.16,13.89-13.31,23.13-10.74,19.13-21.94,38.42-25.46,40.72-18.77,12.27-75.89-15.27-75.89-15.27"/><path class="cls-1" d="M644.85,590.35s-5.11,12.72-24.81,48.43c-3.1,5.62-8,14-13,23.33-10.61,19.29-21.78,39-25,41.1-17.32,11.32-77.09-14.11-77.09-14.11"/><path class="cls-1" d="M644.94,589.54s-4.51,13-23.78,49.26c-3,5.63-7.79,14.11-12.81,23.52-10.46,19.47-21.61,39.55-24.59,41.49-15.88,10.38-78.29-12.95-78.29-12.95"/><path class="cls-1" d="M645,588.73S641.1,602,622.27,638.81c-2.88,5.64-7.6,14.23-12.56,23.73-10.31,19.63-21.44,40.1-24.15,41.87-14.44,9.44-79.49-11.79-79.49-11.79"/><path class="cls-1" d="M645.12,587.92s-3.36,13.56-21.74,50.91c-2.77,5.64-7.41,14.34-12.31,23.93C600.9,682.55,589.8,703.42,587.36,705c-13,8.49-80.68-10.63-80.68-10.63"/><path class="cls-1" d="M645.21,587.11s-2.79,13.83-20.72,51.73c-2.67,5.65-7.22,14.45-12,24.14-10,20-21.12,41.22-23.28,42.63-11.55,7.55-81.88-9.47-81.88-9.47"/><path class="cls-1" d="M645.3,586.3s-2.24,14.1-19.69,52.56c-2.57,5.65-7,14.56-11.81,24.33-9.89,20.13-20.95,41.78-22.84,43-10.11,6.61-83.08-8.31-83.08-8.31"/><path class="cls-1" d="M645.38,585.49s-1.69,14.37-18.66,53.39c-2.46,5.65-6.84,14.67-11.56,24.53-9.74,20.29-20.78,42.34-22.4,43.4-8.67,5.66-84.28-7.15-84.28-7.15"/><path class="cls-1" d="M645.47,584.68s-1.16,14.64-17.64,54.21c-2.36,5.67-6.65,14.79-11.3,24.74-9.6,20.46-20.62,42.9-22,43.78-7.22,4.72-85.48-6-85.48-6"/><path class="cls-1" d="M645.56,583.87s-.63,14.91-16.61,55c-2.26,5.67-6.47,14.9-11.06,24.94-9.46,20.62-20.45,43.45-21.54,44.16-5.77,3.78-86.67-4.83-86.67-4.83"/><path class="cls-1" d="M645.65,583.06s-.12,15.18-15.59,55.87c-2.16,5.67-6.28,15-10.81,25.14-9.31,20.78-20.28,44-21.1,44.54-4.33,2.83-87.87-3.67-87.87-3.67"/><path class="cls-1" d="M645.74,582.25s.38,15.45-14.57,56.69c-2.06,5.68-6.09,15.12-10.56,25.34-9.16,21-20.12,44.58-20.66,44.93-2.88,1.89-89.06-2.51-89.06-2.51"/><path class="cls-1" d="M645.82,581.44s.87,15.71-13.54,57.52c-2,5.68-5.9,15.23-10.3,25.54-9,21.12-20,45.13-20.23,45.31-1.44.94-90.26-1.35-90.26-1.35"/><path class="cls-1" d="M645.91,580.63s1.35,16-12.51,58.34c-5.68,17.35-29.85,71.44-29.85,71.44l-91.46-.19"/><path class="cls-1" d="M512.05,710.22s88.54-.12,88.4-.92c-.11-.64,23.4-54.42,28.92-71.28,13.48-41.19,16.54-57.39,16.54-57.39"/><path class="cls-1" d="M512,710.23s85.61-.44,85.34-2c-.22-1.28,22.63-54.75,28-71.13,13.1-40,20.57-56.43,20.57-56.43"/><path class="cls-1" d="M512,710.23s82.68-.75,82.26-3.16c-.33-1.91,21.87-55.07,27.07-71,12.71-38.83,24.6-55.47,24.6-55.47"/><path class="cls-1" d="M511.94,710.24s79.76-1.07,79.2-4.28c-.44-2.55,21.1-55.4,26.15-70.82,12.32-37.65,28.62-54.51,28.62-54.51"/><path class="cls-1" d="M511.9,710.25s76.84-1.39,76.14-5.4c-.55-3.19,20.33-55.73,25.22-70.66,11.94-36.48,32.65-53.56,32.65-53.56"/><path class="cls-1" d="M511.86,710.25s73.91-1.7,73.08-6.51c-.67-3.83,19.56-56.06,24.29-70.51,11.55-35.3,36.68-52.6,36.68-52.6"/><path class="cls-1" d="M511.83,710.26s71-2,70-7.64c-.78-4.46,18.79-56.38,23.36-70.35,11.17-34.12,40.71-51.64,40.71-51.64"/><path class="cls-1" d="M511.79,710.26s68.06-2.33,66.94-8.75c-.88-5.1,18-56.71,22.45-70.2,10.78-32.94,44.73-50.68,44.73-50.68"/><path class="cls-1" d="M511.75,710.27s65.13-2.65,63.88-9.87c-1-5.74,17.26-57,21.52-70,10.4-31.77,48.76-49.73,48.76-49.73"/><path class="cls-1" d="M511.71,710.27s62.21-3,60.82-11c-1.11-6.38,16.49-57.37,20.59-69.89,10-30.59,52.79-48.77,52.79-48.77"/><path class="cls-1" d="M511.68,710.28S571,707,569.43,698.17c-1.22-7,15.72-57.68,19.66-69.73,9.63-29.42,56.82-47.81,56.82-47.81"/><path class="cls-1" d="M511.64,710.28s56.35-3.59,54.68-13.22c-1.32-7.66,15-58,18.75-69.58,9.24-28.24,60.84-46.85,60.84-46.85"/><path class="cls-1" d="M511.6,710.29S565,706.38,563.22,696c-1.44-8.3,14.19-58.34,17.82-69.42,8.86-27.07,64.87-45.9,64.87-45.9"/><path class="cls-1" d="M511.56,710.29s50.51-4.22,48.56-15.45c-1.55-8.94,13.42-58.67,16.89-69.27,8.47-25.89,68.9-44.94,68.9-44.94"/><path class="cls-1" d="M511.53,710.3s47.57-4.54,45.49-16.58c-1.66-9.57,12.65-59,16-69.11,8.09-24.71,72.93-44,72.93-44"/><path class="cls-1" d="M511.49,710.3s44.65-4.85,42.43-17.69c-1.77-10.21,11.88-59.32,15-69,7.7-23.54,76.95-43,76.95-43"/><path class="cls-1" d="M511.45,710.31s41.73-5.17,39.36-18.81c-1.88-10.85,11.12-59.65,14.12-68.8,7.32-22.36,81-42.07,81-42.07"/><path class="cls-1" d="M511.41,710.31s38.8-5.48,36.3-19.92c-2-11.49,10.35-60,13.19-68.65,6.93-21.18,85-41.11,85-41.11"/><path class="cls-1" d="M511.38,710.32s35.87-5.8,33.23-21.05c-2.1-12.12,9.58-60.3,12.26-68.49,6.55-20,89-40.15,89-40.15"/><path class="cls-1" d="M511.34,710.33s32.95-6.12,30.17-22.17c-2.22-12.76,8.81-60.63,11.34-68.33,6.16-18.83,93.06-39.2,93.06-39.2"/><path class="cls-1" d="M511.3,710.33s30-6.43,27.1-23.28c-2.32-13.4,8.05-61,10.42-68.18,5.77-17.65,97.09-38.24,97.09-38.24"/><path class="cls-1" d="M511.26,710.34s27.1-6.75,24-24.4c-2.43-14,7.28-61.29,9.49-68,5.39-16.47,101.12-37.28,101.12-37.28"/><path class="cls-1" d="M511.23,710.34s24.17-7.06,21-25.52c-2.54-14.67,6.51-61.6,8.56-67.87,5-15.29,105.15-36.32,105.15-36.32"/><path class="cls-1" d="M511.19,710.35s21.24-7.38,17.91-26.64c-2.66-15.31,5.74-61.93,7.64-67.71,4.62-14.12,109.17-35.37,109.17-35.37"/><path class="cls-1" d="M511.15,710.35s18.32-7.69,14.84-27.75c-2.76-16,5-62.26,6.72-67.56,4.23-12.95,113.2-34.41,113.2-34.41"/><path class="cls-1" d="M511.11,710.36s15.4-8,11.78-28.87c-2.87-16.59,4.21-62.59,5.79-67.41,3.85-11.77,117.23-33.45,117.23-33.45"/><path class="cls-1" d="M511.08,710.36s12.47-8.33,8.71-30c-3-17.22,3.44-62.91,4.86-67.25,3.47-10.59,121.26-32.49,121.26-32.49"/><path class="cls-1" d="M511,710.37s9.54-8.65,5.65-31.11c-3.1-17.86,2.67-63.24,3.93-67.09,3.09-9.42,125.29-31.54,125.29-31.54"/><path class="cls-1" d="M511,710.37s6.62-9,2.59-32.22c-3.21-18.5,1.9-63.57,3-66.94,2.69-8.24,129.31-30.58,129.31-30.58"/><path class="cls-1" d="M511,710.38s3.7-9.28-.48-33.34c-3.31-19.15,1.14-63.9,2.09-66.79,2.31-7.06,133.34-29.62,133.34-29.62"/><path class="cls-1" d="M510.93,710.38s.76-9.59-3.55-34.46c-3.43-19.78.37-64.22,1.16-66.63,1.93-5.88,137.37-28.66,137.37-28.66"/><path class="cls-1" d="M510.89,710.39s-2.16-9.91-6.61-35.58c-3.54-20.42-.4-64.55.23-66.47,1.54-4.71,141.4-27.71,141.4-27.71"/><path class="cls-1" d="M510.85,710.4s-5.08-10.23-9.67-36.7c-3.65-21.06-1.17-64.88-.69-66.32,1.15-3.53,145.42-26.75,145.42-26.75"/><path class="cls-1" d="M510.82,710.4s-8-10.54-12.75-37.81c-3.76-21.7-1.93-65.2-1.61-66.17.77-2.35,149.45-25.79,149.45-25.79"/><path class="cls-1" d="M510.78,710.41S499.84,699.55,495,671.47c-3.87-22.33-2.7-65.52-2.54-66,.39-1.17,153.48-24.83,153.48-24.83"/><path class="cls-1" d="M510.74,710.41s-13.86-11.17-18.87-40c-4-23-3.47-65.85-3.47-65.85l157.51-23.88"/><path class="cls-2" d="M540,165c-207.11,0-375,167.89-375,375S332.89,915,540,915,915,747.11,915,540,747.11,165,540,165ZM511.57,446.2c13-31.71,42.41-75.27,42.41-75.27h46.23s-4.76,1.71-6.49,8c-6.5,23.69,0,82.52,0,82.52l-90.94,11.08S507.81,455.38,511.57,446.2Zm-23.18-24.48-2.68,165.43-53.87-22.92ZM627.72,638.38c-5.63,17.21-28.66,70.69-28.66,70.69H507.37S493.23,698,488.26,669.33c-3.95-22.79-3.05-65.33-3.05-65.33l156.26-23.69S641.47,596.36,627.72,638.38Zm-12-117.48c-8.78,51.19,16.43,47,16.43,47L518.64,587.76s-6.06,1.06,4.58-40.88c13-51.2,25.22-65.72,25.22-65.72l99.72-8.4S623.61,474.71,615.68,520.9Z"/></svg>