<?xml version="1.0" encoding="UTF-8" standalone="no"?>
<!-- Created with Inkscape (http://www.inkscape.org/) -->

<svg
   version="1.1"
   id="svg2"
   xml:space="preserve"
   width="1496.8667"
   height="816"
   color="#ffffff"
   viewBox="0 0 1496.8667 816"
   sodipodi:docname="armada_logo_text_left_black.eps"
   xmlns:inkscape="http://www.inkscape.org/namespaces/inkscape"
   xmlns:sodipodi="http://sodipodi.sourceforge.net/DTD/sodipodi-0.dtd"
   xmlns="http://www.w3.org/2000/svg"
   xmlns:svg="http://www.w3.org/2000/svg"><defs
     id="defs6" /><sodipodi:namedview
     id="namedview4"
     pagecolor="#ffffff"
     bordercolor="#666666"
     borderopacity="1.0"
     inkscape:pageshadow="2"
     inkscape:pageopacity="0.0"
     inkscape:pagecheckerboard="0" /><g
     id="g8"
     inkscape:groupmode="layer"
     inkscape:label="ink_ext_XXXXXX"
     transform="matrix(1.3333333,0,0,-1.3333333,0,816)"><g
       id="g10"
       transform="scale(0.1)"><path
         d="m 1894.92,2623.54 -486.81,-85.32 c 0,0 -15.57,203.49 129.6,464.13 l 404.73,29.52 c 0,0 -227.25,-239.76 -47.52,-408.33 z m -153.09,-587.61 h -372.96 c 0,0 -120.6,132.75 -102.69,430.11 l 664.11,108.99 c 0,0 -25.2,-248.94 -188.46,-539.1 z m -512.01,480.96 -237.328,95.94 240.208,628.83 h 8.73 z m 321.21,941.31 h 193.23 c 0,0 -41.13,-191.16 -19.89,-394.38 l -393.3,-54.27 c 0,0 91.08,275.67 219.96,448.65 z m -65.61,686.7 C 713.402,4144.9 87.6328,3519.04 87.6328,2747.02 c 0,-771.93 625.7692,-1397.79 1397.7872,-1397.79 772.02,0 1397.79,625.86 1397.79,1397.79 0,772.02 -625.77,1397.88 -1397.79,1397.88"
         style="fill:#040606;fill-opacity:1;fill-rule:nonzero;stroke:none"
         id="path12" /><path
         d="m 3858.62,2056.08 v 1315.97 h -286 v 84.01 h 661.99 v -84.01 h -284 V 2056.08 h -91.99"
         style="fill:#231f20;fill-opacity:1;fill-rule:nonzero;stroke:none"
         id="path14" /><path
         d="m 4446.59,2714.07 v -657.99 h -92 v 1399.98 h 92 v -657.99 h 435.99 v 657.99 h 94 V 2056.08 h -94 v 657.99 h -435.99"
         style="fill:#231f20;fill-opacity:1;fill-rule:nonzero;stroke:none"
         id="path16" /><path
         d="m 5726.56,3118.06 v -30 h -88 v 36 c 0,147.99 -55.99,259.99 -208,259.99 -152,0 -207.99,-110 -207.99,-257.99 0,-340 505.99,-346 505.99,-731.99 0,-201.99 -88,-350 -302,-350 -213.99,0 -301.99,148.01 -301.99,350 v 71.99 h 88 v -77.99 c 0,-150 57.99,-258.01 212,-258.01 153.99,0 211.99,108.01 211.99,258.01 0,336 -506,341.99 -506,731.99 0,210 92.01,346 298,348 212,0 298,-148 298,-350"
         style="fill:#231f20;fill-opacity:1;fill-rule:nonzero;stroke:none"
         id="path18" /><path
         d="m 6396.56,2500.06 h 211.99 l -105.99,708 z m 501.99,-443.98 h -222 l -38,253.98 h -270 l -38,-253.98 h -201.99 l 224,1399.98 h 321.99 l 224,-1399.98"
         style="fill:#231f20;fill-opacity:1;fill-rule:nonzero;stroke:none"
         id="path20" /><path
         d="m 7220.55,3256.06 v -430 h 86 c 81.99,0 131.99,36 131.99,148.01 v 137.99 c 0,100 -33.99,144 -111.99,144 z m 239.99,-1199.98 c -12,36 -20,57.99 -20,171.99 v 220 c 0,130 -43.99,177.99 -143.99,177.99 h -76 v -569.98 h -220 v 1399.98 h 332 c 227.99,0 325.99,-106 325.99,-322 v -109.99 c 0,-144.01 -45.99,-238.01 -143.99,-284.01 109.99,-45.99 145.99,-151.99 145.99,-297.98 v -216 c 0,-68.01 2.01,-118.01 24,-170 h -224"
         style="fill:#231f20;fill-opacity:1;fill-rule:nonzero;stroke:none"
         id="path22" /><path
         d="m 8270.53,2462.08 149.99,993.98 h 306 V 2056.08 h -208 V 3060.06 L 8366.53,2056.08 h -208 l -163.99,989.98 v -989.98 h -192 v 1399.98 h 305.99 l 162,-993.98"
         style="fill:#231f20;fill-opacity:1;fill-rule:nonzero;stroke:none"
         id="path24" /><path
         d="m 9096.51,2500.06 h 211.99 l -105.99,708 z m 501.99,-443.98 h -222 l -38,253.98 h -270 l -38,-253.98 h -201.99 l 224,1399.98 h 321.99 l 224,-1399.98"
         style="fill:#231f20;fill-opacity:1;fill-rule:nonzero;stroke:none"
         id="path26" /><path
         d="m 9920.5,3256.06 v -999.98 h 124 c 70,0 112,36 112,136 v 727.98 c 0,100 -42,136 -112,136 z m -220,200 h 348 c 220,0 328,-122.01 328,-346 v -707.98 c 0,-224.01 -108,-346 -328,-346 h -348 v 1399.98"
         style="fill:#231f20;fill-opacity:1;fill-rule:nonzero;stroke:none"
         id="path28" /><path
         d="m 10724.5,2500.06 h 212 l -106,708 z m 502,-443.98 h -222 l -38,253.98 h -270 l -38,-253.98 h -202 l 224,1399.98 h 322 l 224,-1399.98"
         style="fill:#231f20;fill-opacity:1;fill-rule:nonzero;stroke:none"
         id="path30" /></g></g></svg>
