<svg id="Layer_1" data-name="Layer 1" xmlns="http://www.w3.org/2000/svg" viewBox="0 0 2500 1032.49"><defs><style>.cls-1{fill:#f46c63;}</style></defs><path id="voi_black" data-name="voi black" class="cls-1" d="M797.4,323.38,502.6,1022.07H293.51L0,323.38H209.09L402.59,798.7l200-475.32Zm461,709.08q-110.39,0-198.06-46.1a342.71,342.71,0,0,1-137-128Q874,776.58,874,672.69T923.37,487a342.69,342.69,0,0,1,137-127.94q87.66-46.11,198.06-46.1t197.4,46.1A343.79,343.79,0,0,1,1592.2,487q49.35,81.81,49.35,185.71T1592.2,858.43a343.79,343.79,0,0,1-136.36,128Q1368.82,1032.46,1258.43,1032.46Zm0-166.23q77.92,0,127.92-52.6t50-140.91q0-88.32-50-140.93t-127.92-52.57q-77.92,0-128.57,52.6t-50.65,140.93q0,88.32,50.65,140.91T1258.43,866.23Zm583.11-542.85h202.59v698.69H1841.54Zm101.3-97.4q-55.83,0-90.91-32.47A105.26,105.26,0,0,1,1816.87,113a105.26,105.26,0,0,1,35.06-80.52Q1887,0,1942.84,0t90.91,31.17a100,100,0,0,1,35.06,77.92,110.32,110.32,0,0,1-35.06,83.77Q1998.68,226,1942.84,226ZM2374,1032.46a121.76,121.76,0,0,1-89.61-36.36A123.37,123.37,0,0,1,2248,905.19q0-55.83,36.36-90.26a133.86,133.86,0,0,1,179.22,0Q2500,849.34,2500,905.19a123.37,123.37,0,0,1-36.36,90.91,121.77,121.77,0,0,1-89.58,36.36Z"/></svg>