<!DOCTYPE svg PUBLIC "-//W3C//DTD SVG 1.1//EN" "http://www.w3.org/Graphics/SVG/1.1/DTD/svg11.dtd">
<!-- Uploaded to: SVG Repo, www.svgrepo.com, Transformed by: SVG Repo Mixer Tools -->
<svg fill="#000000" version="1.1" id="Capa_1" xmlns="http://www.w3.org/2000/svg" xmlns:xlink="http://www.w3.org/1999/xlink" width="100px" height="100px" viewBox="-87.51 -87.51 440.21 440.21" xml:space="preserve">
<g id="SVGRepo_bgCarrier" stroke-width="0">
<rect x="-87.51" y="-87.51" width="440.21" height="440.21" rx="220.105" fill="#7ed0ec" strokewidth="0"/>
</g>
<g id="SVGRepo_tracerCarrier" stroke-linecap="round" stroke-linejoin="round"/>
<g id="SVGRepo_iconCarrier"> <g> <g> <path d="M252.192,0H13C5.835,0,0,5.835,0,13v239.192c0,7.166,5.835,13,13,13h239.192c7.171,0,13-5.834,13-13V13 C265.192,5.835,259.363,0,252.192,0z M249.593,249.593H15.6V15.6h233.993V249.593z"/> <path d="M40.408,236.593h184.373c6.511,0,11.812-5.301,11.812-11.811V40.408c0-6.51-5.301-11.809-11.812-11.809H40.408 c-6.51,0-11.809,5.299-11.809,11.809v184.374C28.599,231.292,33.898,236.593,40.408,236.593z M44.199,44.199h176.795v176.795 H44.199V44.199z"/> <path d="M150.42,111.043c0-0.411,0-0.609-0.406-0.609c-1.62,0-34.441,4.659-45.377,5.472c-0.208,5.469-0.406,11.75-0.406,17.219 l12.964,0.609v49.836c0,0.406-0.208,0.812-0.808,1.016l-10.737,0.406c-0.208,5.261-0.208,11.339-0.208,16.818 c8.305,0,19.042-0.214,27.555-0.214c8.709,0,20.257,0,27.954,0c0-5.469,0-11.141,0-16.813l-11.141-0.406 C149.811,164.12,150.227,132.911,150.42,111.043z"/> <path d="M130.776,98.48c10.128,0,19.035-7.299,19.035-18.235c0-8.514-6.276-16.407-18.024-16.407 c-11.144,0-18.631,8.305-18.631,16.811C113.155,90.982,122.062,98.48,130.776,98.48z"/> </g> </g> </g>
</svg>