<!DOCTYPE svg PUBLIC "-//W3C//DTD SVG 1.1//EN" "http://www.w3.org/Graphics/SVG/1.1/DTD/svg11.dtd">
<!-- Uploaded to: SVG Repo, www.svgrepo.com, Transformed by: SVG Repo Mixer Tools -->
<svg width="100px" height="100px" viewBox="-2.4 -2.4 28.80 28.80" fill="none" xmlns="http://www.w3.org/2000/svg">
<g id="SVGRepo_bgCarrier" stroke-width="0">
<rect x="-2.4" y="-2.4" width="28.80" height="28.80" rx="14.4" fill="#7ed0ec" strokewidth="0"/>
</g>
<g id="SVGRepo_tracerCarrier" stroke-linecap="round" stroke-linejoin="round"/>
<g id="SVGRepo_iconCarrier"> <path d="M9.80469 13.7734L10.8186 7.05043C10.8555 6.80585 11.0657 6.625 11.3131 6.625H12.5595C12.8706 6.625 13.1062 6.9062 13.0517 7.21257L11.2062 17.5876C11.1637 17.8262 10.9563 18 10.7139 18H9.23878C9.0001 18 8.7947 17.8313 8.74831 17.5972L7.5 11.2969L6.26659 17.5961C6.22065 17.8307 6.01501 18 5.77591 18H4.29362C4.05139 18 3.84399 17.8264 3.80141 17.5879L1.94873 7.2129C1.89401 6.90643 2.12963 6.625 2.44095 6.625H3.70217C3.94969 6.625 4.15996 6.8061 4.19665 7.05088L5.20312 13.7656L6.46272 7.03305C6.50698 6.79647 6.71351 6.625 6.95419 6.625H8.05354C8.29426 6.625 8.50081 6.79652 8.54503 7.03315L9.80469 13.7734Z" fill="#000000"/> <path d="M20.7068 14.2109C20.9916 14.2109 21.2212 14.4491 21.1879 14.732C21.0651 15.7739 20.7144 16.582 20.1356 17.1562C19.4637 17.8229 18.5158 18.1562 17.2919 18.1562C16.0054 18.1562 15.0184 17.7344 14.3309 16.8906C13.6486 16.0417 13.3075 14.8333 13.3075 13.2656V11.3516C13.3075 9.78906 13.6617 8.58594 14.37 7.74219C15.0783 6.89323 16.0627 6.46875 17.3231 6.46875C18.5627 6.46875 19.5028 6.8151 20.1434 7.50781C20.6978 8.10246 21.0469 8.91971 21.1906 9.95956C21.2303 10.2464 20.9992 10.4922 20.7097 10.4922H19.4275C19.1564 10.4922 18.9378 10.2757 18.9121 10.0059C18.8604 9.46252 18.7448 9.07255 18.5653 8.83594C18.3414 8.52865 17.9273 8.375 17.3231 8.375C16.7085 8.375 16.2736 8.59115 16.0184 9.02344C15.7632 9.45052 15.6278 10.1562 15.6122 11.1406V13.2891C15.6122 14.4193 15.7372 15.1953 15.9872 15.6172C16.2424 16.0391 16.6773 16.25 17.2919 16.25C17.896 16.25 18.3127 16.1042 18.5419 15.8125C18.7201 15.5816 18.8385 15.2073 18.897 14.6897C18.9271 14.4232 19.1444 14.2109 19.4126 14.2109H20.7068Z" fill="#000000"/> </g>
</svg>